  0
SECTION
  2
HEADER
  9
$ACADVER
  1
AC1009
  9
$INSBASE
 10
0.0
 20
0.0
 30
0.0
  9
$EXTMIN
 10
0.1834804320662471
 20
0.152418987612819
 30
0.0
  9
$EXTMAX
 10
24.2207605645422994
 20
11.3781634273715699
 30
0.0
  9
$LIMMIN
 10
0.0
 20
0.0
  9
$LIMMAX
 10
12.0
 20
9.0
  9
$ORTHOMODE
 70
     0
  9
$REGENMODE
 70
     1
  9
$FILLMODE
 70
     1
  9
$QTEXTMODE
 70
     0
  9
$MIRRTEXT
 70
     0
  9
$DRAGMODE
 70
     2
  9
$LTSCALE
 40
1.0
  9
$OSMODE
 70
    37
  9
$ATTMODE
 70
     1
  9
$TEXTSIZE
 40
0.2
  9
$TRACEWID
 40
0.05
  9
$TEXTSTYLE
  7
STANDARD
  9
$CLAYER
  8
0
  9
$CELTYPE
  6
BYLAYER
  9
$CECOLOR
 62
   256
  9
$DIMSCALE
 40
1.0
  9
$DIMASZ
 40
0.18
  9
$DIMEXO
 40
0.0625
  9
$DIMDLI
 40
0.38
  9
$DIMRND
 40
0.0
  9
$DIMDLE
 40
0.0
  9
$DIMEXE
 40
0.18
  9
$DIMTP
 40
0.0
  9
$DIMTM
 40
0.0
  9
$DIMTXT
 40
0.18
  9
$DIMCEN
 40
0.09
  9
$DIMTSZ
 40
0.0
  9
$DIMTOL
 70
     0
  9
$DIMLIM
 70
     0
  9
$DIMTIH
 70
     1
  9
$DIMTOH
 70
     1
  9
$DIMSE1
 70
     0
  9
$DIMSE2
 70
     0
  9
$DIMTAD
 70
     0
  9
$DIMZIN
 70
     0
  9
$DIMBLK
  1

  9
$DIMASO
 70
     1
  9
$DIMSHO
 70
     1
  9
$DIMPOST
  1

  9
$DIMAPOST
  1

  9
$DIMALT
 70
     0
  9
$DIMALTD
 70
     2
  9
$DIMALTF
 40
25.3999999999999986
  9
$DIMLFAC
 40
1.0
  9
$DIMTOFL
 70
     0
  9
$DIMTVP
 40
0.0
  9
$DIMTIX
 70
     0
  9
$DIMSOXD
 70
     0
  9
$DIMSAH
 70
     0
  9
$DIMBLK1
  1

  9
$DIMBLK2
  1

  9
$DIMSTYLE
  2
STANDARD
  9
$DIMCLRD
 70
     0
  9
$DIMCLRE
 70
     0
  9
$DIMCLRT
 70
     0
  9
$DIMTFAC
 40
1.0
  9
$DIMGAP
 40
0.09
  9
$LUNITS
 70
     2
  9
$LUPREC
 70
     4
  9
$SKETCHINC
 40
0.1
  9
$FILLETRAD
 40
0.0
  9
$AUNITS
 70
     0
  9
$AUPREC
 70
     0
  9
$MENU
  1
.
  9
$ELEVATION
 40
0.0
  9
$PELEVATION
 40
0.0
  9
$THICKNESS
 40
0.0
  9
$LIMCHECK
 70
     0
  9
$BLIPMODE
 70
     0
  9
$CHAMFERA
 40
0.0
  9
$CHAMFERB
 40
0.0
  9
$SKPOLY
 70
     0
  9
$TDCREATE
 40
2457535.5015277778729796
  9
$TDUPDATE
 40
2457542.5190856480039656
  9
$TDINDWG
 40
0.4053703704
  9
$TDUSRTIMER
 40
0.4053703704
  9
$USRTIMER
 70
     1
  9
$ANGBASE
 50
0.0
  9
$ANGDIR
 70
     0
  9
$PDMODE
 70
     0
  9
$PDSIZE
 40
0.0
  9
$PLINEWID
 40
0.0
  9
$COORDS
 70
     1
  9
$SPLFRAME
 70
     0
  9
$SPLINETYPE
 70
     6
  9
$SPLINESEGS
 70
     8
  9
$ATTDIA
 70
     1
  9
$ATTREQ
 70
     1
  9
$HANDLING
 70
     1
  9
$HANDSEED
  5
2AAB
  9
$SURFTAB1
 70
     6
  9
$SURFTAB2
 70
     6
  9
$SURFTYPE
 70
     6
  9
$SURFU
 70
     6
  9
$SURFV
 70
     6
  9
$UCSNAME
  2

  9
$UCSORG
 10
0.0
 20
0.0
 30
0.0
  9
$UCSXDIR
 10
1.0
 20
0.0
 30
0.0
  9
$UCSYDIR
 10
0.0
 20
1.0
 30
0.0
  9
$PUCSNAME
  2

  9
$PUCSORG
 10
0.0
 20
0.0
 30
0.0
  9
$PUCSXDIR
 10
1.0
 20
0.0
 30
0.0
  9
$PUCSYDIR
 10
0.0
 20
1.0
 30
0.0
  9
$USERI1
 70
     0
  9
$USERI2
 70
     0
  9
$USERI3
 70
     0
  9
$USERI4
 70
     0
  9
$USERI5
 70
     0
  9
$USERR1
 40
0.0
  9
$USERR2
 40
0.0
  9
$USERR3
 40
0.0
  9
$USERR4
 40
0.0
  9
$USERR5
 40
0.0
  9
$WORLDVIEW
 70
     1
  9
$SHADEDGE
 70
     3
  9
$SHADEDIF
 70
    70
  9
$TILEMODE
 70
     1
  9
$MAXACTVP
 70
    64
  9
$PLIMCHECK
 70
     0
  9
$PEXTMIN
 10
0.0
 20
0.0
 30
0.0
  9
$PEXTMAX
 10
0.0
 20
0.0
 30
0.0
  9
$PLIMMIN
 10
0.0
 20
0.0
  9
$PLIMMAX
 10
12.0
 20
9.0
  9
$UNITMODE
 70
     0
  9
$VISRETAIN
 70
     1
  9
$PLINEGEN
 70
     0
  9
$PSLTSCALE
 70
     1
  0
ENDSEC
  0
SECTION
  2
TABLES
  0
TABLE
  2
VPORT
 70
     1
  0
VPORT
  2
*ACTIVE
 70
     0
 10
0.0
 20
0.0
 11
1.0
 21
1.0
 12
6.7274566773030191
 22
3.5066250978357969
 13
0.0
 23
0.0
 14
0.5
 24
0.5
 15
0.5
 25
0.5
 16
0.0
 26
0.0
 36
1.0
 17
0.0
 27
0.0
 37
0.0
 40
8.6687387299774912
 41
2.2831541218637992
 42
50.0
 43
0.0
 44
0.0
 50
0.0
 51
0.0
 71
     0
 72
  1000
 73
     1
 74
     3
 75
     0
 76
     1
 77
     0
 78
     0
  0
ENDTAB
  0
TABLE
  2
LTYPE
 70
     1
  0
LTYPE
  2
CONTINUOUS
 70
     0
  3
Solid line
 72
    65
 73
     0
 40
0.0
  0
ENDTAB
  0
TABLE
  2
LAYER
 70
     2
  0
LAYER
  2
0
 70
     0
 62
     7
  6
CONTINUOUS
  0
LAYER
  2
DEFPOINTS
 70
     0
 62
     7
  6
CONTINUOUS
  0
ENDTAB
  0
TABLE
  2
STYLE
 70
     2
  0
STYLE
  2
STANDARD
 70
     0
 40
0.0
 41
1.0
 50
0.0
 71
     0
 42
0.2
  3
txt
  4

  0
STYLE
  2
ANNOTATIVE
 70
     0
 40
0.0
 41
1.0
 50
0.0
 71
     0
 42
0.2
  3
txt
  4

  0
ENDTAB
  0
TABLE
  2
VIEW
 70
     0
  0
ENDTAB
  0
TABLE
  2
UCS
 70
     0
  0
ENDTAB
  0
TABLE
  2
APPID
 70
    11
  0
APPID
  2
ACAD
 70
     0
  0
APPID
  2
ACADANNOPO
 70
     0
  0
APPID
  2
ACADANNOTATIVE
 70
     0
  0
APPID
  2
ACAD_DSTYLE_DIMJAG
 70
     0
  0
APPID
  2
ACAD_DSTYLE_DIMTALN
 70
     0
  0
APPID
  2
ACAD_MLEADERVER
 70
     0
  0
APPID
  2
ACAD_NAV_VCDISPLAY
 70
     0
  0
APPID
  2
ACAD_EXEMPT_FROM_CAD_STANDARDS
 70
     0
  0
APPID
  2
ACAD_STEPID
 70
     0
  0
APPID
  2
ACAD_DSTYLE_DIMRADIAL_EXTENSION
 70
     0
  0
APPID
  2
ACAD_PSEXT
 70
     0
  0
ENDTAB
  0
TABLE
  2
DIMSTYLE
 70
     2
  0
DIMSTYLE
  2
STANDARD
 70
     0
  3

  4

  5

  6

  7

 40
1.0
 41
0.18
 42
0.0625
 43
0.38
 44
0.18
 45
0.0
 46
0.0
 47
0.0
 48
0.0
140
0.18
141
0.09
142
0.0
143
25.3999999999999986
144
1.0
145
0.0
146
1.0
147
0.09
 71
     0
 72
     0
 73
     1
 74
     1
 75
     0
 76
     0
 77
     0
 78
     0
170
     0
171
     2
172
     0
173
     0
174
     0
175
     0
176
     0
177
     0
178
     0
  0
DIMSTYLE
  2
ANNOTATIVE
 70
     0
  3

  4

  5

  6

  7

 40
0.0
 41
0.18
 42
0.0625
 43
0.38
 44
0.18
 45
0.0
 46
0.0
 47
0.0
 48
0.0
140
0.18
141
0.09
142
0.0
143
25.3999999999999986
144
1.0
145
0.0
146
1.0
147
0.09
 71
     0
 72
     0
 73
     1
 74
     1
 75
     0
 76
     0
 77
     0
 78
     0
170
     0
171
     2
172
     0
173
     0
174
     0
175
     0
176
     0
177
     0
178
     0
  0
ENDTAB
  0
ENDSEC
  0
SECTION
  2
BLOCKS
  0
BLOCK
  8
0
  2
$MODEL_SPACE
 70
     0
 10
0.0
 20
0.0
 30
0.0
  3
$MODEL_SPACE
  1

  0
ENDBLK
  5
21
  8
0
  0
BLOCK
 67
     1
  8
0
  2
$PAPER_SPACE
 70
     0
 10
0.0
 20
0.0
 30
0.0
  3
$PAPER_SPACE
  1

  0
ENDBLK
  5
5B
 67
     1
  8
0
  0
BLOCK
  8
0
  2
A$C62970A93
 70
     0
 10
0.0
 20
0.0
 30
0.0
  3
A$C62970A93
  1

  0
CIRCLE
  5
23E
  8
0
 10
0.0699998722215014
 20
0.0699999595520211
 30
0.0
 40
0.07
  0
ENDBLK
  5
242
  8
0
  0
BLOCK
  8
0
  2
A$C5A60346D
 70
     0
 10
0.0
 20
0.0
 30
0.0
  3
A$C5A60346D
  1

  0
POLYLINE
  5
399
  8
0
 66
     1
 10
0.0
 20
0.0
 30
0.0
  0
VERTEX
  5
29CC
  8
0
 10
-0.0000000435182557
 20
0.0074999881580098
 30
0.0
  0
VERTEX
  5
29CD
  8
0
 10
0.4684761559494462
 20
0.0074999881580098
 30
0.0
  0
SEQEND
  5
29CE
  8
0
  0
POLYLINE
  5
39A
  8
0
 66
     1
 10
0.0
 20
0.0
 30
0.0
  0
VERTEX
  5
29CF
  8
0
 10
0.5315237570140426
 20
0.0074999881580098
 30
0.0
  0
VERTEX
  5
29D0
  8
0
 10
0.9999999635011249
 20
0.0074999881580098
 30
0.0
  0
SEQEND
  5
29D1
  8
0
  0
ARC
  5
39B
  8
0
 10
0.4999999564817444
 20
0.0699999881580098
 30
0.0
 40
0.07
 50
296.7655005767560965
 51
243.2344994232439035
  0
ENDBLK
  5
39F
  8
0
  0
BLOCK
  8
0
  2
A$C76DC606F
 70
     0
 10
0.0
 20
0.0
 30
0.0
  3
A$C76DC606F
  1

  0
LINE
  5
4CD
  8
0
 10
0.0000000410856131
 20
0.007500002903754
 30
0.0
 11
0.4684762405533169
 21
0.007500002903754
 31
0.0
1001
ACAD_STEPID
1071
        1
  0
ARC
  5
4CE
  8
0
 10
0.5000000410856132
 20
0.070000002903754
 30
0.0
 40
0.07
 50
296.7655005767559828
 51
243.2344994232439035
1001
ACAD_STEPID
1071
        1
  0
LINE
  5
4CF
  8
0
 10
0.5315238416179096
 20
0.007500002903754
 30
0.0
 11
1.0000000410856129
 21
0.007500002903754
 31
0.0
1001
ACAD_STEPID
1071
        1
  0
LINE
  5
4D0
  8
0
 10
1.0000000410856129
 20
0.132500002903754
 30
0.0
 11
1.0000000410856129
 21
0.007500002903754
 31
0.0
1001
ACAD_STEPID
1071
        1
  0
LINE
  5
4D1
  8
0
 10
1.0000000410856129
 20
0.132500002903754
 30
0.0
 11
1.4300000410856131
 21
0.132500002903754
 31
0.0
1001
ACAD_STEPID
1071
        1
  0
LINE
  5
4D2
  8
0
 10
1.4300000410856131
 20
0.632500002903754
 30
0.0
 11
1.4300000410856131
 21
0.132500002903754
 31
0.0
1001
ACAD_STEPID
1071
        1
  0
LINE
  5
4D3
  8
0
 10
1.570000041085613
 20
0.632500002903754
 30
0.0
 11
1.4300000410856131
 21
0.632500002903754
 31
0.0
1001
ACAD_STEPID
1071
        1
  0
LINE
  5
4D4
  8
0
 10
1.570000041085613
 20
0.132500002903754
 30
0.0
 11
1.570000041085613
 21
0.632500002903754
 31
0.0
1001
ACAD_STEPID
1071
        1
  0
LINE
  5
4D5
  8
0
 10
1.570000041085613
 20
0.132500002903754
 30
0.0
 11
2.0000000410856131
 21
0.132500002903754
 31
0.0
1001
ACAD_STEPID
1071
        1
  0
LINE
  5
4D6
  8
0
 10
2.0000000410856131
 20
0.007500002903754
 30
0.0
 11
2.0000000410856131
 21
0.132500002903754
 31
0.0
1001
ACAD_STEPID
1071
        1
  0
LINE
  5
4D7
  8
0
 10
2.0000000410856131
 20
0.007500002903754
 30
0.0
 11
2.4684762405533158
 21
0.007500002903754
 31
0.0
1001
ACAD_STEPID
1071
        1
  0
ARC
  5
4D8
  8
0
 10
2.5000000410856131
 20
0.070000002903754
 30
0.0
 40
0.0700000000000001
 50
296.7655005767562102
 51
243.2344994232437045
1001
ACAD_STEPID
1071
        1
  0
LINE
  5
4D9
  8
0
 10
2.5315238416179091
 20
0.007500002903754
 30
0.0
 11
3.0000000481049929
 21
0.0075000028721774
 31
0.0
1001
ACAD_STEPID
1071
        1
  0
LINE
  5
4DA
  8
0
 10
3.0000000481049929
 20
0.0075000028721774
 30
0.0
 11
3.0000000481049929
 21
0.1325000028721774
 31
0.0
1001
ACAD_STEPID
1071
        1
  0
LINE
  5
4DB
  8
0
 10
3.0000000481049929
 20
0.1325000028721774
 30
0.0
 11
3.43000003003631
 21
0.1325000061935455
 31
0.0
1001
ACAD_STEPID
1071
        1
  0
LINE
  5
4DC
  8
0
 10
3.43000003003631
 20
0.6325000061935456
 30
0.0
 11
3.43000003003631
 21
0.1325000061935455
 31
0.0
1001
ACAD_STEPID
1071
        1
  0
LINE
  5
4DD
  8
0
 10
3.5700000300363111
 20
0.6325000061935456
 30
0.0
 11
3.43000003003631
 21
0.6325000061935456
 31
0.0
1001
ACAD_STEPID
1071
        1
  0
LINE
  5
4DE
  8
0
 10
3.5700000300363111
 20
0.1325000028721774
 30
0.0
 11
3.5700000300363111
 21
0.6325000061935456
 31
0.0
1001
ACAD_STEPID
1071
        1
  0
LINE
  5
4DF
  8
0
 10
3.5700000300363111
 20
0.1325000028721774
 30
0.0
 11
4.0000000481049929
 21
0.1325000028721774
 31
0.0
1001
ACAD_STEPID
1071
        1
  0
LINE
  5
4E0
  8
0
 10
4.0000000481049929
 20
0.007500002903754
 30
0.0
 11
4.0000000481049929
 21
0.1325000028721774
 31
0.0
1001
ACAD_STEPID
1071
        1
  0
LINE
  5
4E1
  8
0
 10
4.0000000481049929
 20
0.007500002903754
 30
0.0
 11
4.4684762405533158
 21
0.007500002903754
 31
0.0
1001
ACAD_STEPID
1071
        1
  0
ARC
  5
4E2
  8
0
 10
4.5000000410856131
 20
0.070000002903754
 30
0.0
 40
0.0700000000000001
 50
296.7655005767562102
 51
243.2344994232437045
1001
ACAD_STEPID
1071
        1
  0
LINE
  5
4E3
  8
0
 10
4.5315238416179087
 20
0.007500002903754
 30
0.0
 11
5.0000000481049929
 21
0.0075000028721774
 31
0.0
1001
ACAD_STEPID
1071
        1
  0
LINE
  5
4E4
  8
0
 10
5.0000000481049929
 20
0.0075000028721774
 30
0.0
 11
5.0000000481049929
 21
0.1325000028721774
 31
0.0
1001
ACAD_STEPID
1071
        1
  0
ENDBLK
  5
4E8
  8
0
  0
BLOCK
  8
0
  2
A$C2CEC69A9
 70
     0
 10
0.0
 20
0.0
 30
0.0
  3
A$C2CEC69A9
  1

  0
LINE
  5
520
  8
0
 10
0.0000000410856131
 20
0.007500002903754
 30
0.0
 11
0.4684762405533169
 21
0.007500002903754
 31
0.0
1001
ACAD_STEPID
1071
        1
  0
ARC
  5
521
  8
0
 10
0.5000000410856132
 20
0.070000002903754
 30
0.0
 40
0.07
 50
296.7655005767559828
 51
243.2344994232439035
1001
ACAD_STEPID
1071
        1
  0
LINE
  5
522
  8
0
 10
0.5315238416179096
 20
0.007500002903754
 30
0.0
 11
1.0000000410856129
 21
0.007500002903754
 31
0.0
1001
ACAD_STEPID
1071
        1
  0
LINE
  5
523
  8
0
 10
1.0000000410856129
 20
0.132500002903754
 30
0.0
 11
1.0000000410856129
 21
0.007500002903754
 31
0.0
1001
ACAD_STEPID
1071
        1
  0
LINE
  5
524
  8
0
 10
1.0000000410856129
 20
0.132500002903754
 30
0.0
 11
1.4300000410856131
 21
0.132500002903754
 31
0.0
1001
ACAD_STEPID
1071
        1
  0
LINE
  5
525
  8
0
 10
1.4300000410856131
 20
0.632500002903754
 30
0.0
 11
1.4300000410856131
 21
0.132500002903754
 31
0.0
1001
ACAD_STEPID
1071
        1
  0
LINE
  5
526
  8
0
 10
1.570000041085613
 20
0.632500002903754
 30
0.0
 11
1.4300000410856131
 21
0.632500002903754
 31
0.0
1001
ACAD_STEPID
1071
        1
  0
LINE
  5
527
  8
0
 10
1.570000041085613
 20
0.132500002903754
 30
0.0
 11
1.570000041085613
 21
0.632500002903754
 31
0.0
1001
ACAD_STEPID
1071
        1
  0
LINE
  5
528
  8
0
 10
1.570000041085613
 20
0.132500002903754
 30
0.0
 11
2.0000000410856131
 21
0.132500002903754
 31
0.0
1001
ACAD_STEPID
1071
        1
  0
LINE
  5
529
  8
0
 10
2.0000000410856131
 20
0.007500002903754
 30
0.0
 11
2.0000000410856131
 21
0.132500002903754
 31
0.0
1001
ACAD_STEPID
1071
        1
  0
LINE
  5
52A
  8
0
 10
2.0000000410856131
 20
0.007500002903754
 30
0.0
 11
2.4684762405533158
 21
0.007500002903754
 31
0.0
1001
ACAD_STEPID
1071
        1
  0
ARC
  5
52B
  8
0
 10
2.5000000410856131
 20
0.070000002903754
 30
0.0
 40
0.0700000000000001
 50
296.7655005767562102
 51
243.2344994232437045
1001
ACAD_STEPID
1071
        1
  0
LINE
  5
52C
  8
0
 10
2.5315238416179091
 20
0.007500002903754
 30
0.0
 11
3.0000000481049929
 21
0.0075000028721774
 31
0.0
1001
ACAD_STEPID
1071
        1
  0
LINE
  5
52D
  8
0
 10
3.0000000481049929
 20
0.0075000028721774
 30
0.0
 11
3.0000000481049929
 21
0.1325000028721774
 31
0.0
1001
ACAD_STEPID
1071
        1
  0
LINE
  5
52E
  8
0
 10
3.0000000481049929
 20
0.1325000028721774
 30
0.0
 11
3.43000003003631
 21
0.1325000061935455
 31
0.0
1001
ACAD_STEPID
1071
        1
  0
LINE
  5
52F
  8
0
 10
3.43000003003631
 20
0.6325000061935456
 30
0.0
 11
3.43000003003631
 21
0.1325000061935455
 31
0.0
1001
ACAD_STEPID
1071
        1
  0
LINE
  5
530
  8
0
 10
3.5700000300363111
 20
0.6325000061935456
 30
0.0
 11
3.43000003003631
 21
0.6325000061935456
 31
0.0
1001
ACAD_STEPID
1071
        1
  0
LINE
  5
531
  8
0
 10
3.5700000300363111
 20
0.1325000028721774
 30
0.0
 11
3.5700000300363111
 21
0.6325000061935456
 31
0.0
1001
ACAD_STEPID
1071
        1
  0
LINE
  5
532
  8
0
 10
3.5700000300363111
 20
0.1325000028721774
 30
0.0
 11
4.0000000481049929
 21
0.1325000028721774
 31
0.0
1001
ACAD_STEPID
1071
        1
  0
LINE
  5
533
  8
0
 10
4.0000000481049929
 20
0.007500002903754
 30
0.0
 11
4.0000000481049929
 21
0.1325000028721774
 31
0.0
1001
ACAD_STEPID
1071
        1
  0
LINE
  5
534
  8
0
 10
4.0000000481049929
 20
0.007500002903754
 30
0.0
 11
4.4684762405533158
 21
0.007500002903754
 31
0.0
1001
ACAD_STEPID
1071
        1
  0
ARC
  5
535
  8
0
 10
4.5000000410856131
 20
0.070000002903754
 30
0.0
 40
0.0700000000000001
 50
296.7655005767562102
 51
243.2344994232437045
1001
ACAD_STEPID
1071
        1
  0
LINE
  5
536
  8
0
 10
4.5315238416179087
 20
0.007500002903754
 30
0.0
 11
5.0000000481049929
 21
0.0075000028721774
 31
0.0
1001
ACAD_STEPID
1071
        1
  0
ENDBLK
  5
53A
  8
0
  0
BLOCK
  8
0
  2
A$C248933D9
 70
     0
 10
0.0
 20
0.0
 30
0.0
  3
A$C248933D9
  1

  0
LINE
  5
71D
  8
0
 10
0.0000000123056907
 20
0.007500002903754
 30
0.0
 11
0.4684762047540137
 21
0.007500002903754
 31
0.0
1001
ACAD_STEPID
1071
        1
  0
ARC
  5
71E
  8
0
 10
0.5000000052863101
 20
0.070000002903754
 30
0.0
 40
0.0700000000000001
 50
296.7655005767562102
 51
243.2344994232437045
1001
ACAD_STEPID
1071
        1
  0
LINE
  5
71F
  8
0
 10
0.5315238058186065
 20
0.007500002903754
 30
0.0
 11
1.00000001230569
 21
0.0075000028721774
 31
0.0
1001
ACAD_STEPID
1071
        1
  0
ENDBLK
  5
723
  8
0
  0
BLOCK
  8
0
  2
A$C65FE7AF3
 70
     0
 10
0.0
 20
0.0
 30
0.0
  3
A$C65FE7AF3
  1

  0
LINE
  5
D36
  8
0
 10
8.5799998728903404
 20
5.017499957716808
 30
0.0
 11
0.5799998728903404
 21
5.017499957716808
 31
0.0
  0
LINE
  5
D37
  8
0
 10
0.5799998728903404
 20
5.017499957716808
 30
0.0
 11
0.5799998728903404
 21
0.017499957716808
 31
0.0
  0
CIRCLE
  5
D38
  8
0
 10
1.5799998728903399
 20
4.017499957716808
 30
0.0
 40
0.07
  0
ARC
  5
D39
  8
0
 10
1.5799998728903399
 20
4.017499957716808
 30
0.0
 40
1.5
 50
270.0
 51
0.0
  0
CIRCLE
  5
D3A
  8
0
 10
1.5799998728903399
 20
4.017499957716808
 30
0.0
 40
0.08
  0
ARC
  5
D3B
  8
0
 10
1.5799998728903399
 20
4.017499957716808
 30
0.0
 40
1.5800000000000001
 50
270.0
 51
0.0
  0
LINE
  5
D3C
  8
0
 10
3.0799998728903399
 20
4.017499957716808
 30
0.0
 11
3.15999987289034
 21
4.017499957716808
 31
0.0
  0
LINE
  5
D3D
  8
0
 10
1.5799998728903399
 20
2.517499957716808
 30
0.0
 11
1.5799998728903399
 21
2.4374999577168071
 31
0.0
  0
LINE
  5
D3E
  8
0
 10
0.5799998728903404
 20
0.017499957716808
 30
0.0
 11
1.0300624120017441
 21
0.017499957716808
 31
0.0
  0
LINE
  5
D3F
  8
0
 10
1.129937333778936
 20
0.017499957716808
 30
0.0
 11
1.5799998728903399
 21
0.017499957716808
 31
0.0
  0
ARC
  5
D40
  8
0
 10
1.0799998728903399
 20
0.079999957716808
 30
0.0
 40
0.08
 50
308.6248328730529806
 51
231.3751671269469057
  0
LINE
  5
D41
  8
0
 10
1.5799998728903399
 20
0.142499957716808
 30
0.0
 11
1.5799998728903399
 21
0.017499957716808
 31
0.0
  0
LINE
  5
D42
  8
0
 10
1.5799998728903399
 20
0.142499957716808
 30
0.0
 11
1.9999998728903401
 21
0.142499957716808
 31
0.0
  0
LINE
  5
D43
  8
0
 10
2.15999987289034
 20
0.142499957716808
 30
0.0
 11
2.5799998728903399
 21
0.142499957716808
 31
0.0
  0
LINE
  5
D44
  8
0
 10
2.5799998728903399
 20
0.017499957716808
 30
0.0
 11
2.5799998728903399
 21
0.142499957716808
 31
0.0
  0
LINE
  5
D45
  8
0
 10
2.15999987289034
 20
0.6424999577168081
 30
0.0
 11
2.15999987289034
 21
0.4924999577168081
 31
0.0
  0
LINE
  5
D46
  8
0
 10
2.15999987289034
 20
0.352499957716808
 30
0.0
 11
2.15999987289034
 21
0.142499957716808
 31
0.0
  0
LINE
  5
D47
  8
0
 10
1.9999998728903401
 20
0.6424999577168081
 30
0.0
 11
1.9999998728903401
 21
0.4924999577168081
 31
0.0
  0
LINE
  5
D48
  8
0
 10
1.9999998728903401
 20
0.352499957716808
 30
0.0
 11
1.9999998728903401
 21
0.142499957716808
 31
0.0
  0
LINE
  5
D49
  8
0
 10
1.9999998728903401
 20
0.6424999577168081
 30
0.0
 11
2.15999987289034
 21
0.6424999577168081
 31
0.0
  0
LINE
  5
D4A
  8
0
 10
1.9999998728903401
 20
0.4924999577168081
 30
0.0
 11
1.87999987289034
 21
0.4924999577168081
 31
0.0
  0
LINE
  5
D4B
  8
0
 10
2.15999987289034
 20
0.4924999577168081
 30
0.0
 11
2.2799998728903401
 21
0.4924999577168081
 31
0.0
  0
LINE
  5
D4C
  8
0
 10
2.2799998728903401
 20
0.4924999577168081
 30
0.0
 11
2.2799998728903401
 21
0.352499957716808
 31
0.0
  0
LINE
  5
D4D
  8
0
 10
2.2799998728903401
 20
0.352499957716808
 30
0.0
 11
2.15999987289034
 21
0.352499957716808
 31
0.0
  0
LINE
  5
D4E
  8
0
 10
1.9999998728903401
 20
0.352499957716808
 30
0.0
 11
1.8799998728903411
 21
0.352499957716808
 31
0.0
  0
LINE
  5
D4F
  8
0
 10
1.87999987289034
 20
0.4924999577168081
 30
0.0
 11
1.8799998728903411
 21
0.352499957716808
 31
0.0
  0
LINE
  5
D50
  8
0
 10
2.5799998728903399
 20
0.017499957716808
 30
0.0
 11
3.030062412001743
 21
0.017499957716808
 31
0.0
  0
LINE
  5
D51
  8
0
 10
3.129937333778936
 20
0.017499957716808
 30
0.0
 11
3.5799998728903399
 21
0.017499957716808
 31
0.0
  0
ARC
  5
D52
  8
0
 10
3.0799998728903399
 20
0.079999957716808
 30
0.0
 40
0.08
 50
308.6248328730529806
 51
231.3751671269469057
  0
LINE
  5
D53
  8
0
 10
3.5799998728903399
 20
0.142499957716808
 30
0.0
 11
3.5799998728903399
 21
0.017499957716808
 31
0.0
  0
LINE
  5
D54
  8
0
 10
3.5799998728903399
 20
0.142499957716808
 30
0.0
 11
3.9999998728903399
 21
0.142499957716808
 31
0.0
  0
LINE
  5
D55
  8
0
 10
4.1599998728903396
 20
0.142499957716808
 30
0.0
 11
4.5799998728903404
 21
0.142499957716808
 31
0.0
  0
LINE
  5
D56
  8
0
 10
4.5799998728903404
 20
0.017499957716808
 30
0.0
 11
4.5799998728903404
 21
0.142499957716808
 31
0.0
  0
LINE
  5
D57
  8
0
 10
4.1599998728903396
 20
0.6424999577168081
 30
0.0
 11
4.1599998728903396
 21
0.4924999577168081
 31
0.0
  0
LINE
  5
D58
  8
0
 10
4.1599998728903396
 20
0.352499957716808
 30
0.0
 11
4.1599998728903396
 21
0.142499957716808
 31
0.0
  0
LINE
  5
D59
  8
0
 10
3.9999998728903399
 20
0.6424999577168081
 30
0.0
 11
3.9999998728903399
 21
0.4924999577168081
 31
0.0
  0
LINE
  5
D5A
  8
0
 10
3.9999998728903399
 20
0.352499957716808
 30
0.0
 11
3.9999998728903399
 21
0.142499957716808
 31
0.0
  0
LINE
  5
D5B
  8
0
 10
3.9999998728903399
 20
0.6424999577168081
 30
0.0
 11
4.1599998728903396
 21
0.6424999577168081
 31
0.0
  0
LINE
  5
D5C
  8
0
 10
3.9999998728903399
 20
0.4924999577168081
 30
0.0
 11
3.8799998728903411
 21
0.4924999577168081
 31
0.0
  0
LINE
  5
D5D
  8
0
 10
4.1599998728903396
 20
0.4924999577168081
 30
0.0
 11
4.2799998728903388
 21
0.4924999577168081
 31
0.0
  0
LINE
  5
D5E
  8
0
 10
4.2799998728903388
 20
0.4924999577168081
 30
0.0
 11
4.2799998728903388
 21
0.352499957716808
 31
0.0
  0
LINE
  5
D5F
  8
0
 10
4.2799998728903388
 20
0.352499957716808
 30
0.0
 11
4.1599998728903396
 21
0.352499957716808
 31
0.0
  0
LINE
  5
D60
  8
0
 10
3.9999998728903399
 20
0.352499957716808
 30
0.0
 11
3.8799998728903411
 21
0.352499957716808
 31
0.0
  0
LINE
  5
D61
  8
0
 10
3.8799998728903411
 20
0.4924999577168081
 30
0.0
 11
3.8799998728903411
 21
0.352499957716808
 31
0.0
  0
LINE
  5
D62
  8
0
 10
4.5799998728903404
 20
0.017499957716808
 30
0.0
 11
5.030062412001743
 21
0.017499957716808
 31
0.0
  0
LINE
  5
D63
  8
0
 10
5.129937333778936
 20
0.017499957716808
 30
0.0
 11
5.5799998728903404
 21
0.017499957716808
 31
0.0
  0
ARC
  5
D64
  8
0
 10
5.0799998728903404
 20
0.079999957716808
 30
0.0
 40
0.08
 50
308.6248328730529806
 51
231.375167126946792
  0
LINE
  5
D65
  8
0
 10
5.5799998728903404
 20
0.142499957716808
 30
0.0
 11
5.5799998728903404
 21
0.017499957716808
 31
0.0
  0
LINE
  5
D66
  8
0
 10
5.5799998728903404
 20
0.142499957716808
 30
0.0
 11
5.9999998728903403
 21
0.142499957716808
 31
0.0
  0
LINE
  5
D67
  8
0
 10
6.1599998728903396
 20
0.142499957716808
 30
0.0
 11
6.5799998728903404
 21
0.142499957716808
 31
0.0
  0
LINE
  5
D68
  8
0
 10
6.5799998728903404
 20
0.017499957716808
 30
0.0
 11
6.5799998728903404
 21
0.142499957716808
 31
0.0
  0
LINE
  5
D69
  8
0
 10
6.1599998728903396
 20
0.6424999577168081
 30
0.0
 11
6.1599998728903396
 21
0.4924999577168081
 31
0.0
  0
LINE
  5
D6A
  8
0
 10
6.1599998728903396
 20
0.352499957716808
 30
0.0
 11
6.1599998728903396
 21
0.142499957716808
 31
0.0
  0
LINE
  5
D6B
  8
0
 10
5.9999998728903403
 20
0.6424999577168081
 30
0.0
 11
5.9999998728903403
 21
0.4924999577168081
 31
0.0
  0
LINE
  5
D6C
  8
0
 10
5.9999998728903403
 20
0.352499957716808
 30
0.0
 11
5.9999998728903403
 21
0.142499957716808
 31
0.0
  0
LINE
  5
D6D
  8
0
 10
5.9999998728903403
 20
0.6424999577168081
 30
0.0
 11
6.1599998728903396
 21
0.6424999577168081
 31
0.0
  0
LINE
  5
D6E
  8
0
 10
5.9999998728903403
 20
0.4924999577168081
 30
0.0
 11
5.8799998728903411
 21
0.4924999577168081
 31
0.0
  0
LINE
  5
D6F
  8
0
 10
6.1599998728903396
 20
0.4924999577168081
 30
0.0
 11
6.2799998728903388
 21
0.4924999577168081
 31
0.0
  0
LINE
  5
D70
  8
0
 10
6.2799998728903388
 20
0.4924999577168081
 30
0.0
 11
6.2799998728903388
 21
0.352499957716808
 31
0.0
  0
LINE
  5
D71
  8
0
 10
6.2799998728903388
 20
0.352499957716808
 30
0.0
 11
6.1599998728903396
 21
0.352499957716808
 31
0.0
  0
LINE
  5
D72
  8
0
 10
5.9999998728903403
 20
0.352499957716808
 30
0.0
 11
5.8799998728903411
 21
0.352499957716808
 31
0.0
  0
LINE
  5
D73
  8
0
 10
5.8799998728903411
 20
0.4924999577168081
 30
0.0
 11
5.8799998728903411
 21
0.352499957716808
 31
0.0
  0
LINE
  5
D74
  8
0
 10
6.5799998728903404
 20
0.017499957716808
 30
0.0
 11
7.030062412001743
 21
0.017499957716808
 31
0.0
  0
LINE
  5
D75
  8
0
 10
7.129937333778936
 20
0.017499957716808
 30
0.0
 11
7.5799998728903404
 21
0.017499957716808
 31
0.0
  0
ARC
  5
D76
  8
0
 10
7.0799998728903404
 20
0.079999957716808
 30
0.0
 40
0.08
 50
308.6248328730529806
 51
231.375167126946792
  0
LINE
  5
D77
  8
0
 10
7.5799998728903404
 20
0.142499957716808
 30
0.0
 11
7.5799998728903404
 21
0.017499957716808
 31
0.0
  0
LINE
  5
D78
  8
0
 10
7.5799998728903404
 20
0.142499957716808
 30
0.0
 11
7.9999998728903403
 21
0.142499957716808
 31
0.0
  0
LINE
  5
D79
  8
0
 10
8.1599998728903405
 20
0.142499957716808
 30
0.0
 11
8.5799998728903404
 21
0.142499957716808
 31
0.0
  0
LINE
  5
D7A
  8
0
 10
8.1599998728903405
 20
0.6424999577168081
 30
0.0
 11
8.1599998728903405
 21
0.4924999577168081
 31
0.0
  0
LINE
  5
D7B
  8
0
 10
8.1599998728903405
 20
0.352499957716808
 30
0.0
 11
8.1599998728903405
 21
0.142499957716808
 31
0.0
  0
LINE
  5
D7C
  8
0
 10
7.9999998728903403
 20
0.6424999577168081
 30
0.0
 11
7.9999998728903403
 21
0.4924999577168081
 31
0.0
  0
LINE
  5
D7D
  8
0
 10
7.9999998728903403
 20
0.352499957716808
 30
0.0
 11
7.9999998728903403
 21
0.142499957716808
 31
0.0
  0
LINE
  5
D7E
  8
0
 10
7.9999998728903403
 20
0.6424999577168081
 30
0.0
 11
8.1599998728903405
 21
0.6424999577168081
 31
0.0
  0
LINE
  5
D7F
  8
0
 10
7.9999998728903403
 20
0.4924999577168081
 30
0.0
 11
7.8799998728903411
 21
0.4924999577168081
 31
0.0
  0
LINE
  5
D80
  8
0
 10
8.1599998728903405
 20
0.4924999577168081
 30
0.0
 11
8.2799998728903397
 21
0.4924999577168081
 31
0.0
  0
LINE
  5
D81
  8
0
 10
8.2799998728903397
 20
0.4924999577168081
 30
0.0
 11
8.2799998728903397
 21
0.352499957716808
 31
0.0
  0
LINE
  5
D82
  8
0
 10
8.2799998728903397
 20
0.352499957716808
 30
0.0
 11
8.1599998728903405
 21
0.352499957716808
 31
0.0
  0
LINE
  5
D83
  8
0
 10
7.9999998728903403
 20
0.352499957716808
 30
0.0
 11
7.8799998728903411
 21
0.352499957716808
 31
0.0
  0
LINE
  5
D84
  8
0
 10
7.8799998728903411
 20
0.4924999577168081
 30
0.0
 11
7.8799998728903411
 21
0.352499957716808
 31
0.0
  0
LINE
  5
D85
  8
0
 10
8.5799998728903404
 20
0.142499957716808
 30
0.0
 11
8.5799998728903404
 21
0.4675624968282115
 31
0.0
  0
LINE
  5
D86
  8
0
 10
8.5799998728903404
 20
0.5674374186054046
 30
0.0
 11
8.5799998728903404
 21
1.017499957716808
 31
0.0
  0
ARC
  5
D87
  8
0
 10
8.5174998728903404
 20
0.5174999577168081
 30
0.0
 40
0.08
 50
38.6248328730529877
 51
321.3751671269469057
  0
LINE
  5
D88
  8
0
 10
8.4549998728903404
 20
1.017499957716808
 30
0.0
 11
8.5799998728903404
 21
1.017499957716808
 31
0.0
  0
LINE
  5
D89
  8
0
 10
8.4549998728903404
 20
1.017499957716808
 30
0.0
 11
8.4549998728903404
 21
1.4374999577168071
 31
0.0
  0
LINE
  5
D8A
  8
0
 10
8.4549998728903404
 20
1.5974999577168081
 30
0.0
 11
8.4549998728903404
 21
2.017499957716808
 31
0.0
  0
LINE
  5
D8B
  8
0
 10
8.5799998728903404
 20
2.017499957716808
 30
0.0
 11
8.4549998728903404
 21
2.017499957716808
 31
0.0
  0
LINE
  5
D8C
  8
0
 10
7.9549998728903404
 20
1.5974999577168081
 30
0.0
 11
8.1049998728903407
 21
1.5974999577168081
 31
0.0
  0
LINE
  5
D8D
  8
0
 10
8.2449998728903395
 20
1.5974999577168081
 30
0.0
 11
8.4549998728903404
 21
1.5974999577168081
 31
0.0
  0
LINE
  5
D8E
  8
0
 10
7.9549998728903404
 20
1.4374999577168071
 30
0.0
 11
8.1049998728903407
 21
1.4374999577168071
 31
0.0
  0
LINE
  5
D8F
  8
0
 10
8.2449998728903395
 20
1.4374999577168071
 30
0.0
 11
8.4549998728903404
 21
1.4374999577168071
 31
0.0
  0
LINE
  5
D90
  8
0
 10
7.9549998728903404
 20
1.4374999577168071
 30
0.0
 11
7.9549998728903404
 21
1.5974999577168081
 31
0.0
  0
LINE
  5
D91
  8
0
 10
8.1049998728903407
 20
1.4374999577168071
 30
0.0
 11
8.1049998728903407
 21
1.3174999577168081
 31
0.0
  0
LINE
  5
D92
  8
0
 10
8.1049998728903407
 20
1.5974999577168081
 30
0.0
 11
8.1049998728903407
 21
1.7174999577168071
 31
0.0
  0
LINE
  5
D93
  8
0
 10
8.1049998728903407
 20
1.7174999577168071
 30
0.0
 11
8.2449998728903395
 21
1.7174999577168071
 31
0.0
  0
LINE
  5
D94
  8
0
 10
8.2449998728903395
 20
1.7174999577168071
 30
0.0
 11
8.2449998728903395
 21
1.5974999577168081
 31
0.0
  0
LINE
  5
D95
  8
0
 10
8.2449998728903395
 20
1.4374999577168071
 30
0.0
 11
8.2449998728903395
 21
1.3174999577168081
 31
0.0
  0
LINE
  5
D96
  8
0
 10
8.1049998728903407
 20
1.3174999577168081
 30
0.0
 11
8.2449998728903395
 21
1.3174999577168081
 31
0.0
  0
LINE
  5
D97
  8
0
 10
8.5799998728903404
 20
2.017499957716808
 30
0.0
 11
8.5799998728903404
 21
2.467562496828211
 31
0.0
  0
LINE
  5
D98
  8
0
 10
8.5799998728903404
 20
2.5674374186054041
 30
0.0
 11
8.5799998728903404
 21
3.017499957716808
 31
0.0
  0
ARC
  5
D99
  8
0
 10
8.5174998728903404
 20
2.517499957716808
 30
0.0
 40
0.08
 50
38.6248328730529877
 51
321.3751671269469057
  0
LINE
  5
D9A
  8
0
 10
8.4549998728903404
 20
3.017499957716808
 30
0.0
 11
8.5799998728903404
 21
3.017499957716808
 31
0.0
  0
LINE
  5
D9B
  8
0
 10
8.4549998728903404
 20
3.017499957716808
 30
0.0
 11
8.4549998728903404
 21
3.4374999577168088
 31
0.0
  0
LINE
  5
D9C
  8
0
 10
8.4549998728903404
 20
3.5974999577168059
 30
0.0
 11
8.4549998728903404
 21
4.017499957716808
 31
0.0
  0
LINE
  5
D9D
  8
0
 10
8.5799998728903404
 20
4.017499957716808
 30
0.0
 11
8.4549998728903404
 21
4.017499957716808
 31
0.0
  0
LINE
  5
D9E
  8
0
 10
7.9549998728903404
 20
3.5974999577168059
 30
0.0
 11
8.1049998728903425
 21
3.5974999577168059
 31
0.0
  0
LINE
  5
D9F
  8
0
 10
8.2449998728903413
 20
3.5974999577168059
 30
0.0
 11
8.4549998728903404
 21
3.5974999577168059
 31
0.0
  0
LINE
  5
DA0
  8
0
 10
7.9549998728903404
 20
3.4374999577168088
 30
0.0
 11
8.1049998728903425
 21
3.4374999577168088
 31
0.0
  0
LINE
  5
DA1
  8
0
 10
8.2449998728903413
 20
3.4374999577168088
 30
0.0
 11
8.4549998728903404
 21
3.4374999577168088
 31
0.0
  0
LINE
  5
DA2
  8
0
 10
7.9549998728903404
 20
3.4374999577168088
 30
0.0
 11
7.9549998728903404
 21
3.5974999577168059
 31
0.0
  0
LINE
  5
DA3
  8
0
 10
8.1049998728903425
 20
3.4374999577168088
 30
0.0
 11
8.1049998728903407
 21
3.3174999577168078
 31
0.0
  0
LINE
  5
DA4
  8
0
 10
8.1049998728903425
 20
3.5974999577168059
 30
0.0
 11
8.1049998728903425
 21
3.7174999577168069
 31
0.0
  0
LINE
  5
DA5
  8
0
 10
8.1049998728903425
 20
3.7174999577168069
 30
0.0
 11
8.2449998728903413
 21
3.7174999577168069
 31
0.0
  0
LINE
  5
DA6
  8
0
 10
8.2449998728903413
 20
3.7174999577168069
 30
0.0
 11
8.2449998728903413
 21
3.5974999577168059
 31
0.0
  0
LINE
  5
DA7
  8
0
 10
8.2449998728903413
 20
3.4374999577168088
 30
0.0
 11
8.2449998728903395
 21
3.3174999577168078
 31
0.0
  0
LINE
  5
DA8
  8
0
 10
8.1049998728903407
 20
3.3174999577168078
 30
0.0
 11
8.2449998728903395
 21
3.3174999577168078
 31
0.0
  0
LINE
  5
DA9
  8
0
 10
8.5799998728903404
 20
4.017499957716808
 30
0.0
 11
8.5799998728903404
 21
4.4675624968282106
 31
0.0
  0
LINE
  5
DAA
  8
0
 10
8.5799998728903404
 20
4.5674374186054036
 30
0.0
 11
8.5799998728903404
 21
5.017499957716808
 31
0.0
  0
ARC
  5
DAB
  8
0
 10
8.5174998728903404
 20
4.517499957716808
 30
0.0
 40
0.08
 50
38.6248328730529877
 51
321.3751671269466783
  0
ENDBLK
  5
DAF
  8
0
  0
BLOCK
  8
0
  2
A$C31C35E5B
 70
     0
 10
0.0
 20
0.0
 30
0.0
  3
A$C31C35E5B
  1

  0
LINE
  5
1012
  8
0
 10
-0.0000000608957862
 20
0.0174999577168009
 30
0.0
 11
0.4500624782156173
 21
0.0174999577168009
 31
0.0
  0
LINE
  5
1013
  8
0
 10
0.5499373999928104
 20
0.0174999577168009
 30
0.0
 11
0.9999999391042138
 21
0.0174999577168009
 31
0.0
  0
ARC
  5
1014
  8
0
 10
0.4999999391042138
 20
0.0799999577168009
 30
0.0
 40
0.08
 50
308.6248328730529806
 51
231.3751671269467067
  0
ENDBLK
  5
1018
  8
0
  0
BLOCK
  8
0
  2
A$C40327070
 70
     0
 10
0.0
 20
0.0
 30
0.0
  3
A$C40327070
  1

  0
LINE
  5
1095
  8
0
 10
-0.0000000608801258
 20
0.1249999840047096
 30
0.0
 11
-0.0000000608801258
 21
-0.0000000159952904
 31
0.0
  0
LINE
  5
1096
  8
0
 10
-0.0000000608801258
 20
0.1249999840047096
 30
0.0
 11
0.4199999391198759
 21
0.1249999840047096
 31
0.0
  0
LINE
  5
1097
  8
0
 10
0.5799999391198725
 20
0.1249999840047096
 30
0.0
 11
0.9999999391198741
 21
0.1249999840047096
 31
0.0
  0
LINE
  5
1098
  8
0
 10
0.9999999391198741
 20
-0.0000000159952904
 30
0.0
 11
0.9999999391198741
 21
0.1249999840047096
 31
0.0
  0
LINE
  5
1099
  8
0
 10
0.5799999391198725
 20
0.6249999840047096
 30
0.0
 11
0.5799999391198725
 21
0.4749999840047093
 31
0.0
  0
LINE
  5
109A
  8
0
 10
0.5799999391198725
 20
0.3349999840047095
 30
0.0
 11
0.5799999391198725
 21
0.1249999840047096
 31
0.0
  0
LINE
  5
109B
  8
0
 10
0.4199999391198759
 20
0.6249999840047096
 30
0.0
 11
0.4199999391198759
 21
0.4749999840047093
 31
0.0
  0
LINE
  5
109C
  8
0
 10
0.4199999391198759
 20
0.3349999840047095
 30
0.0
 11
0.4199999391198759
 21
0.1249999840047096
 31
0.0
  0
LINE
  5
109D
  8
0
 10
0.4199999391198759
 20
0.6249999840047096
 30
0.0
 11
0.5799999391198725
 21
0.6249999840047096
 31
0.0
  0
LINE
  5
109E
  8
0
 10
0.4199999391198759
 20
0.4749999840047093
 30
0.0
 11
0.2999999391198749
 21
0.4749999840047093
 31
0.0
  0
LINE
  5
109F
  8
0
 10
0.5799999391198725
 20
0.4749999840047093
 30
0.0
 11
0.6999999391198735
 21
0.4749999840047093
 31
0.0
  0
LINE
  5
10A0
  8
0
 10
0.6999999391198735
 20
0.4749999840047093
 30
0.0
 11
0.6999999391198735
 21
0.3349999840047095
 31
0.0
  0
LINE
  5
10A1
  8
0
 10
0.6999999391198735
 20
0.3349999840047095
 30
0.0
 11
0.5799999391198725
 21
0.3349999840047095
 31
0.0
  0
LINE
  5
10A2
  8
0
 10
0.4199999391198759
 20
0.3349999840047095
 30
0.0
 11
0.2999999391198749
 21
0.3349999840047095
 31
0.0
  0
LINE
  5
10A3
  8
0
 10
0.2999999391198749
 20
0.4749999840047093
 30
0.0
 11
0.2999999391198749
 21
0.3349999840047095
 31
0.0
  0
ENDBLK
  5
10A7
  8
0
  0
BLOCK
  8
0
  2
A$C6D143FDA
 70
     0
 10
0.0
 20
0.0
 30
0.0
  3
A$C6D143FDA
  1

  0
LINE
  5
1114
  8
0
 10
1.243414486453819
 20
6.0174999999554402
 30
0.0
 11
1.468476376426558
 21
6.017499999955457
 31
0.0
  0
LINE
  5
1115
  8
0
 10
1.000000176958852
 20
6.0174999999554197
 30
0.0
 11
1.243414486453819
 21
6.0174999999554402
 31
0.0
  0
LINE
  5
1116
  8
0
 10
0.0000002101652861
 20
5.8925000163445196
 30
0.0
 11
0.0000001769588529
 21
5.0174999999559651
 31
0.0
  0
LINE
  5
1117
  8
0
 10
0.0000001769588529
 20
5.0174999999559651
 30
0.0
 11
0.000000209335127
 21
0.1424999835674114
 31
0.0
  0
LINE
  5
1118
  8
0
 10
10.9849461018535504
 20
1.7634374587428781
 30
0.0
 11
16.7849461018535493
 21
1.7634374587428781
 31
0.0
  0
LINE
  5
1119
  8
0
 10
16.7849461018535493
 20
4.7634374587428781
 30
0.0
 11
10.9849461018535504
 21
4.7634374587428781
 31
0.0
  0
LINE
  5
111A
  8
0
 10
10.9849461018535504
 20
4.7634374587428781
 30
0.0
 11
10.9849461018535504
 21
4.5134374587428781
 31
0.0
  0
LINE
  5
111B
  8
0
 10
10.9849461018535504
 20
3.5134374587428781
 30
0.0
 11
10.9849461018535504
 21
3.0134374587428781
 31
0.0
  0
LINE
  5
111C
  8
0
 10
10.9849461018535504
 20
2.0134374587428781
 30
0.0
 11
10.9849461018535504
 21
1.7634374587428781
 31
0.0
  0
LINE
  5
111D
  8
0
 10
10.9849461018535504
 20
4.7634374587428781
 30
0.0
 11
10.9849461018535504
 21
4.5134374587428781
 31
0.0
  0
CIRCLE
  5
111E
  8
0
 10
12.4599461018535393
 20
3.7634374587428781
 30
0.0
 40
0.08
  0
CIRCLE
  5
111F
  8
0
 10
12.4599461018535393
 20
2.7634374587428781
 30
0.0
 40
0.089
  0
CIRCLE
  5
1120
  8
0
 10
15.3099461018535496
 20
2.7634374587428781
 30
0.0
 40
0.08
  0
CIRCLE
  5
1121
  8
0
 10
15.3099461018535496
 20
3.7634374587428781
 30
0.0
 40
0.08
  0
LINE
  5
1122
  8
0
 10
7.000000209335127
 20
0.0174999835674115
 30
0.0
 11
7.4500627484465296
 21
0.0174999835674115
 31
0.0
  0
ARC
  5
1123
  8
0
 10
7.500000209335127
 20
0.0799999835674115
 30
0.0
 40
0.08
 50
308.6248328730529806
 51
231.3751671269469057
  0
LINE
  5
1124
  8
0
 10
0.000000209335127
 20
0.1424999835674114
 30
0.0
 11
0.4200002093351288
 21
0.1424999835674114
 31
0.0
  0
LINE
  5
1125
  8
0
 10
0.5800002093351253
 20
0.1424999835674114
 30
0.0
 11
1.000000209335127
 21
0.1424999835674114
 31
0.0
  0
LINE
  5
1126
  8
0
 10
1.000000209335127
 20
0.0174999835674115
 30
0.0
 11
1.000000209335127
 21
0.1424999835674114
 31
0.0
  0
LINE
  5
1127
  8
0
 10
0.5800002093351253
 20
0.6424999835674114
 30
0.0
 11
0.5800002093351253
 21
0.4924999835674111
 31
0.0
  0
LINE
  5
1128
  8
0
 10
0.5800002093351253
 20
0.3524999835674123
 30
0.0
 11
0.5800002093351253
 21
0.1424999835674114
 31
0.0
  0
LINE
  5
1129
  8
0
 10
0.4200002093351288
 20
0.6424999835674114
 30
0.0
 11
0.4200002093351288
 21
0.4924999835674111
 31
0.0
  0
LINE
  5
112A
  8
0
 10
0.4200002093351288
 20
0.3524999835674123
 30
0.0
 11
0.4200002093351288
 21
0.1424999835674114
 31
0.0
  0
LINE
  5
112B
  8
0
 10
0.4200002093351288
 20
0.6424999835674114
 30
0.0
 11
0.5800002093351253
 21
0.6424999835674114
 31
0.0
  0
LINE
  5
112C
  8
0
 10
0.4200002093351288
 20
0.4924999835674111
 30
0.0
 11
0.3000002093351277
 21
0.4924999835674111
 31
0.0
  0
LINE
  5
112D
  8
0
 10
0.5800002093351253
 20
0.4924999835674111
 30
0.0
 11
0.7000002093351263
 21
0.4924999835674111
 31
0.0
  0
LINE
  5
112E
  8
0
 10
0.7000002093351263
 20
0.4924999835674111
 30
0.0
 11
0.7000002093351263
 21
0.3524999835674123
 31
0.0
  0
LINE
  5
112F
  8
0
 10
0.7000002093351263
 20
0.3524999835674123
 30
0.0
 11
0.5800002093351253
 21
0.3524999835674123
 31
0.0
  0
LINE
  5
1130
  8
0
 10
0.4200002093351288
 20
0.3524999835674123
 30
0.0
 11
0.3000002093351277
 21
0.3524999835674123
 31
0.0
  0
LINE
  5
1131
  8
0
 10
0.3000002093351277
 20
0.4924999835674111
 30
0.0
 11
0.3000002093351277
 21
0.3524999835674123
 31
0.0
  0
LINE
  5
1132
  8
0
 10
1.000000209335127
 20
0.0174999835674115
 30
0.0
 11
1.45006274844653
 21
0.0174999835674115
 31
0.0
  0
LINE
  5
1133
  8
0
 10
1.5499376702237231
 20
0.0174999835674115
 30
0.0
 11
2.000000209335127
 21
0.0174999835674115
 31
0.0
  0
ARC
  5
1134
  8
0
 10
1.500000209335127
 20
0.0799999835674115
 30
0.0
 40
0.08
 50
308.6248328730529806
 51
231.3751671269469057
  0
LINE
  5
1135
  8
0
 10
2.000000209335127
 20
0.1424999835674114
 30
0.0
 11
2.000000209335127
 21
0.0174999835674115
 31
0.0
  0
LINE
  5
1136
  8
0
 10
2.000000209335127
 20
0.1424999835674114
 30
0.0
 11
2.4200002093351278
 21
0.1424999835674114
 31
0.0
  0
LINE
  5
1137
  8
0
 10
2.5800002093351249
 20
0.1424999835674114
 30
0.0
 11
3.000000209335127
 21
0.1424999835674114
 31
0.0
  0
LINE
  5
1138
  8
0
 10
3.000000209335127
 20
0.0174999835674115
 30
0.0
 11
3.000000209335127
 21
0.1424999835674114
 31
0.0
  0
LINE
  5
1139
  8
0
 10
2.5800002093351249
 20
0.6424999835674114
 30
0.0
 11
2.5800002093351249
 21
0.4924999835674111
 31
0.0
  0
LINE
  5
113A
  8
0
 10
2.5800002093351249
 20
0.3524999835674123
 30
0.0
 11
2.5800002093351249
 21
0.1424999835674114
 31
0.0
  0
LINE
  5
113B
  8
0
 10
2.4200002093351278
 20
0.6424999835674114
 30
0.0
 11
2.4200002093351278
 21
0.4924999835674111
 31
0.0
  0
LINE
  5
113C
  8
0
 10
2.4200002093351278
 20
0.3524999835674123
 30
0.0
 11
2.4200002093351278
 21
0.1424999835674114
 31
0.0
  0
LINE
  5
113D
  8
0
 10
2.4200002093351278
 20
0.6424999835674114
 30
0.0
 11
2.5800002093351249
 21
0.6424999835674114
 31
0.0
  0
LINE
  5
113E
  8
0
 10
2.4200002093351278
 20
0.4924999835674111
 30
0.0
 11
2.3000002093351268
 21
0.4924999835674111
 31
0.0
  0
LINE
  5
113F
  8
0
 10
2.5800002093351249
 20
0.4924999835674111
 30
0.0
 11
2.7000002093351259
 21
0.4924999835674111
 31
0.0
  0
LINE
  5
1140
  8
0
 10
2.7000002093351259
 20
0.4924999835674111
 30
0.0
 11
2.7000002093351259
 21
0.3524999835674123
 31
0.0
  0
LINE
  5
1141
  8
0
 10
2.7000002093351259
 20
0.3524999835674123
 30
0.0
 11
2.5800002093351249
 21
0.3524999835674123
 31
0.0
  0
LINE
  5
1142
  8
0
 10
2.4200002093351278
 20
0.3524999835674123
 30
0.0
 11
2.3000002093351268
 21
0.3524999835674123
 31
0.0
  0
LINE
  5
1143
  8
0
 10
2.3000002093351268
 20
0.4924999835674111
 30
0.0
 11
2.3000002093351268
 21
0.3524999835674123
 31
0.0
  0
LINE
  5
1144
  8
0
 10
3.000000209335127
 20
0.0174999835674115
 30
0.0
 11
3.45006274844653
 21
0.0174999835674115
 31
0.0
  0
LINE
  5
1145
  8
0
 10
3.5499376702237231
 20
0.0174999835674115
 30
0.0
 11
4.000000209335127
 21
0.0174999835674115
 31
0.0
  0
ARC
  5
1146
  8
0
 10
3.500000209335127
 20
0.0799999835674115
 30
0.0
 40
0.08
 50
308.6248328730529806
 51
231.3751671269469057
  0
LINE
  5
1147
  8
0
 10
4.000000209335127
 20
0.1424999835674114
 30
0.0
 11
4.000000209335127
 21
0.0174999835674115
 31
0.0
  0
LINE
  5
1148
  8
0
 10
4.000000209335127
 20
0.1424999835674114
 30
0.0
 11
4.4200002093351278
 21
0.1424999835674114
 31
0.0
  0
LINE
  5
1149
  8
0
 10
4.5800002093351253
 20
0.1424999835674114
 30
0.0
 11
5.000000209335127
 21
0.1424999835674114
 31
0.0
  0
LINE
  5
114A
  8
0
 10
5.000000209335127
 20
0.0174999835674115
 30
0.0
 11
5.000000209335127
 21
0.1424999835674114
 31
0.0
  0
LINE
  5
114B
  8
0
 10
4.5800002093351253
 20
0.6424999835674114
 30
0.0
 11
4.5800002093351253
 21
0.4924999835674111
 31
0.0
  0
LINE
  5
114C
  8
0
 10
4.5800002093351253
 20
0.3524999835674123
 30
0.0
 11
4.5800002093351253
 21
0.1424999835674114
 31
0.0
  0
LINE
  5
114D
  8
0
 10
4.4200002093351278
 20
0.6424999835674114
 30
0.0
 11
4.4200002093351278
 21
0.4924999835674111
 31
0.0
  0
LINE
  5
114E
  8
0
 10
4.4200002093351278
 20
0.3524999835674123
 30
0.0
 11
4.4200002093351278
 21
0.1424999835674114
 31
0.0
  0
LINE
  5
114F
  8
0
 10
4.4200002093351278
 20
0.6424999835674114
 30
0.0
 11
4.5800002093351253
 21
0.6424999835674114
 31
0.0
  0
LINE
  5
1150
  8
0
 10
4.4200002093351278
 20
0.4924999835674111
 30
0.0
 11
4.3000002093351268
 21
0.4924999835674111
 31
0.0
  0
LINE
  5
1151
  8
0
 10
4.5800002093351253
 20
0.4924999835674111
 30
0.0
 11
4.7000002093351263
 21
0.4924999835674111
 31
0.0
  0
LINE
  5
1152
  8
0
 10
4.7000002093351263
 20
0.4924999835674111
 30
0.0
 11
4.7000002093351263
 21
0.3524999835674123
 31
0.0
  0
LINE
  5
1153
  8
0
 10
4.7000002093351263
 20
0.3524999835674123
 30
0.0
 11
4.5800002093351253
 21
0.3524999835674123
 31
0.0
  0
LINE
  5
1154
  8
0
 10
4.4200002093351278
 20
0.3524999835674123
 30
0.0
 11
4.3000002093351268
 21
0.3524999835674123
 31
0.0
  0
LINE
  5
1155
  8
0
 10
4.3000002093351268
 20
0.4924999835674111
 30
0.0
 11
4.3000002093351268
 21
0.3524999835674123
 31
0.0
  0
LINE
  5
1156
  8
0
 10
5.000000209335127
 20
0.0174999835674115
 30
0.0
 11
5.4500627484465296
 21
0.0174999835674115
 31
0.0
  0
LINE
  5
1157
  8
0
 10
5.5499376702237226
 20
0.0174999835674115
 30
0.0
 11
6.000000209335127
 21
0.0174999835674115
 31
0.0
  0
ARC
  5
1158
  8
0
 10
5.500000209335127
 20
0.0799999835674115
 30
0.0
 40
0.08
 50
308.6248328730529806
 51
231.3751671269469057
  0
LINE
  5
1159
  8
0
 10
6.000000209335127
 20
0.1424999835674114
 30
0.0
 11
6.000000209335127
 21
0.0174999835674115
 31
0.0
  0
LINE
  5
115A
  8
0
 10
6.000000209335127
 20
0.1424999835674114
 30
0.0
 11
6.4200002093351278
 21
0.1424999835674114
 31
0.0
  0
LINE
  5
115B
  8
0
 10
6.5800002093351253
 20
0.1424999835674114
 30
0.0
 11
7.000000209335127
 21
0.1424999835674114
 31
0.0
  0
LINE
  5
115C
  8
0
 10
7.000000209335127
 20
0.0174999835674115
 30
0.0
 11
7.000000209335127
 21
0.1424999835674114
 31
0.0
  0
LINE
  5
115D
  8
0
 10
6.5800002093351253
 20
0.6424999835674114
 30
0.0
 11
6.5800002093351253
 21
0.4924999835674111
 31
0.0
  0
LINE
  5
115E
  8
0
 10
6.5800002093351253
 20
0.3524999835674123
 30
0.0
 11
6.5800002093351253
 21
0.1424999835674114
 31
0.0
  0
LINE
  5
115F
  8
0
 10
6.4200002093351278
 20
0.6424999835674114
 30
0.0
 11
6.4200002093351278
 21
0.4924999835674111
 31
0.0
  0
LINE
  5
1160
  8
0
 10
6.4200002093351278
 20
0.3524999835674123
 30
0.0
 11
6.4200002093351278
 21
0.1424999835674114
 31
0.0
  0
LINE
  5
1161
  8
0
 10
6.4200002093351278
 20
0.6424999835674114
 30
0.0
 11
6.5800002093351253
 21
0.6424999835674114
 31
0.0
  0
LINE
  5
1162
  8
0
 10
6.4200002093351278
 20
0.4924999835674111
 30
0.0
 11
6.3000002093351268
 21
0.4924999835674111
 31
0.0
  0
LINE
  5
1163
  8
0
 10
6.5800002093351253
 20
0.4924999835674111
 30
0.0
 11
6.7000002093351263
 21
0.4924999835674111
 31
0.0
  0
LINE
  5
1164
  8
0
 10
6.7000002093351263
 20
0.4924999835674111
 30
0.0
 11
6.7000002093351263
 21
0.3524999835674123
 31
0.0
  0
LINE
  5
1165
  8
0
 10
6.7000002093351263
 20
0.3524999835674123
 30
0.0
 11
6.5800002093351253
 21
0.3524999835674123
 31
0.0
  0
LINE
  5
1166
  8
0
 10
6.4200002093351278
 20
0.3524999835674123
 30
0.0
 11
6.3000002093351268
 21
0.3524999835674123
 31
0.0
  0
LINE
  5
1167
  8
0
 10
6.3000002093351268
 20
0.4924999835674111
 30
0.0
 11
6.3000002093351268
 21
0.3524999835674123
 31
0.0
  0
LINE
  5
1168
  8
0
 10
7.5499376702237191
 20
0.0174999835674115
 30
0.0
 11
7.8750001839782291
 21
0.0174999835674115
 31
0.0
  0
LINE
  5
1169
  8
0
 10
11.1099461018535504
 20
4.5134374587428781
 30
0.0
 11
10.9849461018535504
 21
4.5134374587428781
 31
0.0
  0
LINE
  5
116A
  8
0
 10
11.1099461018535504
 20
4.5134374587428781
 30
0.0
 11
11.1099461018535504
 21
4.0934374587428763
 31
0.0
  0
LINE
  5
116B
  8
0
 10
11.1099461018535504
 20
3.9334374587428789
 30
0.0
 11
11.1099461018535504
 21
3.5134374587428781
 31
0.0
  0
LINE
  5
116C
  8
0
 10
10.9849461018535504
 20
3.5134374587428781
 30
0.0
 11
11.1099461018535504
 21
3.5134374587428781
 31
0.0
  0
LINE
  5
116D
  8
0
 10
11.6099461018535504
 20
3.9334374587428789
 30
0.0
 11
11.45994610185355
 21
3.9334374587428789
 31
0.0
  0
LINE
  5
116E
  8
0
 10
11.3199461018535494
 20
3.9334374587428789
 30
0.0
 11
11.1099461018535504
 21
3.9334374587428789
 31
0.0
  0
LINE
  5
116F
  8
0
 10
11.6099461018535504
 20
4.0934374587428763
 30
0.0
 11
11.45994610185355
 21
4.0934374587428763
 31
0.0
  0
LINE
  5
1170
  8
0
 10
11.3199461018535494
 20
4.0934374587428763
 30
0.0
 11
11.1099461018535504
 21
4.0934374587428763
 31
0.0
  0
LINE
  5
1171
  8
0
 10
11.6099461018535504
 20
4.0934374587428763
 30
0.0
 11
11.6099461018535504
 21
3.9334374587428789
 31
0.0
  0
LINE
  5
1172
  8
0
 10
11.45994610185355
 20
4.0934374587428763
 30
0.0
 11
11.45994610185355
 21
4.2134374587428773
 31
0.0
  0
LINE
  5
1173
  8
0
 10
11.45994610185355
 20
3.9334374587428789
 30
0.0
 11
11.45994610185355
 21
3.8134374587428779
 31
0.0
  0
LINE
  5
1174
  8
0
 10
11.45994610185355
 20
3.8134374587428779
 30
0.0
 11
11.3199461018535494
 21
3.8134374587428779
 31
0.0
  0
LINE
  5
1175
  8
0
 10
11.3199461018535494
 20
3.8134374587428779
 30
0.0
 11
11.3199461018535494
 21
3.9334374587428789
 31
0.0
  0
LINE
  5
1176
  8
0
 10
11.3199461018535494
 20
4.0934374587428763
 30
0.0
 11
11.3199461018535494
 21
4.2134374587428773
 31
0.0
  0
LINE
  5
1177
  8
0
 10
11.45994610185355
 20
4.2134374587428773
 30
0.0
 11
11.3199461018535494
 21
4.2134374587428773
 31
0.0
  0
LINE
  5
1178
  8
0
 10
11.1099461018535504
 20
3.0134374587428781
 30
0.0
 11
10.9849461018535504
 21
3.0134374587428781
 31
0.0
  0
LINE
  5
1179
  8
0
 10
11.1099461018535504
 20
3.0134374587428781
 30
0.0
 11
11.1099461018535504
 21
2.5934374587428759
 31
0.0
  0
LINE
  5
117A
  8
0
 10
11.1099461018535504
 20
2.4334374587428789
 30
0.0
 11
11.1099461018535504
 21
2.0134374587428781
 31
0.0
  0
LINE
  5
117B
  8
0
 10
10.9849461018535504
 20
2.0134374587428781
 30
0.0
 11
11.1099461018535504
 21
2.0134374587428781
 31
0.0
  0
LINE
  5
117C
  8
0
 10
11.6099461018535504
 20
2.4334374587428789
 30
0.0
 11
11.45994610185355
 21
2.4334374587428789
 31
0.0
  0
LINE
  5
117D
  8
0
 10
11.3199461018535494
 20
2.4334374587428789
 30
0.0
 11
11.1099461018535504
 21
2.4334374587428789
 31
0.0
  0
LINE
  5
117E
  8
0
 10
11.6099461018535504
 20
2.5934374587428759
 30
0.0
 11
11.45994610185355
 21
2.5934374587428759
 31
0.0
  0
LINE
  5
117F
  8
0
 10
11.3199461018535494
 20
2.5934374587428759
 30
0.0
 11
11.1099461018535504
 21
2.5934374587428759
 31
0.0
  0
LINE
  5
1180
  8
0
 10
11.6099461018535504
 20
2.5934374587428759
 30
0.0
 11
11.6099461018535504
 21
2.4334374587428789
 31
0.0
  0
LINE
  5
1181
  8
0
 10
11.45994610185355
 20
2.5934374587428759
 30
0.0
 11
11.45994610185355
 21
2.7134374587428769
 31
0.0
  0
LINE
  5
1182
  8
0
 10
11.45994610185355
 20
2.4334374587428789
 30
0.0
 11
11.45994610185355
 21
2.3134374587428779
 31
0.0
  0
LINE
  5
1183
  8
0
 10
11.45994610185355
 20
2.3134374587428779
 30
0.0
 11
11.3199461018535494
 21
2.3134374587428779
 31
0.0
  0
LINE
  5
1184
  8
0
 10
11.3199461018535494
 20
2.3134374587428779
 30
0.0
 11
11.3199461018535494
 21
2.4334374587428789
 31
0.0
  0
LINE
  5
1185
  8
0
 10
11.3199461018535494
 20
2.5934374587428759
 30
0.0
 11
11.3199461018535494
 21
2.7134374587428769
 31
0.0
  0
LINE
  5
1186
  8
0
 10
11.45994610185355
 20
2.7134374587428769
 30
0.0
 11
11.3199461018535494
 21
2.7134374587428769
 31
0.0
  0
LINE
  5
1187
  8
0
 10
16.7849461018535493
 20
1.7634374587428781
 30
0.0
 11
16.7849461018535493
 21
2.0134374587428781
 31
0.0
  0
LINE
  5
1188
  8
0
 10
16.7849461018535493
 20
3.0134374587428781
 30
0.0
 11
16.7849461018535493
 21
3.5134374587428781
 31
0.0
  0
LINE
  5
1189
  8
0
 10
16.7849461018535493
 20
4.5134374587428781
 30
0.0
 11
16.7849461018535493
 21
4.7634374587428781
 31
0.0
  0
LINE
  5
118A
  8
0
 10
16.7849461018535493
 20
1.7634374587428781
 30
0.0
 11
16.7849461018535493
 21
2.0134374587428781
 31
0.0
  0
LINE
  5
118B
  8
0
 10
16.6599461018535493
 20
2.0134374587428781
 30
0.0
 11
16.7849461018535493
 21
2.0134374587428781
 31
0.0
  0
LINE
  5
118C
  8
0
 10
16.6599461018535493
 20
2.0134374587428781
 30
0.0
 11
16.6599461018535493
 21
2.4334374587428789
 31
0.0
  0
LINE
  5
118D
  8
0
 10
16.6599461018535493
 20
2.5934374587428759
 30
0.0
 11
16.6599461018535493
 21
3.0134374587428781
 31
0.0
  0
LINE
  5
118E
  8
0
 10
16.7849461018535493
 20
3.0134374587428781
 30
0.0
 11
16.6599461018535493
 21
3.0134374587428781
 31
0.0
  0
LINE
  5
118F
  8
0
 10
16.1599461018535493
 20
2.5934374587428759
 30
0.0
 11
16.3099461018535514
 21
2.5934374587428759
 31
0.0
  0
LINE
  5
1190
  8
0
 10
16.4499461018535484
 20
2.5934374587428759
 30
0.0
 11
16.6599461018535493
 21
2.5934374587428759
 31
0.0
  0
LINE
  5
1191
  8
0
 10
16.1599461018535493
 20
2.4334374587428789
 30
0.0
 11
16.3099461018535514
 21
2.4334374587428789
 31
0.0
  0
LINE
  5
1192
  8
0
 10
16.4499461018535484
 20
2.4334374587428789
 30
0.0
 11
16.6599461018535493
 21
2.4334374587428789
 31
0.0
  0
LINE
  5
1193
  8
0
 10
16.1599461018535493
 20
2.4334374587428789
 30
0.0
 11
16.1599461018535493
 21
2.5934374587428759
 31
0.0
  0
LINE
  5
1194
  8
0
 10
16.3099461018535514
 20
2.4334374587428789
 30
0.0
 11
16.3099461018535514
 21
2.3134374587428779
 31
0.0
  0
LINE
  5
1195
  8
0
 10
16.3099461018535514
 20
2.5934374587428759
 30
0.0
 11
16.3099461018535514
 21
2.7134374587428769
 31
0.0
  0
LINE
  5
1196
  8
0
 10
16.3099461018535514
 20
2.7134374587428769
 30
0.0
 11
16.4499461018535484
 21
2.7134374587428769
 31
0.0
  0
LINE
  5
1197
  8
0
 10
16.4499461018535484
 20
2.7134374587428769
 30
0.0
 11
16.4499461018535484
 21
2.5934374587428759
 31
0.0
  0
LINE
  5
1198
  8
0
 10
16.4499461018535484
 20
2.4334374587428789
 30
0.0
 11
16.4499461018535484
 21
2.3134374587428779
 31
0.0
  0
LINE
  5
1199
  8
0
 10
16.3099461018535514
 20
2.3134374587428779
 30
0.0
 11
16.4499461018535484
 21
2.3134374587428779
 31
0.0
  0
LINE
  5
119A
  8
0
 10
16.6599461018535493
 20
3.5134374587428781
 30
0.0
 11
16.7849461018535493
 21
3.5134374587428781
 31
0.0
  0
LINE
  5
119B
  8
0
 10
16.6599461018535493
 20
3.5134374587428781
 30
0.0
 11
16.6599461018535493
 21
3.9334374587428789
 31
0.0
  0
LINE
  5
119C
  8
0
 10
16.6599461018535493
 20
4.0934374587428763
 30
0.0
 11
16.6599461018535493
 21
4.5134374587428781
 31
0.0
  0
LINE
  5
119D
  8
0
 10
16.7849461018535493
 20
4.5134374587428781
 30
0.0
 11
16.6599461018535493
 21
4.5134374587428781
 31
0.0
  0
LINE
  5
119E
  8
0
 10
16.1599461018535493
 20
4.0934374587428763
 30
0.0
 11
16.3099461018535514
 21
4.0934374587428763
 31
0.0
  0
LINE
  5
119F
  8
0
 10
16.4499461018535484
 20
4.0934374587428763
 30
0.0
 11
16.6599461018535493
 21
4.0934374587428763
 31
0.0
  0
LINE
  5
11A0
  8
0
 10
16.1599461018535493
 20
3.9334374587428789
 30
0.0
 11
16.3099461018535514
 21
3.9334374587428789
 31
0.0
  0
LINE
  5
11A1
  8
0
 10
16.4499461018535484
 20
3.9334374587428789
 30
0.0
 11
16.6599461018535493
 21
3.9334374587428789
 31
0.0
  0
LINE
  5
11A2
  8
0
 10
16.1599461018535493
 20
3.9334374587428789
 30
0.0
 11
16.1599461018535493
 21
4.0934374587428763
 31
0.0
  0
LINE
  5
11A3
  8
0
 10
16.3099461018535514
 20
3.9334374587428789
 30
0.0
 11
16.3099461018535514
 21
3.8134374587428779
 31
0.0
  0
LINE
  5
11A4
  8
0
 10
16.3099461018535514
 20
4.0934374587428763
 30
0.0
 11
16.3099461018535514
 21
4.2134374587428773
 31
0.0
  0
LINE
  5
11A5
  8
0
 10
16.3099461018535514
 20
4.2134374587428773
 30
0.0
 11
16.4499461018535484
 21
4.2134374587428773
 31
0.0
  0
LINE
  5
11A6
  8
0
 10
16.4499461018535484
 20
4.2134374587428773
 30
0.0
 11
16.4499461018535484
 21
4.0934374587428763
 31
0.0
  0
LINE
  5
11A7
  8
0
 10
16.4499461018535484
 20
3.9334374587428789
 30
0.0
 11
16.4499461018535484
 21
3.8134374587428779
 31
0.0
  0
LINE
  5
11A8
  8
0
 10
16.3099461018535514
 20
3.8134374587428779
 30
0.0
 11
16.4499461018535484
 21
3.8134374587428779
 31
0.0
  0
LINE
  5
11A9
  8
0
 10
7.000000176958852
 20
6.017499999955894
 30
0.0
 11
7.4500627160702564
 21
6.0174999999559304
 31
0.0
  0
ARC
  5
11AA
  8
0
 10
7.5000001769588556
 20
5.9549999999559331
 30
0.0
 40
0.08
 50
128.6248328730574997
 51
51.3751671269516308
  0
LINE
  5
11AB
  8
0
 10
0.0000001769588636
 20
5.8924999999553416
 30
0.0
 11
0.4200001769588653
 21
5.8924999999553744
 31
0.0
  0
LINE
  5
11AC
  8
0
 10
0.5800001769588619
 20
5.892499999955386
 30
0.0
 11
1.0000001769588629
 21
5.8924999999554197
 31
0.0
  0
LINE
  5
11AD
  8
0
 10
1.000000176958852
 20
6.0174999999554197
 30
0.0
 11
1.0000001769588629
 21
5.8924999999554197
 31
0.0
  0
LINE
  5
11AE
  8
0
 10
0.5800001769588974
 20
5.392499999955386
 30
0.0
 11
0.5800001769588903
 21
5.5424999999553872
 31
0.0
  0
LINE
  5
11AF
  8
0
 10
0.5800001769588761
 20
5.682499999955386
 30
0.0
 11
0.5800001769588619
 21
5.892499999955386
 31
0.0
  0
LINE
  5
11B0
  8
0
 10
0.4200001769589008
 20
5.3924999999553744
 30
0.0
 11
0.4200001769588937
 21
5.5424999999553739
 31
0.0
  0
LINE
  5
11B1
  8
0
 10
0.4200001769588795
 20
5.6824999999553727
 30
0.0
 11
0.4200001769588653
 21
5.8924999999553744
 31
0.0
  0
LINE
  5
11B2
  8
0
 10
0.4200001769589008
 20
5.3924999999553744
 30
0.0
 11
0.5800001769588974
 21
5.392499999955386
 31
0.0
  0
LINE
  5
11B3
  8
0
 10
0.4200001769588937
 20
5.5424999999553739
 30
0.0
 11
0.3000001769588891
 21
5.542499999955365
 31
0.0
  0
LINE
  5
11B4
  8
0
 10
0.5800001769588903
 20
5.5424999999553872
 30
0.0
 11
0.7000001769588878
 21
5.542499999955397
 31
0.0
  0
LINE
  5
11B5
  8
0
 10
0.7000001769588878
 20
5.542499999955397
 30
0.0
 11
0.7000001769588771
 21
5.6824999999553958
 31
0.0
  0
LINE
  5
11B6
  8
0
 10
0.7000001769588771
 20
5.6824999999553958
 30
0.0
 11
0.5800001769588761
 21
5.682499999955386
 31
0.0
  0
LINE
  5
11B7
  8
0
 10
0.4200001769588795
 20
5.6824999999553727
 30
0.0
 11
0.3000001769588785
 21
5.6824999999553638
 31
0.0
  0
LINE
  5
11B8
  8
0
 10
0.3000001769588891
 20
5.542499999955365
 30
0.0
 11
0.3000001769588785
 21
5.6824999999553638
 31
0.0
  0
LINE
  5
11B9
  8
0
 10
1.000000176958852
 20
6.0174999999554197
 30
0.0
 11
1.4500627160702559
 21
6.0174999999554561
 31
0.0
  0
LINE
  5
11BA
  8
0
 10
1.549937637847449
 20
6.0174999999554633
 30
0.0
 11
2.000000176958852
 21
6.0174999999554979
 31
0.0
  0
ARC
  5
11BB
  8
0
 10
1.500000176958856
 20
5.9549999999554588
 30
0.0
 40
0.08
 50
128.6248328730574997
 51
51.3751671269516308
  0
LINE
  5
11BC
  8
0
 10
2.0000001769588631
 20
5.8924999999554979
 30
0.0
 11
2.000000176958852
 21
6.0174999999554979
 31
0.0
  0
LINE
  5
11BD
  8
0
 10
2.0000001769588631
 20
5.8924999999554979
 30
0.0
 11
2.4200001769588648
 21
5.8924999999555316
 31
0.0
  0
LINE
  5
11BE
  8
0
 10
2.580000176958861
 20
5.8924999999555441
 30
0.0
 11
3.0000001769588631
 21
5.8924999999555778
 31
0.0
  0
LINE
  5
11BF
  8
0
 10
3.000000176958852
 20
6.0174999999555778
 30
0.0
 11
3.0000001769588631
 21
5.8924999999555778
 31
0.0
  0
LINE
  5
11C0
  8
0
 10
2.5800001769588969
 20
5.3924999999555441
 30
0.0
 11
2.5800001769588898
 21
5.5424999999555453
 31
0.0
  0
LINE
  5
11C1
  8
0
 10
2.5800001769588761
 20
5.6824999999555441
 30
0.0
 11
2.580000176958861
 21
5.8924999999555441
 31
0.0
  0
LINE
  5
11C2
  8
0
 10
2.4200001769588999
 20
5.3924999999555316
 30
0.0
 11
2.4200001769588928
 21
5.542499999955532
 31
0.0
  0
LINE
  5
11C3
  8
0
 10
2.420000176958879
 20
5.6824999999555308
 30
0.0
 11
2.4200001769588648
 21
5.8924999999555316
 31
0.0
  0
LINE
  5
11C4
  8
0
 10
2.4200001769588999
 20
5.3924999999555316
 30
0.0
 11
2.5800001769588969
 21
5.3924999999555441
 31
0.0
  0
LINE
  5
11C5
  8
0
 10
2.4200001769588928
 20
5.542499999955532
 30
0.0
 11
2.3000001769588891
 21
5.542499999955524
 31
0.0
  0
LINE
  5
11C6
  8
0
 10
2.5800001769588898
 20
5.5424999999555453
 30
0.0
 11
2.7000001769588868
 21
5.5424999999555551
 31
0.0
  0
LINE
  5
11C7
  8
0
 10
2.7000001769588868
 20
5.5424999999555551
 30
0.0
 11
2.7000001769588771
 21
5.6824999999555539
 31
0.0
  0
LINE
  5
11C8
  8
0
 10
2.7000001769588771
 20
5.6824999999555539
 30
0.0
 11
2.5800001769588761
 21
5.6824999999555441
 31
0.0
  0
LINE
  5
11C9
  8
0
 10
2.420000176958879
 20
5.6824999999555308
 30
0.0
 11
2.300000176958878
 21
5.6824999999555219
 31
0.0
  0
LINE
  5
11CA
  8
0
 10
2.3000001769588891
 20
5.542499999955524
 30
0.0
 11
2.300000176958878
 21
5.6824999999555219
 31
0.0
  0
LINE
  5
11CB
  8
0
 10
3.000000176958852
 20
6.0174999999555778
 30
0.0
 11
3.4500627160702559
 21
6.0174999999556142
 31
0.0
  0
LINE
  5
11CC
  8
0
 10
3.549937637847449
 20
6.0174999999556213
 30
0.0
 11
4.000000176958852
 21
6.017499999955656
 31
0.0
  0
ARC
  5
11CD
  8
0
 10
3.500000176958856
 20
5.9549999999556169
 30
0.0
 40
0.08
 50
128.6248328730574997
 51
51.3751671269516308
  0
LINE
  5
11CE
  8
0
 10
4.0000001769588627
 20
5.892499999955656
 30
0.0
 11
4.000000176958852
 21
6.017499999955656
 31
0.0
  0
LINE
  5
11CF
  8
0
 10
4.0000001769588627
 20
5.892499999955656
 30
0.0
 11
4.4200001769588653
 21
5.8924999999556897
 31
0.0
  0
LINE
  5
11D0
  8
0
 10
4.580000176958861
 20
5.8924999999557031
 30
0.0
 11
5.0000001769588627
 21
5.8924999999557359
 31
0.0
  0
LINE
  5
11D1
  8
0
 10
5.000000176958852
 20
6.0174999999557359
 30
0.0
 11
5.0000001769588627
 21
5.8924999999557359
 31
0.0
  0
LINE
  5
11D2
  8
0
 10
4.5800001769588974
 20
5.3924999999557031
 30
0.0
 11
4.5800001769588903
 21
5.5424999999557034
 31
0.0
  0
LINE
  5
11D3
  8
0
 10
4.5800001769588761
 20
5.6824999999557022
 30
0.0
 11
4.580000176958861
 21
5.8924999999557031
 31
0.0
  0
LINE
  5
11D4
  8
0
 10
4.4200001769588999
 20
5.3924999999556897
 30
0.0
 11
4.4200001769588928
 21
5.5424999999556901
 31
0.0
  0
LINE
  5
11D5
  8
0
 10
4.4200001769588786
 20
5.6824999999556889
 30
0.0
 11
4.4200001769588653
 21
5.8924999999556897
 31
0.0
  0
LINE
  5
11D6
  8
0
 10
4.4200001769588999
 20
5.3924999999556897
 30
0.0
 11
4.5800001769588974
 21
5.3924999999557031
 31
0.0
  0
LINE
  5
11D7
  8
0
 10
4.4200001769588928
 20
5.5424999999556901
 30
0.0
 11
4.3000001769588891
 21
5.5424999999556821
 31
0.0
  0
LINE
  5
11D8
  8
0
 10
4.5800001769588903
 20
5.5424999999557034
 30
0.0
 11
4.7000001769588868
 21
5.5424999999557123
 31
0.0
  0
LINE
  5
11D9
  8
0
 10
4.7000001769588868
 20
5.5424999999557123
 30
0.0
 11
4.7000001769588771
 21
5.6824999999557111
 31
0.0
  0
LINE
  5
11DA
  8
0
 10
4.7000001769588771
 20
5.6824999999557111
 30
0.0
 11
4.5800001769588761
 21
5.6824999999557022
 31
0.0
  0
LINE
  5
11DB
  8
0
 10
4.4200001769588786
 20
5.6824999999556889
 30
0.0
 11
4.3000001769588776
 21
5.68249999995568
 31
0.0
  0
LINE
  5
11DC
  8
0
 10
4.3000001769588891
 20
5.5424999999556821
 30
0.0
 11
4.3000001769588776
 21
5.68249999995568
 31
0.0
  0
LINE
  5
11DD
  8
0
 10
5.000000176958852
 20
6.0174999999557359
 30
0.0
 11
5.4500627160702564
 21
6.0174999999557723
 31
0.0
  0
LINE
  5
11DE
  8
0
 10
5.5499376378474494
 20
6.0174999999557794
 30
0.0
 11
6.000000176958852
 21
6.0174999999558141
 31
0.0
  0
ARC
  5
11DF
  8
0
 10
5.5000001769588556
 20
5.954999999955775
 30
0.0
 40
0.08
 50
128.6248328730574997
 51
51.3751671269516308
  0
LINE
  5
11E0
  8
0
 10
6.0000001769588627
 20
5.8924999999558141
 30
0.0
 11
6.000000176958852
 21
6.0174999999558141
 31
0.0
  0
LINE
  5
11E1
  8
0
 10
6.0000001769588627
 20
5.8924999999558141
 30
0.0
 11
6.4200001769588653
 21
5.8924999999558478
 31
0.0
  0
LINE
  5
11E2
  8
0
 10
6.580000176958861
 20
5.8924999999558612
 30
0.0
 11
7.0000001769588627
 21
5.892499999955894
 31
0.0
  0
LINE
  5
11E3
  8
0
 10
7.000000176958852
 20
6.017499999955894
 30
0.0
 11
7.0000001769588627
 21
5.892499999955894
 31
0.0
  0
LINE
  5
11E4
  8
0
 10
6.5800001769588974
 20
5.3924999999558612
 30
0.0
 11
6.5800001769588903
 21
5.5424999999558606
 31
0.0
  0
LINE
  5
11E5
  8
0
 10
6.5800001769588761
 20
5.6824999999558603
 30
0.0
 11
6.580000176958861
 21
5.8924999999558612
 31
0.0
  0
LINE
  5
11E6
  8
0
 10
6.4200001769588999
 20
5.3924999999558478
 30
0.0
 11
6.4200001769588928
 21
5.5424999999558491
 31
0.0
  0
LINE
  5
11E7
  8
0
 10
6.4200001769588786
 20
5.682499999955847
 30
0.0
 11
6.4200001769588653
 21
5.8924999999558478
 31
0.0
  0
LINE
  5
11E8
  8
0
 10
6.4200001769588999
 20
5.3924999999558478
 30
0.0
 11
6.5800001769588974
 21
5.3924999999558612
 31
0.0
  0
LINE
  5
11E9
  8
0
 10
6.4200001769588928
 20
5.5424999999558491
 30
0.0
 11
6.3000001769588891
 21
5.5424999999558402
 31
0.0
  0
LINE
  5
11EA
  8
0
 10
6.5800001769588903
 20
5.5424999999558606
 30
0.0
 11
6.7000001769588868
 21
5.5424999999558704
 31
0.0
  0
LINE
  5
11EB
  8
0
 10
6.7000001769588868
 20
5.5424999999558704
 30
0.0
 11
6.7000001769588771
 21
5.6824999999558692
 31
0.0
  0
LINE
  5
11EC
  8
0
 10
6.7000001769588771
 20
5.6824999999558692
 30
0.0
 11
6.5800001769588761
 21
5.6824999999558603
 31
0.0
  0
LINE
  5
11ED
  8
0
 10
6.4200001769588786
 20
5.682499999955847
 30
0.0
 11
6.3000001769588776
 21
5.6824999999558381
 31
0.0
  0
LINE
  5
11EE
  8
0
 10
6.3000001769588891
 20
5.5424999999558402
 30
0.0
 11
6.3000001769588776
 21
5.6824999999558381
 31
0.0
  0
LINE
  5
11EF
  8
0
 10
7.5499376378474494
 20
6.0174999999559367
 30
0.0
 11
7.8750001816068638
 21
6.0174999999559802
 31
0.0
  0
LINE
  5
11F0
  8
0
 10
8.0000001999735204
 20
4.0174999226872847
 30
0.0
 11
8.0000001999735204
 21
4.4675624617986891
 31
0.0
  0
LINE
  5
11F1
  8
0
 10
8.0000001999735204
 20
4.5674373835758821
 30
0.0
 11
8.0000001999735204
 21
5.0174999226872847
 31
0.0
  0
ARC
  5
11F2
  8
0
 10
7.9375001999735204
 20
4.5174999226872847
 30
0.0
 40
0.08
 50
38.6248328730530019
 51
321.3751671269466783
  0
LINE
  5
11F3
  8
0
 10
7.8750001999735204
 20
5.0174999226872847
 30
0.0
 11
8.0000001999735204
 21
5.0174999226872847
 31
0.0
  0
LINE
  5
11F4
  8
0
 10
7.8750001999735204
 20
5.0174999226872847
 30
0.0
 11
7.8750001999735204
 21
5.4374999226872873
 31
0.0
  0
LINE
  5
11F5
  8
0
 10
7.8750001999735204
 20
5.597499922687283
 30
0.0
 11
7.8750001999735204
 21
6.0174999226872847
 31
0.0
  0
LINE
  5
11F6
  8
0
 10
7.3750001999735204
 20
5.597499922687283
 30
0.0
 11
7.5250001999735217
 21
5.597499922687283
 31
0.0
  0
LINE
  5
11F7
  8
0
 10
7.6650001999735187
 20
5.597499922687283
 30
0.0
 11
7.8750001999735204
 21
5.597499922687283
 31
0.0
  0
LINE
  5
11F8
  8
0
 10
7.3750001999735204
 20
5.4374999226872873
 30
0.0
 11
7.5250001999735217
 21
5.4374999226872873
 31
0.0
  0
LINE
  5
11F9
  8
0
 10
7.6650001999735187
 20
5.4374999226872873
 30
0.0
 11
7.8750001999735204
 21
5.4374999226872873
 31
0.0
  0
LINE
  5
11FA
  8
0
 10
7.3750001999735204
 20
5.4374999226872873
 30
0.0
 11
7.3750001999735204
 21
5.597499922687283
 31
0.0
  0
LINE
  5
11FB
  8
0
 10
7.5250001999735217
 20
5.4374999226872873
 30
0.0
 11
7.5250001999735217
 21
5.3174999226872863
 31
0.0
  0
LINE
  5
11FC
  8
0
 10
7.5250001999735217
 20
5.597499922687283
 30
0.0
 11
7.5250001999735217
 21
5.717499922687284
 31
0.0
  0
LINE
  5
11FD
  8
0
 10
7.5250001999735217
 20
5.717499922687284
 30
0.0
 11
7.6650001999735187
 21
5.717499922687284
 31
0.0
  0
LINE
  5
11FE
  8
0
 10
7.6650001999735187
 20
5.717499922687284
 30
0.0
 11
7.6650001999735187
 21
5.597499922687283
 31
0.0
  0
LINE
  5
11FF
  8
0
 10
7.6650001999735187
 20
5.4374999226872873
 30
0.0
 11
7.6650001999735187
 21
5.3174999226872863
 31
0.0
  0
LINE
  5
1200
  8
0
 10
7.5250001999735217
 20
5.3174999226872863
 30
0.0
 11
7.6650001999735187
 21
5.3174999226872863
 31
0.0
  0
LINE
  5
1201
  8
0
 10
8.0000001839782282
 20
1.017499983567411
 30
0.0
 11
8.0000001839782282
 21
1.467562522678814
 31
0.0
  0
LINE
  5
1202
  8
0
 10
8.0000001839782282
 20
1.5674374444560071
 30
0.0
 11
8.0000001839782282
 21
2.017499983567411
 31
0.0
  0
ARC
  5
1203
  8
0
 10
7.9375001839782291
 20
1.517499983567411
 30
0.0
 40
0.08
 50
38.6248328730530019
 51
321.3751671269466783
  0
LINE
  5
1204
  8
0
 10
7.8750001839782291
 20
2.017499983567411
 30
0.0
 11
8.0000001839782282
 21
2.017499983567411
 31
0.0
  0
LINE
  5
1205
  8
0
 10
7.8750001839782291
 20
2.017499983567411
 30
0.0
 11
7.8750001839782291
 21
2.4374999835674132
 31
0.0
  0
LINE
  5
1206
  8
0
 10
7.8750001839782291
 20
2.5974999835674089
 30
0.0
 11
7.8750001839782291
 21
3.017499983567411
 31
0.0
  0
LINE
  5
1207
  8
0
 10
7.3750001839782291
 20
2.5974999835674089
 30
0.0
 11
7.5250001839782321
 21
2.5974999835674089
 31
0.0
  0
LINE
  5
1208
  8
0
 10
7.6650001839782291
 20
2.5974999835674089
 30
0.0
 11
7.8750001839782291
 21
2.5974999835674089
 31
0.0
  0
LINE
  5
1209
  8
0
 10
7.3750001839782291
 20
2.4374999835674132
 30
0.0
 11
7.5250001839782321
 21
2.4374999835674132
 31
0.0
  0
LINE
  5
120A
  8
0
 10
7.6650001839782291
 20
2.4374999835674132
 30
0.0
 11
7.8750001839782291
 21
2.4374999835674132
 31
0.0
  0
LINE
  5
120B
  8
0
 10
7.3750001839782291
 20
2.4374999835674132
 30
0.0
 11
7.3750001839782291
 21
2.5974999835674089
 31
0.0
  0
LINE
  5
120C
  8
0
 10
7.5250001839782321
 20
2.4374999835674132
 30
0.0
 11
7.5250001839782321
 21
2.3174999835674122
 31
0.0
  0
LINE
  5
120D
  8
0
 10
7.5250001839782321
 20
2.5974999835674089
 30
0.0
 11
7.5250001839782321
 21
2.7174999835674098
 31
0.0
  0
LINE
  5
120E
  8
0
 10
7.5250001839782321
 20
2.7174999835674098
 30
0.0
 11
7.6650001839782291
 21
2.7174999835674098
 31
0.0
  0
LINE
  5
120F
  8
0
 10
7.6650001839782291
 20
2.7174999835674098
 30
0.0
 11
7.6650001839782291
 21
2.5974999835674089
 31
0.0
  0
LINE
  5
1210
  8
0
 10
7.6650001839782291
 20
2.4374999835674132
 30
0.0
 11
7.6650001839782291
 21
2.3174999835674122
 31
0.0
  0
LINE
  5
1211
  8
0
 10
7.5250001839782321
 20
2.3174999835674122
 30
0.0
 11
7.6650001839782291
 21
2.3174999835674122
 31
0.0
  0
LINE
  5
1212
  8
0
 10
7.8750001839782291
 20
0.0174999835674115
 30
0.0
 11
7.8750001839782291
 21
0.4374999835674132
 31
0.0
  0
LINE
  5
1213
  8
0
 10
7.8750001839782291
 20
0.5974999835674099
 30
0.0
 11
7.8750001839782291
 21
1.017499983567411
 31
0.0
  0
LINE
  5
1214
  8
0
 10
8.0000001839782282
 20
1.017499983567411
 30
0.0
 11
7.8750001839782291
 21
1.017499983567411
 31
0.0
  0
LINE
  5
1215
  8
0
 10
7.3750001839782291
 20
0.5974999835674099
 30
0.0
 11
7.5250001839782277
 21
0.5974999835674099
 31
0.0
  0
LINE
  5
1216
  8
0
 10
7.6650001839782291
 20
0.5974999835674099
 30
0.0
 11
7.8750001839782291
 21
0.5974999835674099
 31
0.0
  0
LINE
  5
1217
  8
0
 10
7.3750001839782291
 20
0.4374999835674132
 30
0.0
 11
7.5250001839782277
 21
0.4374999835674132
 31
0.0
  0
LINE
  5
1218
  8
0
 10
7.6650001839782291
 20
0.4374999835674132
 30
0.0
 11
7.8750001839782291
 21
0.4374999835674132
 31
0.0
  0
LINE
  5
1219
  8
0
 10
7.3750001839782291
 20
0.4374999835674132
 30
0.0
 11
7.3750001839782291
 21
0.5974999835674099
 31
0.0
  0
LINE
  5
121A
  8
0
 10
7.5250001839782277
 20
0.4374999835674132
 30
0.0
 11
7.5250001839782277
 21
0.3174999835674157
 31
0.0
  0
LINE
  5
121B
  8
0
 10
7.5250001839782277
 20
0.5974999835674099
 30
0.0
 11
7.5250001839782277
 21
0.7174999835674143
 31
0.0
  0
LINE
  5
121C
  8
0
 10
7.5250001839782277
 20
0.7174999835674143
 30
0.0
 11
7.6650001839782291
 21
0.7174999835674143
 31
0.0
  0
LINE
  5
121D
  8
0
 10
7.6650001839782291
 20
0.7174999835674143
 30
0.0
 11
7.6650001839782291
 21
0.5974999835674099
 31
0.0
  0
LINE
  5
121E
  8
0
 10
7.6650001839782291
 20
0.4374999835674132
 30
0.0
 11
7.6650001839782291
 21
0.3174999835674157
 31
0.0
  0
LINE
  5
121F
  8
0
 10
7.5250001839782277
 20
0.3174999835674157
 30
0.0
 11
7.6650001839782291
 21
0.3174999835674157
 31
0.0
  0
LINE
  5
1220
  8
0
 10
7.8750001999735204
 20
3.0174999226872852
 30
0.0
 11
7.8750001999735204
 21
3.4374999226872869
 31
0.0
  0
LINE
  5
1221
  8
0
 10
7.8750001999735204
 20
3.597499922687283
 30
0.0
 11
7.8750001999735204
 21
4.0174999226872847
 31
0.0
  0
LINE
  5
1222
  8
0
 10
8.0000001999735204
 20
4.0174999226872847
 30
0.0
 11
7.8750001999735204
 21
4.0174999226872847
 31
0.0
  0
LINE
  5
1223
  8
0
 10
7.3750001999735204
 20
3.597499922687283
 30
0.0
 11
7.5250001999735217
 21
3.597499922687283
 31
0.0
  0
LINE
  5
1224
  8
0
 10
7.6650001999735187
 20
3.597499922687283
 30
0.0
 11
7.8750001999735204
 21
3.597499922687283
 31
0.0
  0
LINE
  5
1225
  8
0
 10
7.3750001999735204
 20
3.4374999226872869
 30
0.0
 11
7.5250001999735217
 21
3.4374999226872869
 31
0.0
  0
LINE
  5
1226
  8
0
 10
7.6650001999735187
 20
3.4374999226872869
 30
0.0
 11
7.8750001999735204
 21
3.4374999226872869
 31
0.0
  0
LINE
  5
1227
  8
0
 10
7.3750001999735204
 20
3.4374999226872869
 30
0.0
 11
7.3750001999735204
 21
3.597499922687283
 31
0.0
  0
LINE
  5
1228
  8
0
 10
7.5250001999735217
 20
3.4374999226872869
 30
0.0
 11
7.5250001999735217
 21
3.3174999226872859
 31
0.0
  0
LINE
  5
1229
  8
0
 10
7.5250001999735217
 20
3.597499922687283
 30
0.0
 11
7.5250001999735217
 21
3.717499922687284
 31
0.0
  0
LINE
  5
122A
  8
0
 10
7.5250001999735217
 20
3.717499922687284
 30
0.0
 11
7.6650001999735187
 21
3.717499922687284
 31
0.0
  0
LINE
  5
122B
  8
0
 10
7.6650001999735187
 20
3.717499922687284
 30
0.0
 11
7.6650001999735187
 21
3.597499922687283
 31
0.0
  0
LINE
  5
122C
  8
0
 10
7.6650001999735187
 20
3.4374999226872869
 30
0.0
 11
7.6650001999735187
 21
3.3174999226872859
 31
0.0
  0
LINE
  5
122D
  8
0
 10
7.5250001999735217
 20
3.3174999226872859
 30
0.0
 11
7.6650001999735187
 21
3.3174999226872859
 31
0.0
  0
ENDBLK
  5
1231
  8
0
  0
BLOCK
  8
0
  2
A$C78813A65
 70
     0
 10
0.0
 20
0.0
 30
0.0
  3
A$C78813A65
  1

  0
LINE
  5
1A0D
  8
0
 10
8.579999777725078
 20
5.0174999620395146
 30
0.0
 11
0.579999777725078
 21
5.0174999620395146
 31
0.0
  0
LINE
  5
1A0E
  8
0
 10
0.579999777725078
 20
5.0174999620395146
 30
0.0
 11
0.579999777725078
 21
0.0174999620395156
 31
0.0
  0
CIRCLE
  5
1A0F
  8
0
 10
1.579999777725078
 20
4.0174999620395146
 30
0.0
 40
0.07
  0
ARC
  5
1A10
  8
0
 10
1.579999777725078
 20
4.0174999620395146
 30
0.0
 40
1.5
 50
270.0
 51
0.0
  0
CIRCLE
  5
1A11
  8
0
 10
1.579999777725078
 20
4.0174999620395146
 30
0.0
 40
0.08
  0
ARC
  5
1A12
  8
0
 10
1.579999777725078
 20
4.0174999620395146
 30
0.0
 40
1.5800000000000001
 50
270.0
 51
0.0
  0
LINE
  5
1A13
  8
0
 10
3.079999777725078
 20
4.0174999620395146
 30
0.0
 11
3.1599997777250781
 21
4.0174999620395146
 31
0.0
  0
LINE
  5
1A14
  8
0
 10
1.579999777725078
 20
2.5174999620395151
 30
0.0
 11
1.579999777725078
 21
2.437499962039515
 31
0.0
  0
LINE
  5
1A15
  8
0
 10
0.579999777725078
 20
0.0174999620395156
 30
0.0
 11
1.0300623168364811
 21
0.0174999620395156
 31
0.0
  0
LINE
  5
1A16
  8
0
 10
1.1299372386136739
 20
0.0174999620395156
 30
0.0
 11
1.579999777725078
 21
0.0174999620395156
 31
0.0
  0
ARC
  5
1A17
  8
0
 10
1.079999777725078
 20
0.0799999620395155
 30
0.0
 40
0.08
 50
308.6248328730529806
 51
231.375167126946792
  0
LINE
  5
1A18
  8
0
 10
1.579999777725078
 20
0.1424999620395155
 30
0.0
 11
1.579999777725078
 21
0.0174999620395156
 31
0.0
  0
LINE
  5
1A19
  8
0
 10
1.579999777725078
 20
0.1424999620395155
 30
0.0
 11
1.9999997777250771
 21
0.1424999620395155
 31
0.0
  0
LINE
  5
1A1A
  8
0
 10
2.1599997777250781
 20
0.1424999620395155
 30
0.0
 11
2.579999777725078
 21
0.1424999620395155
 31
0.0
  0
LINE
  5
1A1B
  8
0
 10
2.579999777725078
 20
0.0174999620395156
 30
0.0
 11
2.579999777725078
 21
0.1424999620395155
 31
0.0
  0
LINE
  5
1A1C
  8
0
 10
2.1599997777250781
 20
0.6424999620395156
 30
0.0
 11
2.1599997777250781
 21
0.4924999620395157
 31
0.0
  0
LINE
  5
1A1D
  8
0
 10
2.1599997777250781
 20
0.3524999620395155
 30
0.0
 11
2.1599997777250781
 21
0.1424999620395155
 31
0.0
  0
LINE
  5
1A1E
  8
0
 10
1.9999997777250771
 20
0.6424999620395156
 30
0.0
 11
1.9999997777250771
 21
0.4924999620395157
 31
0.0
  0
LINE
  5
1A1F
  8
0
 10
1.9999997777250771
 20
0.3524999620395155
 30
0.0
 11
1.9999997777250771
 21
0.1424999620395155
 31
0.0
  0
LINE
  5
1A20
  8
0
 10
1.9999997777250771
 20
0.6424999620395156
 30
0.0
 11
2.1599997777250781
 21
0.6424999620395156
 31
0.0
  0
LINE
  5
1A21
  8
0
 10
1.9999997777250771
 20
0.4924999620395157
 30
0.0
 11
1.8799997777250781
 21
0.4924999620395157
 31
0.0
  0
LINE
  5
1A22
  8
0
 10
2.1599997777250781
 20
0.4924999620395157
 30
0.0
 11
2.2799997777250769
 21
0.4924999620395157
 31
0.0
  0
LINE
  5
1A23
  8
0
 10
2.2799997777250769
 20
0.4924999620395157
 30
0.0
 11
2.2799997777250769
 21
0.3524999620395155
 31
0.0
  0
LINE
  5
1A24
  8
0
 10
2.2799997777250769
 20
0.3524999620395155
 30
0.0
 11
2.1599997777250781
 21
0.3524999620395155
 31
0.0
  0
LINE
  5
1A25
  8
0
 10
1.9999997777250771
 20
0.3524999620395155
 30
0.0
 11
1.8799997777250781
 21
0.3524999620395155
 31
0.0
  0
LINE
  5
1A26
  8
0
 10
1.8799997777250781
 20
0.4924999620395157
 30
0.0
 11
1.8799997777250781
 21
0.3524999620395155
 31
0.0
  0
LINE
  5
1A27
  8
0
 10
2.579999777725078
 20
0.0174999620395156
 30
0.0
 11
3.0300623168364811
 21
0.0174999620395156
 31
0.0
  0
LINE
  5
1A28
  8
0
 10
3.1299372386136741
 20
0.0174999620395156
 30
0.0
 11
3.579999777725078
 21
0.0174999620395156
 31
0.0
  0
ARC
  5
1A29
  8
0
 10
3.079999777725078
 20
0.0799999620395155
 30
0.0
 40
0.08
 50
308.6248328730529806
 51
231.375167126946792
  0
LINE
  5
1A2A
  8
0
 10
3.579999777725078
 20
0.1424999620395155
 30
0.0
 11
3.579999777725078
 21
0.0174999620395156
 31
0.0
  0
LINE
  5
1A2B
  8
0
 10
3.579999777725078
 20
0.1424999620395155
 30
0.0
 11
3.9999997777250771
 21
0.1424999620395155
 31
0.0
  0
LINE
  5
1A2C
  8
0
 10
4.1599997777250781
 20
0.1424999620395155
 30
0.0
 11
4.579999777725078
 21
0.1424999620395155
 31
0.0
  0
LINE
  5
1A2D
  8
0
 10
4.579999777725078
 20
0.0174999620395156
 30
0.0
 11
4.579999777725078
 21
0.1424999620395155
 31
0.0
  0
LINE
  5
1A2E
  8
0
 10
4.1599997777250781
 20
0.6424999620395156
 30
0.0
 11
4.1599997777250781
 21
0.4924999620395157
 31
0.0
  0
LINE
  5
1A2F
  8
0
 10
4.1599997777250781
 20
0.3524999620395155
 30
0.0
 11
4.1599997777250781
 21
0.1424999620395155
 31
0.0
  0
LINE
  5
1A30
  8
0
 10
3.9999997777250771
 20
0.6424999620395156
 30
0.0
 11
3.9999997777250771
 21
0.4924999620395157
 31
0.0
  0
LINE
  5
1A31
  8
0
 10
3.9999997777250771
 20
0.3524999620395155
 30
0.0
 11
3.9999997777250771
 21
0.1424999620395155
 31
0.0
  0
LINE
  5
1A32
  8
0
 10
3.9999997777250771
 20
0.6424999620395156
 30
0.0
 11
4.1599997777250781
 21
0.6424999620395156
 31
0.0
  0
LINE
  5
1A33
  8
0
 10
3.9999997777250771
 20
0.4924999620395157
 30
0.0
 11
3.8799997777250779
 21
0.4924999620395157
 31
0.0
  0
LINE
  5
1A34
  8
0
 10
4.1599997777250781
 20
0.4924999620395157
 30
0.0
 11
4.2799997777250773
 21
0.4924999620395157
 31
0.0
  0
LINE
  5
1A35
  8
0
 10
4.2799997777250773
 20
0.4924999620395157
 30
0.0
 11
4.2799997777250773
 21
0.3524999620395155
 31
0.0
  0
LINE
  5
1A36
  8
0
 10
4.2799997777250773
 20
0.3524999620395155
 30
0.0
 11
4.1599997777250781
 21
0.3524999620395155
 31
0.0
  0
LINE
  5
1A37
  8
0
 10
3.9999997777250771
 20
0.3524999620395155
 30
0.0
 11
3.8799997777250779
 21
0.3524999620395155
 31
0.0
  0
LINE
  5
1A38
  8
0
 10
3.8799997777250779
 20
0.4924999620395157
 30
0.0
 11
3.8799997777250779
 21
0.3524999620395155
 31
0.0
  0
LINE
  5
1A39
  8
0
 10
4.579999777725078
 20
0.0174999620395156
 30
0.0
 11
5.0300623168364806
 21
0.0174999620395156
 31
0.0
  0
LINE
  5
1A3A
  8
0
 10
5.1299372386136737
 20
0.0174999620395156
 30
0.0
 11
5.579999777725078
 21
0.0174999620395156
 31
0.0
  0
ARC
  5
1A3B
  8
0
 10
5.079999777725078
 20
0.0799999620395155
 30
0.0
 40
0.08
 50
308.6248328730529806
 51
231.3751671269467067
  0
LINE
  5
1A3C
  8
0
 10
5.579999777725078
 20
0.1424999620395155
 30
0.0
 11
5.579999777725078
 21
0.0174999620395156
 31
0.0
  0
LINE
  5
1A3D
  8
0
 10
5.579999777725078
 20
0.1424999620395155
 30
0.0
 11
5.9999997777250771
 21
0.1424999620395155
 31
0.0
  0
LINE
  5
1A3E
  8
0
 10
6.1599997777250781
 20
0.1424999620395155
 30
0.0
 11
6.579999777725078
 21
0.1424999620395155
 31
0.0
  0
LINE
  5
1A3F
  8
0
 10
6.579999777725078
 20
0.0174999620395156
 30
0.0
 11
6.579999777725078
 21
0.1424999620395155
 31
0.0
  0
LINE
  5
1A40
  8
0
 10
6.1599997777250781
 20
0.6424999620395156
 30
0.0
 11
6.1599997777250781
 21
0.4924999620395157
 31
0.0
  0
LINE
  5
1A41
  8
0
 10
6.1599997777250781
 20
0.3524999620395155
 30
0.0
 11
6.1599997777250781
 21
0.1424999620395155
 31
0.0
  0
LINE
  5
1A42
  8
0
 10
5.9999997777250771
 20
0.6424999620395156
 30
0.0
 11
5.9999997777250771
 21
0.4924999620395157
 31
0.0
  0
LINE
  5
1A43
  8
0
 10
5.9999997777250771
 20
0.3524999620395155
 30
0.0
 11
5.9999997777250771
 21
0.1424999620395155
 31
0.0
  0
LINE
  5
1A44
  8
0
 10
5.9999997777250771
 20
0.6424999620395156
 30
0.0
 11
6.1599997777250781
 21
0.6424999620395156
 31
0.0
  0
LINE
  5
1A45
  8
0
 10
5.9999997777250771
 20
0.4924999620395157
 30
0.0
 11
5.8799997777250779
 21
0.4924999620395157
 31
0.0
  0
LINE
  5
1A46
  8
0
 10
6.1599997777250781
 20
0.4924999620395157
 30
0.0
 11
6.2799997777250773
 21
0.4924999620395157
 31
0.0
  0
LINE
  5
1A47
  8
0
 10
6.2799997777250773
 20
0.4924999620395157
 30
0.0
 11
6.2799997777250773
 21
0.3524999620395155
 31
0.0
  0
LINE
  5
1A48
  8
0
 10
6.2799997777250773
 20
0.3524999620395155
 30
0.0
 11
6.1599997777250781
 21
0.3524999620395155
 31
0.0
  0
LINE
  5
1A49
  8
0
 10
5.9999997777250771
 20
0.3524999620395155
 30
0.0
 11
5.8799997777250779
 21
0.3524999620395155
 31
0.0
  0
LINE
  5
1A4A
  8
0
 10
5.8799997777250779
 20
0.4924999620395157
 30
0.0
 11
5.8799997777250779
 21
0.3524999620395155
 31
0.0
  0
LINE
  5
1A4B
  8
0
 10
6.579999777725078
 20
0.0174999620395156
 30
0.0
 11
7.0300623168364806
 21
0.0174999620395156
 31
0.0
  0
LINE
  5
1A4C
  8
0
 10
7.1299372386136737
 20
0.0174999620395156
 30
0.0
 11
7.579999777725078
 21
0.0174999620395156
 31
0.0
  0
ARC
  5
1A4D
  8
0
 10
7.079999777725078
 20
0.0799999620395155
 30
0.0
 40
0.08
 50
308.6248328730529806
 51
231.375167126946792
  0
LINE
  5
1A4E
  8
0
 10
7.579999777725078
 20
0.1424999620395155
 30
0.0
 11
7.579999777725078
 21
0.0174999620395156
 31
0.0
  0
LINE
  5
1A4F
  8
0
 10
7.579999777725078
 20
0.1424999620395155
 30
0.0
 11
7.9999997777250789
 21
0.1424999620395155
 31
0.0
  0
LINE
  5
1A50
  8
0
 10
8.1599997777250763
 20
0.1424999620395155
 30
0.0
 11
8.579999777725078
 21
0.1424999620395155
 31
0.0
  0
LINE
  5
1A51
  8
0
 10
8.1599997777250763
 20
0.6424999620395156
 30
0.0
 11
8.1599997777250763
 21
0.4924999620395157
 31
0.0
  0
LINE
  5
1A52
  8
0
 10
8.1599997777250763
 20
0.3524999620395155
 30
0.0
 11
8.1599997777250763
 21
0.1424999620395155
 31
0.0
  0
LINE
  5
1A53
  8
0
 10
7.9999997777250789
 20
0.6424999620395156
 30
0.0
 11
7.9999997777250789
 21
0.4924999620395157
 31
0.0
  0
LINE
  5
1A54
  8
0
 10
7.9999997777250789
 20
0.3524999620395155
 30
0.0
 11
7.9999997777250789
 21
0.1424999620395155
 31
0.0
  0
LINE
  5
1A55
  8
0
 10
7.9999997777250789
 20
0.6424999620395156
 30
0.0
 11
8.1599997777250763
 21
0.6424999620395156
 31
0.0
  0
LINE
  5
1A56
  8
0
 10
7.9999997777250789
 20
0.4924999620395157
 30
0.0
 11
7.8799997777250779
 21
0.4924999620395157
 31
0.0
  0
LINE
  5
1A57
  8
0
 10
8.1599997777250763
 20
0.4924999620395157
 30
0.0
 11
8.2799997777250773
 21
0.4924999620395157
 31
0.0
  0
LINE
  5
1A58
  8
0
 10
8.2799997777250773
 20
0.4924999620395157
 30
0.0
 11
8.2799997777250773
 21
0.3524999620395155
 31
0.0
  0
LINE
  5
1A59
  8
0
 10
8.2799997777250773
 20
0.3524999620395155
 30
0.0
 11
8.1599997777250763
 21
0.3524999620395155
 31
0.0
  0
LINE
  5
1A5A
  8
0
 10
7.9999997777250789
 20
0.3524999620395155
 30
0.0
 11
7.8799997777250779
 21
0.3524999620395155
 31
0.0
  0
LINE
  5
1A5B
  8
0
 10
7.8799997777250779
 20
0.4924999620395157
 30
0.0
 11
7.8799997777250779
 21
0.3524999620395155
 31
0.0
  0
LINE
  5
1A5C
  8
0
 10
8.579999777725078
 20
0.1424999620395155
 30
0.0
 11
8.579999777725078
 21
0.4675625011509191
 31
0.0
  0
LINE
  5
1A5D
  8
0
 10
8.579999777725078
 20
0.5674374229281121
 30
0.0
 11
8.579999777725078
 21
1.0174999620395151
 31
0.0
  0
ARC
  5
1A5E
  8
0
 10
8.517499777725078
 20
0.5174999620395156
 30
0.0
 40
0.08
 50
38.6248328730529735
 51
321.3751671269469057
  0
LINE
  5
1A5F
  8
0
 10
8.454999777725078
 20
1.0174999620395151
 30
0.0
 11
8.579999777725078
 21
1.0174999620395151
 31
0.0
  0
LINE
  5
1A60
  8
0
 10
8.454999777725078
 20
1.0174999620395151
 30
0.0
 11
8.454999777725078
 21
1.437499962039515
 31
0.0
  0
LINE
  5
1A61
  8
0
 10
8.454999777725078
 20
1.5974999620395149
 30
0.0
 11
8.454999777725078
 21
2.0174999620395151
 31
0.0
  0
LINE
  5
1A62
  8
0
 10
8.579999777725078
 20
2.0174999620395151
 30
0.0
 11
8.454999777725078
 21
2.0174999620395151
 31
0.0
  0
LINE
  5
1A63
  8
0
 10
7.954999777725078
 20
1.5974999620395149
 30
0.0
 11
8.1049997777250766
 21
1.5974999620395149
 31
0.0
  0
LINE
  5
1A64
  8
0
 10
8.2449997777250772
 20
1.5974999620395149
 30
0.0
 11
8.454999777725078
 21
1.5974999620395149
 31
0.0
  0
LINE
  5
1A65
  8
0
 10
7.954999777725078
 20
1.437499962039515
 30
0.0
 11
8.1049997777250766
 21
1.437499962039515
 31
0.0
  0
LINE
  5
1A66
  8
0
 10
8.2449997777250772
 20
1.437499962039515
 30
0.0
 11
8.454999777725078
 21
1.437499962039515
 31
0.0
  0
LINE
  5
1A67
  8
0
 10
7.954999777725078
 20
1.437499962039515
 30
0.0
 11
7.954999777725078
 21
1.5974999620395149
 31
0.0
  0
LINE
  5
1A68
  8
0
 10
8.1049997777250766
 20
1.437499962039515
 30
0.0
 11
8.1049997777250766
 21
1.317499962039516
 31
0.0
  0
LINE
  5
1A69
  8
0
 10
8.1049997777250766
 20
1.5974999620395149
 30
0.0
 11
8.1049997777250766
 21
1.7174999620395139
 31
0.0
  0
LINE
  5
1A6A
  8
0
 10
8.1049997777250766
 20
1.7174999620395139
 30
0.0
 11
8.2449997777250772
 21
1.7174999620395139
 31
0.0
  0
LINE
  5
1A6B
  8
0
 10
8.2449997777250772
 20
1.7174999620395139
 30
0.0
 11
8.2449997777250772
 21
1.5974999620395149
 31
0.0
  0
LINE
  5
1A6C
  8
0
 10
8.2449997777250772
 20
1.437499962039515
 30
0.0
 11
8.2449997777250772
 21
1.317499962039516
 31
0.0
  0
LINE
  5
1A6D
  8
0
 10
8.1049997777250766
 20
1.317499962039516
 30
0.0
 11
8.2449997777250772
 21
1.317499962039516
 31
0.0
  0
LINE
  5
1A6E
  8
0
 10
8.579999777725078
 20
2.0174999620395151
 30
0.0
 11
8.579999777725078
 21
2.467562501150919
 31
0.0
  0
LINE
  5
1A6F
  8
0
 10
8.579999777725078
 20
2.5674374229281121
 30
0.0
 11
8.579999777725078
 21
3.0174999620395151
 31
0.0
  0
ARC
  5
1A70
  8
0
 10
8.517499777725078
 20
2.5174999620395151
 30
0.0
 40
0.08
 50
38.6248328730529735
 51
321.3751671269469057
  0
LINE
  5
1A71
  8
0
 10
8.454999777725078
 20
3.0174999620395151
 30
0.0
 11
8.579999777725078
 21
3.0174999620395151
 31
0.0
  0
LINE
  5
1A72
  8
0
 10
8.454999777725078
 20
3.0174999620395151
 30
0.0
 11
8.454999777725078
 21
3.4374999620395168
 31
0.0
  0
LINE
  5
1A73
  8
0
 10
8.454999777725078
 20
3.5974999620395129
 30
0.0
 11
8.454999777725078
 21
4.0174999620395146
 31
0.0
  0
LINE
  5
1A74
  8
0
 10
8.579999777725078
 20
4.0174999620395146
 30
0.0
 11
8.454999777725078
 21
4.0174999620395146
 31
0.0
  0
LINE
  5
1A75
  8
0
 10
7.954999777725078
 20
3.5974999620395129
 30
0.0
 11
8.1049997777250802
 21
3.5974999620395129
 31
0.0
  0
LINE
  5
1A76
  8
0
 10
8.2449997777250772
 20
3.5974999620395129
 30
0.0
 11
8.454999777725078
 21
3.5974999620395129
 31
0.0
  0
LINE
  5
1A77
  8
0
 10
7.954999777725078
 20
3.4374999620395168
 30
0.0
 11
8.1049997777250802
 21
3.4374999620395168
 31
0.0
  0
LINE
  5
1A78
  8
0
 10
8.2449997777250772
 20
3.4374999620395168
 30
0.0
 11
8.454999777725078
 21
3.4374999620395168
 31
0.0
  0
LINE
  5
1A79
  8
0
 10
7.954999777725078
 20
3.4374999620395168
 30
0.0
 11
7.954999777725078
 21
3.5974999620395129
 31
0.0
  0
LINE
  5
1A7A
  8
0
 10
8.1049997777250802
 20
3.4374999620395168
 30
0.0
 11
8.1049997777250766
 21
3.3174999620395158
 31
0.0
  0
LINE
  5
1A7B
  8
0
 10
8.1049997777250802
 20
3.5974999620395129
 30
0.0
 11
8.1049997777250802
 21
3.7174999620395139
 31
0.0
  0
LINE
  5
1A7C
  8
0
 10
8.1049997777250802
 20
3.7174999620395139
 30
0.0
 11
8.2449997777250772
 21
3.7174999620395139
 31
0.0
  0
LINE
  5
1A7D
  8
0
 10
8.2449997777250772
 20
3.7174999620395139
 30
0.0
 11
8.2449997777250772
 21
3.5974999620395129
 31
0.0
  0
LINE
  5
1A7E
  8
0
 10
8.2449997777250772
 20
3.4374999620395168
 30
0.0
 11
8.2449997777250772
 21
3.3174999620395158
 31
0.0
  0
LINE
  5
1A7F
  8
0
 10
8.1049997777250766
 20
3.3174999620395158
 30
0.0
 11
8.2449997777250772
 21
3.3174999620395158
 31
0.0
  0
LINE
  5
1A80
  8
0
 10
8.579999777725078
 20
4.0174999620395146
 30
0.0
 11
8.579999777725078
 21
4.467562501150919
 31
0.0
  0
LINE
  5
1A81
  8
0
 10
8.579999777725078
 20
4.5674374229281121
 30
0.0
 11
8.579999777725078
 21
5.0174999620395146
 31
0.0
  0
ARC
  5
1A82
  8
0
 10
8.517499777725078
 20
4.5174999620395146
 30
0.0
 40
0.08
 50
38.6248328730529735
 51
321.3751671269466783
  0
ENDBLK
  5
1A86
  8
0
  0
BLOCK
  8
0
  2
*U15
 70
     1
 10
0.0
 20
0.0
 30
0.0
  3
*U15
  1

  0
CIRCLE
  5
29D3
  8
0
 10
2.5376921380709452
 20
0.7884409936615385
 30
0.0
 40
0.0375
  0
ENDBLK
  5
29D5
  8
0
  0
BLOCK
  8
0
  2
*U16
 70
     1
 10
0.0
 20
0.0
 30
0.0
  3
*U16
  1

  0
CIRCLE
  5
29D7
  8
0
 10
2.1776921380709449
 20
0.7884409936615385
 30
0.0
 40
0.0375
  0
ENDBLK
  5
29D9
  8
0
  0
BLOCK
  8
0
  2
*U17
 70
     1
 10
0.0
 20
0.0
 30
0.0
  3
*U17
  1

  0
LINE
  5
29DB
  8
0
 10
5.3085543666186519
 20
0.488820580348488
 30
0.0
 11
5.7285543666186518
 21
0.488820580348488
 31
0.0
  0
LINE
  5
29DC
  8
0
 10
5.7285543666186518
 20
0.488820580348488
 30
0.0
 11
7.7285543666186518
 21
0.4888205803484878
 31
0.0
  0
LINE
  5
29DD
  8
0
 10
7.7285543666186518
 20
0.4888205803484878
 30
0.0
 11
7.7285543666186518
 21
3.8638205803484871
 31
0.0
  0
LINE
  5
29DE
  8
0
 10
7.7285543666186518
 20
3.8638205803484871
 30
0.0
 11
1.728554366618652
 21
3.863820580348488
 31
0.0
  0
LINE
  5
29DF
  8
0
 10
1.728554366618652
 20
3.863820580348488
 30
0.0
 11
1.728554366618652
 21
0.363820580348488
 31
0.0
  0
LINE
  5
29E0
  8
0
 10
1.728554366618652
 20
0.363820580348488
 30
0.0
 11
3.7285543666186518
 21
0.363820580348488
 31
0.0
  0
LINE
  5
29E1
  8
0
 10
3.7285543666186518
 20
0.363820580348488
 30
0.0
 11
4.1786169057300562
 21
0.363820580348488
 31
0.0
  0
LINE
  5
29E2
  8
0
 10
4.1786169057300562
 20
0.363820580348488
 30
0.0
 11
4.2784918275072492
 21
0.363820580348488
 31
0.0
  0
LINE
  5
29E3
  8
0
 10
4.2784918275072492
 20
0.363820580348488
 30
0.0
 11
4.7285543666186518
 21
0.363820580348488
 31
0.0
  0
LINE
  5
29E4
  8
0
 10
4.7285543666186518
 20
0.488820580348488
 30
0.0
 11
4.7285543666186518
 21
0.363820580348488
 31
0.0
  0
LINE
  5
29E5
  8
0
 10
4.7285543666186518
 20
0.488820580348488
 30
0.0
 11
5.1485543666186517
 21
0.488820580348488
 31
0.0
  0
LINE
  5
29E6
  8
0
 10
5.1485543666186517
 20
0.698820580348488
 30
0.0
 11
5.1485543666186517
 21
0.488820580348488
 31
0.0
  0
LINE
  5
29E7
  8
0
 10
5.1485543666186517
 20
0.698820580348488
 30
0.0
 11
5.0285543666186534
 21
0.698820580348488
 31
0.0
  0
LINE
  5
29E8
  8
0
 10
5.0285543666186534
 20
0.8388205803484879
 30
0.0
 11
5.0285543666186534
 21
0.698820580348488
 31
0.0
  0
LINE
  5
29E9
  8
0
 10
5.1485543666186517
 20
0.8388205803484879
 30
0.0
 11
5.0285543666186534
 21
0.8388205803484879
 31
0.0
  0
LINE
  5
29EA
  8
0
 10
5.1485543666186517
 20
0.9888205803484879
 30
0.0
 11
5.1485543666186517
 21
0.8388205803484879
 31
0.0
  0
LINE
  5
29EB
  8
0
 10
5.1485543666186517
 20
0.9888205803484879
 30
0.0
 11
5.3085543666186519
 21
0.9888205803484879
 31
0.0
  0
LINE
  5
29EC
  8
0
 10
5.3085543666186519
 20
0.9888205803484879
 30
0.0
 11
5.3085543666186519
 21
0.8388205803484879
 31
0.0
  0
LINE
  5
29ED
  8
0
 10
5.3085543666186519
 20
0.8388205803484879
 30
0.0
 11
5.4285543666186511
 21
0.8388205803484879
 31
0.0
  0
LINE
  5
29EE
  8
0
 10
5.4285543666186511
 20
0.8388205803484879
 30
0.0
 11
5.4285543666186511
 21
0.698820580348488
 31
0.0
  0
LINE
  5
29EF
  8
0
 10
5.4285543666186511
 20
0.698820580348488
 30
0.0
 11
5.3085543666186519
 21
0.698820580348488
 31
0.0
  0
LINE
  5
29F0
  8
0
 10
5.3085543666186519
 20
0.698820580348488
 30
0.0
 11
5.3085543666186519
 21
0.488820580348488
 31
0.0
  0
ENDBLK
  5
29F2
  8
0
  0
BLOCK
  8
0
  2
*U18
 70
     1
 10
0.0
 20
0.0
 30
0.0
  3
*U18
  1

  0
ARC
  5
29F4
  8
0
 10
2.3191899174693158
 20
3.2742827750021779
 30
0.0
 40
1.5
 50
270.0
 51
0.0
  0
LINE
  5
29F5
  8
0
 10
2.3191899174693158
 20
1.774282775002177
 30
0.0
 11
2.3191899174693158
 21
1.6242827750021771
 31
0.0
  0
ARC
  5
29F6
  8
0
 10
2.3191899174693158
 20
3.274282775002177
 30
0.0
 40
1.649999999999999
 50
270.0
 51
0.0
  0
LINE
  5
29F7
  8
0
 10
3.8191899174693171
 20
3.2742827750021779
 30
0.0
 11
3.9691899174693162
 21
3.274282775002177
 31
0.0
  0
ENDBLK
  5
29F9
  8
0
  0
BLOCK
  8
0
  2
*U19
 70
     1
 10
0.0
 20
0.0
 30
0.0
  3
*U19
  1

  0
CIRCLE
  5
29FB
  8
0
 10
4.2285543666186518
 20
0.4396484084795063
 30
0.0
 40
0.075
  0
ENDBLK
  5
29FD
  8
0
  0
BLOCK
  8
0
  2
*U20
 70
     1
 10
0.0
 20
0.0
 30
0.0
  3
*U20
  1

  0
CIRCLE
  5
29FF
  8
0
 10
2.357692138070945
 20
0.7884409936615385
 30
0.0
 40
0.1
  0
ENDBLK
  5
2A01
  8
0
  0
BLOCK
  8
0
  2
*U21
 70
     1
 10
0.0
 20
0.0
 30
0.0
  3
*U21
  1

  0
CIRCLE
  5
2A03
  8
0
 10
2.3191899174693158
 20
3.274282775002177
 30
0.0
 40
0.075
  0
ENDBLK
  5
2A05
  8
0
  0
BLOCK
  8
0
  2
*U22
 70
     1
 10
0.0
 20
0.0
 30
0.0
  3
*U22
  1

  0
LINE
  5
2A07
  8
0
 10
2.3345950992552602
 20
0.3422710259720607
 30
0.0
 11
2.754595099255261
 21
0.3422710259720607
 31
0.0
  0
LINE
  5
2A08
  8
0
 10
2.754595099255261
 20
0.5522710259720612
 30
0.0
 11
2.754595099255261
 21
0.3422710259720607
 31
0.0
  0
LINE
  5
2A09
  8
0
 10
2.754595099255261
 20
0.5522710259720612
 30
0.0
 11
2.63459509925526
 21
0.5522710259720612
 31
0.0
  0
LINE
  5
2A0A
  8
0
 10
2.63459509925526
 20
0.69227102597206
 30
0.0
 11
2.63459509925526
 21
0.5522710259720612
 31
0.0
  0
LINE
  5
2A0B
  8
0
 10
2.754595099255261
 20
0.69227102597206
 30
0.0
 11
2.63459509925526
 21
0.69227102597206
 31
0.0
  0
LINE
  5
2A0C
  8
0
 10
2.754595099255261
 20
0.8422710259720602
 30
0.0
 11
2.754595099255261
 21
0.69227102597206
 31
0.0
  0
LINE
  5
2A0D
  8
0
 10
2.754595099255261
 20
0.8422710259720602
 30
0.0
 11
2.9145950992552581
 21
0.8422710259720602
 31
0.0
  0
LINE
  5
2A0E
  8
0
 10
2.9145950992552581
 20
0.8422710259720602
 30
0.0
 11
2.9145950992552581
 21
0.69227102597206
 31
0.0
  0
LINE
  5
2A0F
  8
0
 10
2.9145950992552581
 20
0.69227102597206
 30
0.0
 11
3.0345950992552591
 21
0.69227102597206
 31
0.0
  0
LINE
  5
2A10
  8
0
 10
3.0345950992552591
 20
0.69227102597206
 30
0.0
 11
3.0345950992552591
 21
0.5522710259720612
 31
0.0
  0
LINE
  5
2A11
  8
0
 10
3.0345950992552591
 20
0.5522710259720612
 30
0.0
 11
2.9145950992552581
 21
0.5522710259720612
 31
0.0
  0
LINE
  5
2A12
  8
0
 10
2.9145950992552581
 20
0.5522710259720612
 30
0.0
 11
2.9145950992552581
 21
0.3422710259720607
 31
0.0
  0
LINE
  5
2A13
  8
0
 10
2.9145950992552581
 20
0.3422710259720607
 30
0.0
 11
3.3345950992552602
 21
0.3422710259720607
 31
0.0
  0
LINE
  5
2A14
  8
0
 10
3.3345950992552602
 20
0.2172710259720607
 30
0.0
 11
3.3345950992552602
 21
0.3422710259720607
 31
0.0
  0
LINE
  5
2A15
  8
0
 10
3.3345950992552602
 20
0.2172710259720607
 30
0.0
 11
3.7846576383666628
 21
0.2172710259720607
 31
0.0
  0
LINE
  5
2A16
  8
0
 10
3.7846576383666628
 20
0.2172710259720607
 30
0.0
 11
3.8845325601438558
 21
0.2172710259720607
 31
0.0
  0
LINE
  5
2A17
  8
0
 10
3.8845325601438558
 20
0.2172710259720607
 30
0.0
 11
4.3345950992552602
 21
0.2172710259720607
 31
0.0
  0
LINE
  5
2A18
  8
0
 10
6.3345950992552602
 20
0.2172710259720607
 30
0.0
 11
4.3345950992552602
 21
0.2172710259720607
 31
0.0
  0
LINE
  5
2A19
  8
0
 10
6.3345950992552602
 20
1.2172710259720601
 30
0.0
 11
6.3345950992552602
 21
0.2172710259720607
 31
0.0
  0
LINE
  5
2A1A
  8
0
 10
6.3345950992552602
 20
1.4672710259720601
 30
0.0
 11
6.3345950992552602
 21
1.2172710259720601
 31
0.0
  0
LINE
  5
2A1B
  8
0
 10
6.3345950992552602
 20
1.4672710259720601
 30
0.0
 11
6.3345950992552602
 21
1.917333565083464
 31
0.0
  0
LINE
  5
2A1C
  8
0
 10
6.3345950992552602
 20
1.917333565083464
 30
0.0
 11
6.3345950992552602
 21
2.0172084868606559
 31
0.0
  0
LINE
  5
2A1D
  8
0
 10
6.3345950992552602
 20
2.0172084868606559
 30
0.0
 11
6.3345950992552602
 21
2.4672710259720598
 31
0.0
  0
LINE
  5
2A1E
  8
0
 10
6.3345950992552602
 20
2.4672710259720598
 30
0.0
 11
6.3345950992552602
 21
2.7172710259720598
 31
0.0
  0
LINE
  5
2A1F
  8
0
 10
6.3345950992552602
 20
2.7172710259720598
 30
0.0
 11
6.3345950992552558
 21
3.7172711032407548
 31
0.0
  0
LINE
  5
2A20
  8
0
 10
6.2095950992552602
 20
3.7172711032407548
 30
0.0
 11
6.3345950992552558
 21
3.7172711032407548
 31
0.0
  0
LINE
  5
2A21
  8
0
 10
4.3345951062455006
 20
3.7172711032407548
 30
0.0
 11
6.2095950992552602
 21
3.7172711032407548
 31
0.0
  0
LINE
  5
2A22
  8
0
 10
3.884532567134098
 20
3.7172711032407548
 30
0.0
 11
4.3345951062455006
 21
3.7172711032407548
 31
0.0
  0
LINE
  5
2A23
  8
0
 10
3.7846576453569041
 20
3.7172711032407548
 30
0.0
 11
3.884532567134098
 21
3.7172711032407548
 31
0.0
  0
LINE
  5
2A24
  8
0
 10
3.334595106245501
 20
3.7172711032407548
 30
0.0
 11
3.7846576453569041
 21
3.7172711032407548
 31
0.0
  0
LINE
  5
2A25
  8
0
 10
3.334595106245501
 20
3.7172711032407548
 30
0.0
 11
3.334595106245501
 21
3.5922711032407548
 31
0.0
  0
LINE
  5
2A26
  8
0
 10
2.9145951062454989
 20
3.5922711032407548
 30
0.0
 11
3.334595106245501
 21
3.5922711032407548
 31
0.0
  0
LINE
  5
2A27
  8
0
 10
2.9145951062454989
 20
3.382271103240754
 30
0.0
 11
2.9145951062454989
 21
3.5922711032407548
 31
0.0
  0
LINE
  5
2A28
  8
0
 10
3.0345951062454999
 20
3.382271103240754
 30
0.0
 11
2.9145951062454989
 21
3.382271103240754
 31
0.0
  0
LINE
  5
2A29
  8
0
 10
3.0345951062454999
 20
3.2422711032407561
 30
0.0
 11
3.0345951062454999
 21
3.382271103240754
 31
0.0
  0
LINE
  5
2A2A
  8
0
 10
2.9145951062454989
 20
3.2422711032407561
 30
0.0
 11
3.0345951062454999
 21
3.2422711032407561
 31
0.0
  0
LINE
  5
2A2B
  8
0
 10
2.9145951062454989
 20
3.0922711032407548
 30
0.0
 11
2.9145951062454989
 21
3.2422711032407561
 31
0.0
  0
LINE
  5
2A2C
  8
0
 10
2.7545951062455032
 20
3.0922711032407548
 30
0.0
 11
2.9145951062454989
 21
3.0922711032407548
 31
0.0
  0
LINE
  5
2A2D
  8
0
 10
2.7545951062455032
 20
3.0922711032407548
 30
0.0
 11
2.7545951062455032
 21
3.2422711032407561
 31
0.0
  0
LINE
  5
2A2E
  8
0
 10
2.7545951062455032
 20
3.2422711032407561
 30
0.0
 11
2.6345951062455022
 21
3.2422711032407561
 31
0.0
  0
LINE
  5
2A2F
  8
0
 10
2.6345951062455022
 20
3.2422711032407561
 30
0.0
 11
2.6345951062455022
 21
3.3822711032407549
 31
0.0
  0
LINE
  5
2A30
  8
0
 10
2.7545951062455032
 20
3.382271103240754
 30
0.0
 11
2.6345951062455022
 21
3.3822711032407549
 31
0.0
  0
LINE
  5
2A31
  8
0
 10
2.7545951062455032
 20
3.382271103240754
 30
0.0
 11
2.7545951062455032
 21
3.5922711032407548
 31
0.0
  0
LINE
  5
2A32
  8
0
 10
2.334595106245501
 20
3.5922711032407562
 30
0.0
 11
2.7545951062455032
 21
3.5922711032407548
 31
0.0
  0
LINE
  5
2A33
  8
0
 10
2.334595106245501
 20
3.5922711032407562
 30
0.0
 11
2.334595106245501
 21
3.7172711032407562
 31
0.0
  0
LINE
  5
2A34
  8
0
 10
2.334595106245501
 20
3.7172711032407562
 30
0.0
 11
0.3345951062455015
 21
3.7172711032407562
 31
0.0
  0
LINE
  5
2A35
  8
0
 10
0.3345951062455015
 20
3.7172711032407562
 30
0.0
 11
0.334595106245505
 21
0.3422710259720607
 31
0.0
  0
LINE
  5
2A36
  8
0
 10
2.3345950992552602
 20
0.3422710259720607
 30
0.0
 11
0.334595106245505
 21
0.3422710259720607
 31
0.0
  0
ENDBLK
  5
2A38
  8
0
  0
BLOCK
  8
0
  2
*U23
 70
     1
 10
0.0
 20
0.0
 30
0.0
  3
*U23
  1

  0
CIRCLE
  5
2A3A
  8
0
 10
3.834595106245501
 20
3.641443275109737
 30
0.0
 40
0.075
  0
ENDBLK
  5
2A3C
  8
0
  0
BLOCK
  8
0
  2
*U24
 70
     1
 10
0.0
 20
0.0
 30
0.0
  3
*U24
  1

  0
CIRCLE
  5
2A3E
  8
0
 10
3.8345950992552602
 20
0.293098854103079
 30
0.0
 40
0.075
  0
ENDBLK
  5
2A40
  8
0
  0
BLOCK
  8
0
  2
*U25
 70
     1
 10
0.0
 20
0.0
 30
0.0
  3
*U25
  1

  0
CIRCLE
  5
2A42
  8
0
 10
0.784594845167277
 20
3.3055933529386721
 30
0.0
 40
0.08
  0
ENDBLK
  5
2A44
  8
0
  0
BLOCK
  8
0
  2
*U26
 70
     1
 10
0.0
 20
0.0
 30
0.0
  3
*U26
  1

  0
CIRCLE
  5
2A46
  8
0
 10
0.784594845167277
 20
1.673654490030507
 30
0.0
 40
0.089
  0
ENDBLK
  5
2A48
  8
0
  0
BLOCK
  8
0
  2
*U27
 70
     1
 10
0.0
 20
0.0
 30
0.0
  3
*U27
  1

  0
CIRCLE
  5
2A4A
  8
0
 10
3.2605948451672861
 20
1.6736544900305079
 30
0.0
 40
0.08
  0
ENDBLK
  5
2A4C
  8
0
  0
BLOCK
  8
0
  2
*U28
 70
     1
 10
0.0
 20
0.0
 30
0.0
  3
*U28
  1

  0
CIRCLE
  5
2A4E
  8
0
 10
3.2605948451672839
 20
3.3055933529386721
 30
0.0
 40
0.08
  0
ENDBLK
  5
2A50
  8
0
  0
BLOCK
  8
0
  2
*U29
 70
     1
 10
0.0
 20
0.0
 30
0.0
  3
*U29
  1

  0
LINE
  5
2A52
  8
0
 10
0.3345948451672829
 20
4.146549512328753
 30
0.0
 11
0.3345948451672829
 21
2.4621021465381712
 31
0.0
  0
LINE
  5
2A53
  8
0
 10
0.5445948451672838
 20
2.4621021465381712
 30
0.0
 11
0.3345948451672829
 21
2.4621021465381712
 31
0.0
  0
LINE
  5
2A54
  8
0
 10
0.5445948451672838
 20
2.4621021465381712
 30
0.0
 11
0.5445948451672838
 21
2.5821021465381722
 31
0.0
  0
LINE
  5
2A55
  8
0
 10
0.6845948451672843
 20
2.5821021465381722
 30
0.0
 11
0.5445948451672838
 21
2.5821021465381722
 31
0.0
  0
LINE
  5
2A56
  8
0
 10
0.6845948451672843
 20
2.4621021465381712
 30
0.0
 11
0.6845948451672843
 21
2.5821021465381722
 31
0.0
  0
LINE
  5
2A57
  8
0
 10
0.8345948451672828
 20
2.4621021465381712
 30
0.0
 11
0.6845948451672843
 21
2.4621021465381712
 31
0.0
  0
LINE
  5
2A58
  8
0
 10
0.8345948451672828
 20
2.4621021465381712
 30
0.0
 11
0.8345948451672828
 21
2.302102146538175
 31
0.0
  0
LINE
  5
2A59
  8
0
 10
0.8345948451672828
 20
2.302102146538175
 30
0.0
 11
0.6845948451672843
 21
2.302102146538175
 31
0.0
  0
LINE
  5
2A5A
  8
0
 10
0.6845948451672843
 20
2.302102146538175
 30
0.0
 11
0.6845948451672843
 21
2.182102146538174
 31
0.0
  0
LINE
  5
2A5B
  8
0
 10
0.6845948451672843
 20
2.182102146538174
 30
0.0
 11
0.5445948451672838
 21
2.182102146538174
 31
0.0
  0
LINE
  5
2A5C
  8
0
 10
0.5445948451672838
 20
2.182102146538174
 30
0.0
 11
0.5445948451672838
 21
2.302102146538175
 31
0.0
  0
LINE
  5
2A5D
  8
0
 10
0.5445948451672838
 20
2.302102146538175
 30
0.0
 11
0.3345948451672829
 21
2.302102146538175
 31
0.0
  0
LINE
  5
2A5E
  8
0
 10
0.3345948451672829
 20
2.302102146538175
 30
0.0
 11
0.3345948451672829
 21
1.146549512328755
 31
0.0
  0
LINE
  5
2A5F
  8
0
 10
0.3345948451672829
 20
1.146549512328755
 30
0.0
 11
0.3345948451672829
 21
0.9621021465381716
 31
0.0
  0
LINE
  5
2A60
  8
0
 10
0.5445948451672838
 20
0.9621021465381716
 30
0.0
 11
0.3345948451672829
 21
0.9621021465381716
 31
0.0
  0
LINE
  5
2A61
  8
0
 10
0.5445948451672838
 20
0.9621021465381716
 30
0.0
 11
0.5445948451672838
 21
1.0821021465381719
 31
0.0
  0
LINE
  5
2A62
  8
0
 10
0.6845948451672843
 20
1.0821021465381719
 30
0.0
 11
0.5445948451672838
 21
1.0821021465381719
 31
0.0
  0
LINE
  5
2A63
  8
0
 10
0.6845948451672843
 20
0.9621021465381716
 30
0.0
 11
0.6845948451672843
 21
1.0821021465381719
 31
0.0
  0
LINE
  5
2A64
  8
0
 10
0.8345948451672828
 20
0.9621021465381716
 30
0.0
 11
0.6845948451672843
 21
0.9621021465381716
 31
0.0
  0
LINE
  5
2A65
  8
0
 10
0.8345948451672828
 20
0.9621021465381716
 30
0.0
 11
0.8345948451672828
 21
0.802102146538175
 31
0.0
  0
LINE
  5
2A66
  8
0
 10
0.8345948451672828
 20
0.802102146538175
 30
0.0
 11
0.6845948451672843
 21
0.802102146538175
 31
0.0
  0
LINE
  5
2A67
  8
0
 10
0.6845948451672843
 20
0.802102146538175
 30
0.0
 11
0.6845948451672843
 21
0.6821021465381741
 31
0.0
  0
LINE
  5
2A68
  8
0
 10
0.6845948451672843
 20
0.6821021465381741
 30
0.0
 11
0.5445948451672838
 21
0.6821021465381741
 31
0.0
  0
LINE
  5
2A69
  8
0
 10
0.5445948451672838
 20
0.6821021465381741
 30
0.0
 11
0.5445948451672838
 21
0.802102146538175
 31
0.0
  0
LINE
  5
2A6A
  8
0
 10
0.5445948451672838
 20
0.802102146538175
 30
0.0
 11
0.3345948451672829
 21
0.802102146538175
 31
0.0
  0
LINE
  5
2A6B
  8
0
 10
0.3345948451672829
 20
0.802102146538175
 30
0.0
 11
0.3345948451672829
 21
0.1465495123287557
 31
0.0
  0
LINE
  5
2A6C
  8
0
 10
0.3345948451672829
 20
0.1465495123287557
 30
0.0
 11
3.7105948451672819
 21
0.1465495123287557
 31
0.0
  0
LINE
  5
2A6D
  8
0
 10
3.7105948451672779
 20
0.802102146538175
 30
0.0
 11
3.7105948451672819
 21
0.1465495123287557
 31
0.0
  0
LINE
  5
2A6E
  8
0
 10
3.500594845167285
 20
0.802102146538175
 30
0.0
 11
3.7105948451672779
 21
0.802102146538175
 31
0.0
  0
LINE
  5
2A6F
  8
0
 10
3.500594845167285
 20
0.802102146538175
 30
0.0
 11
3.500594845167285
 21
0.6821021465381741
 31
0.0
  0
LINE
  5
2A70
  8
0
 10
3.360594845167284
 20
0.6821021465381741
 30
0.0
 11
3.500594845167285
 21
0.6821021465381741
 31
0.0
  0
LINE
  5
2A71
  8
0
 10
3.360594845167284
 20
0.802102146538175
 30
0.0
 11
3.360594845167284
 21
0.6821021465381741
 31
0.0
  0
LINE
  5
2A72
  8
0
 10
3.2105948451672779
 20
0.802102146538175
 30
0.0
 11
3.360594845167284
 21
0.802102146538175
 31
0.0
  0
LINE
  5
2A73
  8
0
 10
3.2105948451672779
 20
0.802102146538175
 30
0.0
 11
3.2105948451672779
 21
0.9621021465381716
 31
0.0
  0
LINE
  5
2A74
  8
0
 10
3.2105948451672779
 20
0.9621021465381716
 30
0.0
 11
3.360594845167284
 21
0.9621021465381716
 31
0.0
  0
LINE
  5
2A75
  8
0
 10
3.360594845167284
 20
0.9621021465381716
 30
0.0
 11
3.360594845167284
 21
1.0821021465381719
 31
0.0
  0
LINE
  5
2A76
  8
0
 10
3.360594845167284
 20
1.0821021465381719
 30
0.0
 11
3.500594845167285
 21
1.0821021465381719
 31
0.0
  0
LINE
  5
2A77
  8
0
 10
3.500594845167285
 20
1.0821021465381719
 30
0.0
 11
3.500594845167285
 21
0.9621021465381716
 31
0.0
  0
LINE
  5
2A78
  8
0
 10
3.500594845167285
 20
0.9621021465381716
 30
0.0
 11
3.710594845167277
 21
0.9621021465381716
 31
0.0
  0
LINE
  5
2A79
  8
0
 10
3.7105948451672779
 20
1.146549512328753
 30
0.0
 11
3.710594845167277
 21
0.9621021465381716
 31
0.0
  0
LINE
  5
2A7A
  8
0
 10
3.7105948451672779
 20
2.302102146538175
 30
0.0
 11
3.7105948451672779
 21
1.146549512328753
 31
0.0
  0
LINE
  5
2A7B
  8
0
 10
3.500594845167285
 20
2.302102146538175
 30
0.0
 11
3.7105948451672779
 21
2.302102146538175
 31
0.0
  0
LINE
  5
2A7C
  8
0
 10
3.500594845167285
 20
2.302102146538175
 30
0.0
 11
3.500594845167285
 21
2.182102146538174
 31
0.0
  0
LINE
  5
2A7D
  8
0
 10
3.360594845167284
 20
2.182102146538174
 30
0.0
 11
3.500594845167285
 21
2.182102146538174
 31
0.0
  0
LINE
  5
2A7E
  8
0
 10
3.360594845167284
 20
2.302102146538175
 30
0.0
 11
3.360594845167284
 21
2.182102146538174
 31
0.0
  0
LINE
  5
2A7F
  8
0
 10
3.2105948451672779
 20
2.302102146538175
 30
0.0
 11
3.360594845167284
 21
2.302102146538175
 31
0.0
  0
LINE
  5
2A80
  8
0
 10
3.2105948451672779
 20
2.302102146538175
 30
0.0
 11
3.2105948451672779
 21
2.4621021465381712
 31
0.0
  0
LINE
  5
2A81
  8
0
 10
3.2105948451672779
 20
2.4621021465381712
 30
0.0
 11
3.360594845167284
 21
2.4621021465381712
 31
0.0
  0
LINE
  5
2A82
  8
0
 10
3.360594845167284
 20
2.4621021465381712
 30
0.0
 11
3.360594845167284
 21
2.5821021465381722
 31
0.0
  0
LINE
  5
2A83
  8
0
 10
3.360594845167284
 20
2.5821021465381722
 30
0.0
 11
3.500594845167285
 21
2.5821021465381722
 31
0.0
  0
LINE
  5
2A84
  8
0
 10
3.500594845167285
 20
2.5821021465381722
 30
0.0
 11
3.500594845167285
 21
2.4621021465381712
 31
0.0
  0
LINE
  5
2A85
  8
0
 10
3.500594845167285
 20
2.4621021465381712
 30
0.0
 11
3.710594845167277
 21
2.4621021465381712
 31
0.0
  0
LINE
  5
2A86
  8
0
 10
3.7105948451672819
 20
4.146549512328753
 30
0.0
 11
3.710594845167277
 21
2.4621021465381712
 31
0.0
  0
LINE
  5
2A87
  8
0
 10
0.3345948451672829
 20
4.146549512328753
 30
0.0
 11
3.7105948451672819
 21
4.146549512328753
 31
0.0
  0
ENDBLK
  5
2A89
  8
0
  0
BLOCK
  8
0
  2
*U30
 70
     1
 10
0.0
 20
0.0
 30
0.0
  3
*U30
  1

  0
LINE
  5
2A8B
  8
0
 10
1.334594845167282
 20
0.5496363063771234
 30
0.0
 11
2.7105948451672779
 21
0.5496363063771234
 31
0.0
  0
LINE
  5
2A8C
  8
0
 10
1.334594845167282
 20
0.5496363063771234
 30
0.0
 11
1.334594845167282
 21
0.3896363063771275
 31
0.0
  0
LINE
  5
2A8D
  8
0
 10
1.334594845167282
 20
0.3896363063771275
 30
0.0
 11
2.7105948451672779
 21
0.3896363063771266
 31
0.0
  0
LINE
  5
2A8E
  8
0
 10
2.7105948451672779
 20
0.5496363063771234
 30
0.0
 11
2.7105948451672779
 21
0.3896363063771266
 31
0.0
  0
ENDBLK
  5
2A90
  8
0
  0
BLOCK
  8
0
  2
*U31
 70
     1
 10
0.0
 20
0.0
 30
0.0
  3
*U31
  1

  0
LINE
  5
2A92
  8
0
 10
2.7100949970329782
 20
0.706549405861523
 30
0.0
 11
2.7150949970329772
 21
0.706549405861523
 31
0.0
  0
LINE
  5
2A93
  8
0
 10
1.3340949970329801
 20
0.706549405861523
 30
0.0
 11
2.7100949970329782
 21
0.706549405861523
 31
0.0
  0
LINE
  5
2A94
  8
0
 10
1.3340949970329801
 20
0.706549405861523
 30
0.0
 11
1.3290949970329811
 21
0.706549405861523
 31
0.0
  0
LINE
  5
2A95
  8
0
 10
1.3290949970329811
 20
0.706549405861523
 30
0.0
 11
1.3290949970329811
 21
0.5465494058615264
 31
0.0
  0
LINE
  5
2A96
  8
0
 10
0.3345949970329798
 20
0.5465494058615264
 30
0.0
 11
1.3290949970329811
 21
0.5465494058615264
 31
0.0
  0
LINE
  5
2A97
  8
0
 10
0.3345949970329798
 20
0.146549405861526
 30
0.0
 11
0.3345949970329798
 21
0.5465494058615264
 31
0.0
  0
LINE
  5
2A98
  8
0
 10
3.7095949970329789
 20
0.146549405861526
 30
0.0
 11
0.3345949970329798
 21
0.146549405861526
 31
0.0
  0
LINE
  5
2A99
  8
0
 10
3.7095949970329789
 20
0.5465494058615264
 30
0.0
 11
3.7095949970329789
 21
0.146549405861526
 31
0.0
  0
LINE
  5
2A9A
  8
0
 10
2.7150949970329772
 20
0.5465494058615264
 30
0.0
 11
3.7095949970329789
 21
0.5465494058615264
 31
0.0
  0
LINE
  5
2A9B
  8
0
 10
2.7150949970329772
 20
0.706549405861523
 30
0.0
 11
2.7150949970329772
 21
0.5465494058615264
 31
0.0
  0
ENDBLK
  5
2A9D
  8
0
  0
BLOCK
  8
0
  2
*U32
 70
     1
 10
0.0
 20
0.0
 30
0.0
  3
*U32
  1

  0
LINE
  5
2A9F
  8
0
 10
2.558980432066245
 20
0.7632647253349562
 30
0.0
 11
2.563980432066244
 21
0.7632647253349562
 31
0.0
  0
LINE
  5
2AA0
  8
0
 10
1.182980432066248
 20
0.7632647253349562
 30
0.0
 11
2.558980432066245
 21
0.7632647253349562
 31
0.0
  0
LINE
  5
2AA1
  8
0
 10
1.182980432066248
 20
0.7632647253349562
 30
0.0
 11
1.177980432066249
 21
0.7632647253349562
 31
0.0
  0
LINE
  5
2AA2
  8
0
 10
1.177980432066249
 20
0.7632647253349562
 30
0.0
 11
1.177980432066249
 21
0.6032647253349595
 31
0.0
  0
LINE
  5
2AA3
  8
0
 10
0.1834804320662471
 20
0.6032647253349595
 30
0.0
 11
1.177980432066249
 21
0.6032647253349595
 31
0.0
  0
LINE
  5
2AA4
  8
0
 10
0.1834804320662471
 20
0.2032647253349591
 30
0.0
 11
0.1834804320662471
 21
0.6032647253349595
 31
0.0
  0
LINE
  5
2AA5
  8
0
 10
3.5584804320662471
 20
0.2032647253349591
 30
0.0
 11
0.1834804320662471
 21
0.2032647253349591
 31
0.0
  0
LINE
  5
2AA6
  8
0
 10
3.5584804320662471
 20
0.6032647253349595
 30
0.0
 11
3.5584804320662471
 21
0.2032647253349591
 31
0.0
  0
LINE
  5
2AA7
  8
0
 10
2.563980432066244
 20
0.6032647253349595
 30
0.0
 11
3.5584804320662471
 21
0.6032647253349595
 31
0.0
  0
LINE
  5
2AA8
  8
0
 10
2.563980432066244
 20
0.7632647253349562
 30
0.0
 11
2.563980432066244
 21
0.6032647253349595
 31
0.0
  0
ENDBLK
  5
2AAA
  8
0
  0
ENDSEC
  0
SECTION
  2
ENTITIES
  0
INSERT
  5
297F
  8
0
  2
*U32
 10
0.0
 20
0.0
 30
0.0
  0
ENDSEC
  0
EOF
