%
M48
M72
T01C0.01969
T02C0.02756
T03C0.03150
T04C0.03200
T05C0.04000
T06C0.07480
%
T01
X53050Y50550
X66800Y36800
X71800Y51800
X46800Y76800
X71800Y111800
X96800Y86800
X131800Y106800
X141800Y96800
X146800Y111800
X156800Y111800
X141800Y131800
X156800Y146800
X186800Y131800
X151800Y76800
X131800Y56800
X141800Y46800
X151800Y36800
X106800Y121800
X104300Y131800
X111800Y176800
T02
X167863Y186800
X175737Y186800
X20737Y26800
X12863Y26800
T03
X39379Y174251
X34654Y177400
X39379Y180550
X34654Y183700
X39379Y186849
T04
X69300Y171800
X69300Y161800
X86800Y156800
X86800Y146800
X86800Y136800
X86800Y126800
X86800Y116800
X86800Y106800
X86800Y96800
X86800Y86800
X86800Y76800
X86800Y66800
X86800Y56800
X86800Y46800
X86800Y36800
X86800Y26800
X76800Y26800
X76800Y36800
X61800Y26800
X61800Y6800
X41800Y6800
X41800Y26800
X26800Y46800
X16800Y46800
X116800Y46800
X116800Y56800
X116800Y66800
X116800Y76800
X116800Y86800
X116800Y96800
X116800Y106800
X116800Y116800
X116800Y126800
X116800Y136800
X116800Y146800
X116800Y156800
X126800Y156800
X126800Y146800
X151800Y166800
X151800Y176800
X131800Y181800
X131800Y191800
X111800Y186800
X106800Y194300
X101800Y186800
X161800Y156800
X181800Y156800
X126800Y76800
X126800Y66800
X116800Y36800
X116800Y26800
X126800Y16800
X146800Y16800
X156800Y16800
X166800Y16800
T05
X61800Y56800
X61800Y66800
X61800Y76800
X6800Y76800
X6800Y66800
X6800Y86800
X6800Y96800
X6800Y106800
X6800Y116800
X6800Y126800
X6800Y136800
X61800Y186800
X71800Y186800
X81800Y186800
X194300Y186800
X194300Y176800
X194300Y166800
X194300Y156800
X194300Y146800
X194300Y136800
X194300Y126800
X194300Y116800
X194300Y106800
X194300Y96800
X194300Y86800
X194300Y76800
X194300Y66800
T06
X19300Y166180
X19300Y194920
M30
