G75*
%MOIN*%
%OFA0B0*%
%FSLAX25Y25*%
%IPPOS*%
%LPD*%
%AMOC8*
5,1,8,0,0,1.08239X$1,22.5*
%
%ADD10C,0.00000*%
%ADD11OC8,0.05200*%
%ADD12C,0.06299*%
%ADD13C,0.07400*%
%ADD14C,0.05200*%
%ADD15R,0.07400X0.07400*%
%ADD16C,0.05150*%
%ADD17C,0.11220*%
%ADD18C,0.01600*%
%ADD19OC8,0.03169*%
D10*
X0001800Y0001800D02*
X0001800Y0198650D01*
X0198650Y0198650D01*
X0198650Y0001800D01*
X0001800Y0001800D01*
D11*
X0041800Y0006800D03*
X0041800Y0026800D03*
X0061800Y0026800D03*
X0076800Y0026800D03*
X0076800Y0036800D03*
X0061800Y0006800D03*
X0026800Y0046800D03*
X0016800Y0046800D03*
X0126800Y0066800D03*
X0126800Y0076800D03*
X0126800Y0016800D03*
X0146800Y0016800D03*
X0156800Y0016800D03*
X0166800Y0016800D03*
X0126800Y0146800D03*
X0126800Y0156800D03*
X0131800Y0181800D03*
X0131800Y0191800D03*
X0111800Y0186800D03*
X0106800Y0194300D03*
X0101800Y0186800D03*
X0069300Y0171800D03*
X0069300Y0161800D03*
X0151800Y0166800D03*
X0151800Y0176800D03*
X0161800Y0156800D03*
X0181800Y0156800D03*
D12*
X0175737Y0186800D03*
X0167863Y0186800D03*
X0020737Y0026800D03*
X0012863Y0026800D03*
D13*
X0006800Y0066800D03*
X0006800Y0076800D03*
X0006800Y0086800D03*
X0006800Y0096800D03*
X0006800Y0106800D03*
X0006800Y0116800D03*
X0006800Y0126800D03*
X0006800Y0136800D03*
X0071800Y0186800D03*
X0081800Y0186800D03*
X0194300Y0186800D03*
X0194300Y0176800D03*
X0194300Y0166800D03*
X0194300Y0156800D03*
X0194300Y0146800D03*
X0194300Y0136800D03*
X0194300Y0126800D03*
X0194300Y0116800D03*
X0194300Y0106800D03*
X0194300Y0096800D03*
X0194300Y0086800D03*
X0194300Y0076800D03*
X0194300Y0066800D03*
X0061800Y0066800D03*
X0061800Y0056800D03*
D14*
X0084200Y0056800D02*
X0089400Y0056800D01*
X0089400Y0046800D02*
X0084200Y0046800D01*
X0084200Y0036800D02*
X0089400Y0036800D01*
X0089400Y0026800D02*
X0084200Y0026800D01*
X0114200Y0026800D02*
X0119400Y0026800D01*
X0119400Y0036800D02*
X0114200Y0036800D01*
X0114200Y0046800D02*
X0119400Y0046800D01*
X0119400Y0056800D02*
X0114200Y0056800D01*
X0114200Y0066800D02*
X0119400Y0066800D01*
X0119400Y0076800D02*
X0114200Y0076800D01*
X0114200Y0086800D02*
X0119400Y0086800D01*
X0119400Y0096800D02*
X0114200Y0096800D01*
X0114200Y0106800D02*
X0119400Y0106800D01*
X0119400Y0116800D02*
X0114200Y0116800D01*
X0114200Y0126800D02*
X0119400Y0126800D01*
X0119400Y0136800D02*
X0114200Y0136800D01*
X0114200Y0146800D02*
X0119400Y0146800D01*
X0119400Y0156800D02*
X0114200Y0156800D01*
X0089400Y0156800D02*
X0084200Y0156800D01*
X0084200Y0146800D02*
X0089400Y0146800D01*
X0089400Y0136800D02*
X0084200Y0136800D01*
X0084200Y0126800D02*
X0089400Y0126800D01*
X0089400Y0116800D02*
X0084200Y0116800D01*
X0084200Y0106800D02*
X0089400Y0106800D01*
X0089400Y0096800D02*
X0084200Y0096800D01*
X0084200Y0086800D02*
X0089400Y0086800D01*
X0089400Y0076800D02*
X0084200Y0076800D01*
X0084200Y0066800D02*
X0089400Y0066800D01*
D15*
X0061800Y0076800D03*
X0061800Y0186800D03*
D16*
X0039379Y0186849D03*
X0034654Y0183700D03*
X0039379Y0180550D03*
X0034654Y0177400D03*
X0039379Y0174251D03*
D17*
X0019300Y0166180D03*
X0019300Y0194920D03*
D18*
X0025688Y0192023D02*
X0083912Y0192023D01*
X0083503Y0191615D02*
X0082814Y0191900D01*
X0080786Y0191900D01*
X0078911Y0191124D01*
X0077476Y0189689D01*
X0076800Y0188056D01*
X0076124Y0189689D01*
X0074689Y0191124D01*
X0072814Y0191900D01*
X0070786Y0191900D01*
X0068911Y0191124D01*
X0067476Y0189689D01*
X0066900Y0188297D01*
X0066900Y0191080D01*
X0066080Y0191900D01*
X0057520Y0191900D01*
X0056700Y0191080D01*
X0056700Y0182520D01*
X0057520Y0181700D01*
X0066080Y0181700D01*
X0066900Y0182520D01*
X0066900Y0185303D01*
X0067476Y0183911D01*
X0068911Y0182476D01*
X0070786Y0181700D01*
X0072814Y0181700D01*
X0074689Y0182476D01*
X0076124Y0183911D01*
X0076800Y0185544D01*
X0077476Y0183911D01*
X0078911Y0182476D01*
X0080786Y0181700D01*
X0082814Y0181700D01*
X0084689Y0182476D01*
X0086124Y0183911D01*
X0086900Y0185786D01*
X0086900Y0187814D01*
X0086615Y0188503D01*
X0090211Y0192100D01*
X0103343Y0192100D01*
X0105143Y0190300D01*
X0108457Y0190300D01*
X0110800Y0192643D01*
X0110800Y0195957D01*
X0109957Y0196800D01*
X0196800Y0196800D01*
X0196800Y0191285D01*
X0195314Y0191900D01*
X0193286Y0191900D01*
X0191411Y0191124D01*
X0189976Y0189689D01*
X0189200Y0187814D01*
X0189200Y0185786D01*
X0189976Y0183911D01*
X0191411Y0182476D01*
X0193044Y0181800D01*
X0191411Y0181124D01*
X0189976Y0179689D01*
X0189200Y0177814D01*
X0189200Y0175786D01*
X0189976Y0173911D01*
X0191411Y0172476D01*
X0192537Y0172010D01*
X0192189Y0171897D01*
X0191417Y0171504D01*
X0190717Y0170995D01*
X0190105Y0170383D01*
X0189596Y0169683D01*
X0189203Y0168911D01*
X0188935Y0168088D01*
X0188800Y0167233D01*
X0188800Y0167000D01*
X0194100Y0167000D01*
X0194100Y0166600D01*
X0188800Y0166600D01*
X0188800Y0166367D01*
X0188935Y0165512D01*
X0189203Y0164689D01*
X0189596Y0163917D01*
X0190105Y0163217D01*
X0190717Y0162605D01*
X0191417Y0162096D01*
X0192189Y0161703D01*
X0192537Y0161590D01*
X0191411Y0161124D01*
X0189976Y0159689D01*
X0189691Y0159000D01*
X0185257Y0159000D01*
X0183457Y0160800D01*
X0180911Y0160800D01*
X0172711Y0169000D01*
X0170889Y0169000D01*
X0159000Y0169000D01*
X0159000Y0177711D01*
X0157711Y0179000D01*
X0155257Y0179000D01*
X0153457Y0180800D01*
X0150143Y0180800D01*
X0148343Y0179000D01*
X0144000Y0179000D01*
X0144000Y0192711D01*
X0142711Y0194000D01*
X0135257Y0194000D01*
X0133457Y0195800D01*
X0130143Y0195800D01*
X0127800Y0193457D01*
X0127800Y0190911D01*
X0120889Y0184000D01*
X0117711Y0184000D01*
X0115800Y0185911D01*
X0115800Y0188457D01*
X0113457Y0190800D01*
X0110143Y0190800D01*
X0107800Y0188457D01*
X0107800Y0185143D01*
X0110143Y0182800D01*
X0112689Y0182800D01*
X0114600Y0180889D01*
X0114600Y0160800D01*
X0113404Y0160800D01*
X0111934Y0160191D01*
X0110809Y0159066D01*
X0110200Y0157596D01*
X0110200Y0156004D01*
X0110809Y0154534D01*
X0111343Y0154000D01*
X0109000Y0154000D01*
X0109000Y0157711D01*
X0107711Y0159000D01*
X0092818Y0159000D01*
X0092791Y0159066D01*
X0091666Y0160191D01*
X0090196Y0160800D01*
X0083404Y0160800D01*
X0081934Y0160191D01*
X0080809Y0159066D01*
X0080200Y0157596D01*
X0080200Y0156004D01*
X0080809Y0154534D01*
X0081343Y0154000D01*
X0032711Y0154000D01*
X0031500Y0155211D01*
X0031500Y0174934D01*
X0032403Y0174031D01*
X0033864Y0173426D01*
X0035080Y0173426D01*
X0035112Y0173226D01*
X0035324Y0172571D01*
X0035637Y0171958D01*
X0036042Y0171401D01*
X0036529Y0170914D01*
X0037086Y0170509D01*
X0037699Y0170196D01*
X0038354Y0169984D01*
X0039034Y0169876D01*
X0039379Y0169876D01*
X0039723Y0169876D01*
X0040403Y0169984D01*
X0041058Y0170196D01*
X0041672Y0170509D01*
X0042229Y0170914D01*
X0042716Y0171401D01*
X0043120Y0171958D01*
X0043433Y0172571D01*
X0043646Y0173226D01*
X0043754Y0173906D01*
X0043754Y0174251D01*
X0043754Y0174595D01*
X0043646Y0175275D01*
X0043433Y0175930D01*
X0043120Y0176544D01*
X0042716Y0177101D01*
X0042229Y0177588D01*
X0042118Y0177668D01*
X0042748Y0178298D01*
X0043354Y0179759D01*
X0043354Y0181341D01*
X0042748Y0182802D01*
X0041850Y0183700D01*
X0042748Y0184598D01*
X0043354Y0186059D01*
X0043354Y0187640D01*
X0042748Y0189101D01*
X0041630Y0190219D01*
X0040169Y0190824D01*
X0038588Y0190824D01*
X0037127Y0190219D01*
X0036009Y0189101D01*
X0035418Y0187674D01*
X0033864Y0187674D01*
X0032403Y0187069D01*
X0031285Y0185951D01*
X0031263Y0185900D01*
X0028389Y0185900D01*
X0027100Y0184611D01*
X0027100Y0153389D01*
X0029600Y0150889D01*
X0030889Y0149600D01*
X0081343Y0149600D01*
X0080809Y0149066D01*
X0080782Y0149000D01*
X0045889Y0149000D01*
X0044600Y0147711D01*
X0039600Y0142711D01*
X0039600Y0139000D01*
X0011409Y0139000D01*
X0011124Y0139689D01*
X0009689Y0141124D01*
X0007814Y0141900D01*
X0005786Y0141900D01*
X0003911Y0141124D01*
X0003600Y0140812D01*
X0003600Y0196800D01*
X0012491Y0196800D01*
X0012290Y0196314D01*
X0012290Y0193526D01*
X0013357Y0190949D01*
X0015329Y0188977D01*
X0017906Y0187910D01*
X0020694Y0187910D01*
X0023271Y0188977D01*
X0025243Y0190949D01*
X0026310Y0193526D01*
X0026310Y0196314D01*
X0026109Y0196800D01*
X0103643Y0196800D01*
X0103343Y0196500D01*
X0088389Y0196500D01*
X0083503Y0191615D01*
X0085510Y0193621D02*
X0026310Y0193621D01*
X0026310Y0195220D02*
X0087109Y0195220D01*
X0089300Y0194300D02*
X0081800Y0186800D01*
X0078212Y0190424D02*
X0075388Y0190424D01*
X0076481Y0188826D02*
X0077119Y0188826D01*
X0077427Y0184030D02*
X0076173Y0184030D01*
X0074581Y0182432D02*
X0079019Y0182432D01*
X0084581Y0182432D02*
X0099946Y0182432D01*
X0099977Y0182400D02*
X0101800Y0182400D01*
X0103623Y0182400D01*
X0106200Y0184977D01*
X0106200Y0186800D01*
X0106200Y0188623D01*
X0103623Y0191200D01*
X0101800Y0191200D01*
X0101800Y0186800D01*
X0111800Y0176800D01*
X0114600Y0176038D02*
X0043378Y0176038D01*
X0043754Y0174439D02*
X0066282Y0174439D01*
X0065300Y0173457D02*
X0067643Y0175800D01*
X0070957Y0175800D01*
X0073300Y0173457D01*
X0073300Y0170143D01*
X0070957Y0167800D01*
X0067643Y0167800D01*
X0065300Y0170143D01*
X0065300Y0173457D01*
X0065300Y0172841D02*
X0043520Y0172841D01*
X0043754Y0174251D02*
X0039379Y0174251D01*
X0043754Y0174251D01*
X0042557Y0171242D02*
X0065300Y0171242D01*
X0065799Y0169644D02*
X0031500Y0169644D01*
X0031500Y0171242D02*
X0036200Y0171242D01*
X0035237Y0172841D02*
X0031500Y0172841D01*
X0031500Y0174439D02*
X0031994Y0174439D01*
X0027100Y0174439D02*
X0003600Y0174439D01*
X0003600Y0172841D02*
X0017062Y0172841D01*
X0017906Y0173190D02*
X0015329Y0172123D01*
X0013357Y0170151D01*
X0012290Y0167574D01*
X0012290Y0164785D01*
X0013357Y0162209D01*
X0015329Y0160237D01*
X0017906Y0159170D01*
X0020694Y0159170D01*
X0023271Y0160237D01*
X0025243Y0162209D01*
X0026310Y0164785D01*
X0026310Y0167574D01*
X0025243Y0170151D01*
X0023271Y0172123D01*
X0020694Y0173190D01*
X0017906Y0173190D01*
X0014448Y0171242D02*
X0003600Y0171242D01*
X0003600Y0169644D02*
X0013147Y0169644D01*
X0012485Y0168045D02*
X0003600Y0168045D01*
X0003600Y0166447D02*
X0012290Y0166447D01*
X0012290Y0164848D02*
X0003600Y0164848D01*
X0003600Y0163250D02*
X0012926Y0163250D01*
X0013915Y0161651D02*
X0003600Y0161651D01*
X0003600Y0160053D02*
X0015774Y0160053D01*
X0022826Y0160053D02*
X0027100Y0160053D01*
X0027100Y0161651D02*
X0024685Y0161651D01*
X0025674Y0163250D02*
X0027100Y0163250D01*
X0027100Y0164848D02*
X0026310Y0164848D01*
X0026310Y0166447D02*
X0027100Y0166447D01*
X0027100Y0168045D02*
X0026115Y0168045D01*
X0025453Y0169644D02*
X0027100Y0169644D01*
X0027100Y0171242D02*
X0024152Y0171242D01*
X0021538Y0172841D02*
X0027100Y0172841D01*
X0027100Y0176038D02*
X0003600Y0176038D01*
X0003600Y0177636D02*
X0027100Y0177636D01*
X0027100Y0179235D02*
X0003600Y0179235D01*
X0003600Y0180833D02*
X0027100Y0180833D01*
X0027100Y0182432D02*
X0003600Y0182432D01*
X0003600Y0184030D02*
X0027100Y0184030D01*
X0028118Y0185629D02*
X0003600Y0185629D01*
X0003600Y0187227D02*
X0032784Y0187227D01*
X0035895Y0188826D02*
X0022906Y0188826D01*
X0024718Y0190424D02*
X0037623Y0190424D01*
X0041134Y0190424D02*
X0056700Y0190424D01*
X0056700Y0188826D02*
X0042862Y0188826D01*
X0043354Y0187227D02*
X0056700Y0187227D01*
X0056700Y0185629D02*
X0043176Y0185629D01*
X0042181Y0184030D02*
X0056700Y0184030D01*
X0056788Y0182432D02*
X0042902Y0182432D01*
X0043354Y0180833D02*
X0114600Y0180833D01*
X0114600Y0179235D02*
X0043136Y0179235D01*
X0042162Y0177636D02*
X0114600Y0177636D01*
X0114600Y0174439D02*
X0072318Y0174439D01*
X0073300Y0172841D02*
X0114600Y0172841D01*
X0114600Y0171242D02*
X0073300Y0171242D01*
X0072801Y0169644D02*
X0114600Y0169644D01*
X0114600Y0168045D02*
X0071202Y0168045D01*
X0071123Y0166200D02*
X0069300Y0166200D01*
X0069300Y0161800D01*
X0069300Y0161800D01*
X0073700Y0161800D01*
X0073700Y0163623D01*
X0071123Y0166200D01*
X0069300Y0166200D02*
X0067477Y0166200D01*
X0064900Y0163623D01*
X0064900Y0161800D01*
X0069300Y0161800D01*
X0069300Y0161800D01*
X0069300Y0161800D01*
X0069300Y0166200D01*
X0069300Y0164848D02*
X0069300Y0164848D01*
X0069300Y0163250D02*
X0069300Y0163250D01*
X0069300Y0161800D02*
X0064900Y0161800D01*
X0064900Y0159977D01*
X0067477Y0157400D01*
X0069300Y0157400D01*
X0071123Y0157400D01*
X0073700Y0159977D01*
X0073700Y0161800D01*
X0069300Y0161800D01*
X0069300Y0157400D01*
X0069300Y0161800D01*
X0069300Y0161800D01*
X0069300Y0161651D02*
X0069300Y0161651D01*
X0069300Y0160053D02*
X0069300Y0160053D01*
X0069300Y0158454D02*
X0069300Y0158454D01*
X0072177Y0158454D02*
X0080556Y0158454D01*
X0080200Y0156856D02*
X0031500Y0156856D01*
X0031500Y0158454D02*
X0066423Y0158454D01*
X0064900Y0160053D02*
X0031500Y0160053D01*
X0031500Y0161651D02*
X0064900Y0161651D01*
X0064900Y0163250D02*
X0031500Y0163250D01*
X0031500Y0164848D02*
X0066126Y0164848D01*
X0067398Y0168045D02*
X0031500Y0168045D01*
X0031500Y0166447D02*
X0114600Y0166447D01*
X0114600Y0164848D02*
X0072474Y0164848D01*
X0073700Y0163250D02*
X0114600Y0163250D01*
X0114600Y0161651D02*
X0073700Y0161651D01*
X0073700Y0160053D02*
X0081796Y0160053D01*
X0080510Y0155257D02*
X0031500Y0155257D01*
X0029300Y0154300D02*
X0031800Y0151800D01*
X0101800Y0151800D01*
X0101800Y0101800D01*
X0106800Y0096800D01*
X0116800Y0096800D01*
X0120196Y0100800D02*
X0113404Y0100800D01*
X0111934Y0100191D01*
X0110809Y0099066D01*
X0110782Y0099000D01*
X0107711Y0099000D01*
X0104000Y0102711D01*
X0104000Y0120380D01*
X0104600Y0119780D01*
X0104600Y0115889D01*
X0111116Y0109373D01*
X0110809Y0109066D01*
X0110200Y0107596D01*
X0110200Y0106004D01*
X0110809Y0104534D01*
X0111934Y0103409D01*
X0113404Y0102800D01*
X0120196Y0102800D01*
X0121666Y0103409D01*
X0122791Y0104534D01*
X0123400Y0106004D01*
X0123400Y0107596D01*
X0122791Y0109066D01*
X0121666Y0110191D01*
X0120196Y0110800D01*
X0115911Y0110800D01*
X0113911Y0112800D01*
X0120196Y0112800D01*
X0121666Y0113409D01*
X0122791Y0114534D01*
X0122818Y0114600D01*
X0145380Y0114600D01*
X0143816Y0113036D01*
X0143816Y0110564D01*
X0145380Y0109000D01*
X0133820Y0109000D01*
X0133036Y0109784D01*
X0130564Y0109784D01*
X0128816Y0108036D01*
X0128816Y0105564D01*
X0130564Y0103816D01*
X0133036Y0103816D01*
X0133820Y0104600D01*
X0189691Y0104600D01*
X0189976Y0103911D01*
X0191411Y0102476D01*
X0193044Y0101800D01*
X0191411Y0101124D01*
X0189976Y0099689D01*
X0189691Y0099000D01*
X0143820Y0099000D01*
X0143036Y0099784D01*
X0140564Y0099784D01*
X0138816Y0098036D01*
X0138816Y0095564D01*
X0140564Y0093816D01*
X0143036Y0093816D01*
X0143820Y0094600D01*
X0189691Y0094600D01*
X0189976Y0093911D01*
X0191411Y0092476D01*
X0193044Y0091800D01*
X0191411Y0091124D01*
X0189976Y0089689D01*
X0189200Y0087814D01*
X0189200Y0085786D01*
X0189976Y0083911D01*
X0191411Y0082476D01*
X0193044Y0081800D01*
X0191411Y0081124D01*
X0189976Y0079689D01*
X0189691Y0079000D01*
X0153820Y0079000D01*
X0153036Y0079784D01*
X0150564Y0079784D01*
X0148816Y0078036D01*
X0148816Y0075564D01*
X0150564Y0073816D01*
X0153036Y0073816D01*
X0153820Y0074600D01*
X0189691Y0074600D01*
X0189976Y0073911D01*
X0191411Y0072476D01*
X0192537Y0072010D01*
X0192189Y0071897D01*
X0191417Y0071504D01*
X0190717Y0070995D01*
X0190105Y0070383D01*
X0189596Y0069683D01*
X0189203Y0068911D01*
X0188935Y0068088D01*
X0188800Y0067233D01*
X0188800Y0067000D01*
X0194100Y0067000D01*
X0194100Y0066600D01*
X0194500Y0066600D01*
X0194500Y0061300D01*
X0194733Y0061300D01*
X0195588Y0061435D01*
X0196411Y0061703D01*
X0196800Y0061901D01*
X0196800Y0003600D01*
X0064257Y0003600D01*
X0065800Y0005143D01*
X0065800Y0008457D01*
X0063457Y0010800D01*
X0060911Y0010800D01*
X0054000Y0017711D01*
X0054000Y0024600D01*
X0058343Y0024600D01*
X0060143Y0022800D01*
X0063457Y0022800D01*
X0065800Y0025143D01*
X0065800Y0028457D01*
X0063457Y0030800D01*
X0060143Y0030800D01*
X0058343Y0029000D01*
X0050889Y0029000D01*
X0049600Y0027711D01*
X0049600Y0019000D01*
X0037711Y0019000D01*
X0027711Y0029000D01*
X0024750Y0029000D01*
X0024594Y0029377D01*
X0023314Y0030657D01*
X0021642Y0031350D01*
X0019832Y0031350D01*
X0018160Y0030657D01*
X0017012Y0029510D01*
X0016638Y0030024D01*
X0016087Y0030575D01*
X0015457Y0031033D01*
X0014763Y0031387D01*
X0014022Y0031628D01*
X0013253Y0031750D01*
X0012863Y0031750D01*
X0012473Y0031750D01*
X0011704Y0031628D01*
X0010963Y0031387D01*
X0010269Y0031033D01*
X0009639Y0030575D01*
X0009088Y0030024D01*
X0008630Y0029394D01*
X0008276Y0028700D01*
X0008035Y0027959D01*
X0007913Y0027190D01*
X0007913Y0026800D01*
X0007913Y0026410D01*
X0008035Y0025641D01*
X0008276Y0024900D01*
X0008630Y0024206D01*
X0009088Y0023576D01*
X0009639Y0023025D01*
X0010269Y0022567D01*
X0010963Y0022213D01*
X0011704Y0021972D01*
X0012473Y0021850D01*
X0012863Y0021850D01*
X0013253Y0021850D01*
X0014022Y0021972D01*
X0014763Y0022213D01*
X0015457Y0022567D01*
X0016087Y0023025D01*
X0016638Y0023576D01*
X0017012Y0024090D01*
X0018160Y0022943D01*
X0019832Y0022250D01*
X0021642Y0022250D01*
X0023314Y0022943D01*
X0024594Y0024223D01*
X0024750Y0024600D01*
X0025889Y0024600D01*
X0034600Y0015889D01*
X0035889Y0014600D01*
X0050889Y0014600D01*
X0057800Y0007689D01*
X0057800Y0005143D01*
X0059343Y0003600D01*
X0044823Y0003600D01*
X0046200Y0004977D01*
X0046200Y0006800D01*
X0046200Y0008623D01*
X0043623Y0011200D01*
X0041800Y0011200D01*
X0041800Y0006800D01*
X0041800Y0006800D01*
X0046200Y0006800D01*
X0041800Y0006800D01*
X0041800Y0006800D01*
X0041800Y0006800D01*
X0037400Y0006800D01*
X0037400Y0008623D01*
X0039977Y0011200D01*
X0041800Y0011200D01*
X0041800Y0006800D01*
X0037400Y0006800D01*
X0037400Y0004977D01*
X0038777Y0003600D01*
X0003600Y0003600D01*
X0003600Y0062327D01*
X0003917Y0062096D01*
X0004689Y0061703D01*
X0005512Y0061435D01*
X0006367Y0061300D01*
X0006600Y0061300D01*
X0006600Y0066600D01*
X0007000Y0066600D01*
X0007000Y0067000D01*
X0012300Y0067000D01*
X0012300Y0067233D01*
X0012165Y0068088D01*
X0011897Y0068911D01*
X0011504Y0069683D01*
X0010995Y0070383D01*
X0010383Y0070995D01*
X0009683Y0071504D01*
X0008911Y0071897D01*
X0008563Y0072010D01*
X0009689Y0072476D01*
X0011124Y0073911D01*
X0011409Y0074600D01*
X0044780Y0074600D01*
X0045564Y0073816D01*
X0048036Y0073816D01*
X0049784Y0075564D01*
X0049784Y0078036D01*
X0048036Y0079784D01*
X0045564Y0079784D01*
X0044780Y0079000D01*
X0011409Y0079000D01*
X0011124Y0079689D01*
X0009689Y0081124D01*
X0008056Y0081800D01*
X0009689Y0082476D01*
X0011124Y0083911D01*
X0011900Y0085786D01*
X0011900Y0087814D01*
X0011124Y0089689D01*
X0009689Y0091124D01*
X0008056Y0091800D01*
X0009689Y0092476D01*
X0011124Y0093911D01*
X0011900Y0095786D01*
X0011900Y0097814D01*
X0011124Y0099689D01*
X0009689Y0101124D01*
X0008056Y0101800D01*
X0009689Y0102476D01*
X0011124Y0103911D01*
X0011409Y0104600D01*
X0045889Y0104600D01*
X0054600Y0095889D01*
X0055889Y0094600D01*
X0080782Y0094600D01*
X0080809Y0094534D01*
X0081934Y0093409D01*
X0083404Y0092800D01*
X0090196Y0092800D01*
X0091666Y0093409D01*
X0092791Y0094534D01*
X0093400Y0096004D01*
X0093400Y0097596D01*
X0092791Y0099066D01*
X0091666Y0100191D01*
X0090196Y0100800D01*
X0083404Y0100800D01*
X0081934Y0100191D01*
X0080809Y0099066D01*
X0080782Y0099000D01*
X0057711Y0099000D01*
X0047711Y0109000D01*
X0011409Y0109000D01*
X0011124Y0109689D01*
X0009689Y0111124D01*
X0008056Y0111800D01*
X0009689Y0112476D01*
X0011124Y0113911D01*
X0011409Y0114600D01*
X0050889Y0114600D01*
X0059600Y0105889D01*
X0060889Y0104600D01*
X0080782Y0104600D01*
X0080809Y0104534D01*
X0081934Y0103409D01*
X0083404Y0102800D01*
X0090196Y0102800D01*
X0091666Y0103409D01*
X0092791Y0104534D01*
X0093400Y0106004D01*
X0093400Y0107596D01*
X0092791Y0109066D01*
X0092257Y0109600D01*
X0094600Y0109600D01*
X0094600Y0088820D01*
X0093816Y0088036D01*
X0093816Y0085564D01*
X0095564Y0083816D01*
X0098036Y0083816D01*
X0098820Y0084600D01*
X0110782Y0084600D01*
X0110809Y0084534D01*
X0111934Y0083409D01*
X0113404Y0082800D01*
X0120196Y0082800D01*
X0121666Y0083409D01*
X0122791Y0084534D01*
X0123400Y0086004D01*
X0123400Y0087596D01*
X0122791Y0089066D01*
X0121666Y0090191D01*
X0120196Y0090800D01*
X0113404Y0090800D01*
X0111934Y0090191D01*
X0110809Y0089066D01*
X0110782Y0089000D01*
X0099000Y0089000D01*
X0099000Y0112711D01*
X0097711Y0114000D01*
X0092257Y0114000D01*
X0092791Y0114534D01*
X0093400Y0116004D01*
X0093400Y0117596D01*
X0092791Y0119066D01*
X0091666Y0120191D01*
X0090196Y0120800D01*
X0083404Y0120800D01*
X0081934Y0120191D01*
X0080809Y0119066D01*
X0080200Y0117596D01*
X0080200Y0116004D01*
X0080809Y0114534D01*
X0081343Y0114000D01*
X0073820Y0114000D01*
X0073036Y0114784D01*
X0070564Y0114784D01*
X0068816Y0113036D01*
X0068816Y0110564D01*
X0070380Y0109000D01*
X0062711Y0109000D01*
X0052711Y0119000D01*
X0011409Y0119000D01*
X0011124Y0119689D01*
X0009689Y0121124D01*
X0008056Y0121800D01*
X0009689Y0122476D01*
X0011124Y0123911D01*
X0011409Y0124600D01*
X0047711Y0124600D01*
X0049000Y0125889D01*
X0049000Y0130889D01*
X0052711Y0134600D01*
X0080782Y0134600D01*
X0080809Y0134534D01*
X0081934Y0133409D01*
X0083404Y0132800D01*
X0090196Y0132800D01*
X0091666Y0133409D01*
X0092791Y0134534D01*
X0093400Y0136004D01*
X0093400Y0137596D01*
X0092791Y0139066D01*
X0091666Y0140191D01*
X0090196Y0140800D01*
X0083404Y0140800D01*
X0081934Y0140191D01*
X0080809Y0139066D01*
X0080782Y0139000D01*
X0050889Y0139000D01*
X0049600Y0137711D01*
X0044600Y0132711D01*
X0044600Y0129000D01*
X0011409Y0129000D01*
X0011124Y0129689D01*
X0009689Y0131124D01*
X0008056Y0131800D01*
X0009689Y0132476D01*
X0011124Y0133911D01*
X0011409Y0134600D01*
X0042711Y0134600D01*
X0044000Y0135889D01*
X0044000Y0140889D01*
X0047711Y0144600D01*
X0080782Y0144600D01*
X0080809Y0144534D01*
X0081934Y0143409D01*
X0083404Y0142800D01*
X0090196Y0142800D01*
X0091666Y0143409D01*
X0092791Y0144534D01*
X0093400Y0146004D01*
X0093400Y0147596D01*
X0092791Y0149066D01*
X0092257Y0149600D01*
X0099600Y0149600D01*
X0099600Y0100889D01*
X0104600Y0095889D01*
X0105889Y0094600D01*
X0110782Y0094600D01*
X0110809Y0094534D01*
X0111934Y0093409D01*
X0113404Y0092800D01*
X0120196Y0092800D01*
X0121666Y0093409D01*
X0122791Y0094534D01*
X0123400Y0096004D01*
X0123400Y0097596D01*
X0122791Y0099066D01*
X0121666Y0100191D01*
X0120196Y0100800D01*
X0122548Y0099309D02*
X0140089Y0099309D01*
X0138816Y0097711D02*
X0123352Y0097711D01*
X0123400Y0096112D02*
X0138816Y0096112D01*
X0139866Y0094514D02*
X0122771Y0094514D01*
X0120474Y0092915D02*
X0190972Y0092915D01*
X0191877Y0091317D02*
X0099000Y0091317D01*
X0099000Y0092915D02*
X0113126Y0092915D01*
X0110829Y0094514D02*
X0099000Y0094514D01*
X0099000Y0096112D02*
X0104377Y0096112D01*
X0102778Y0097711D02*
X0099000Y0097711D01*
X0099000Y0099309D02*
X0101180Y0099309D01*
X0099600Y0100908D02*
X0099000Y0100908D01*
X0099000Y0102506D02*
X0099600Y0102506D01*
X0099600Y0104105D02*
X0099000Y0104105D01*
X0099000Y0105703D02*
X0099600Y0105703D01*
X0099600Y0107302D02*
X0099000Y0107302D01*
X0099000Y0108900D02*
X0099600Y0108900D01*
X0099600Y0110499D02*
X0099000Y0110499D01*
X0099000Y0112097D02*
X0099600Y0112097D01*
X0099600Y0113696D02*
X0098015Y0113696D01*
X0099600Y0115294D02*
X0093106Y0115294D01*
X0093400Y0116893D02*
X0099600Y0116893D01*
X0099600Y0118491D02*
X0093029Y0118491D01*
X0091767Y0120090D02*
X0099600Y0120090D01*
X0099600Y0121688D02*
X0008325Y0121688D01*
X0010499Y0123287D02*
X0082229Y0123287D01*
X0081934Y0123409D02*
X0083404Y0122800D01*
X0090196Y0122800D01*
X0091666Y0123409D01*
X0092791Y0124534D01*
X0093400Y0126004D01*
X0093400Y0127596D01*
X0092791Y0129066D01*
X0091666Y0130191D01*
X0090196Y0130800D01*
X0083404Y0130800D01*
X0081934Y0130191D01*
X0080809Y0129066D01*
X0080200Y0127596D01*
X0080200Y0126004D01*
X0080809Y0124534D01*
X0081934Y0123409D01*
X0080663Y0124885D02*
X0047997Y0124885D01*
X0049000Y0126484D02*
X0080200Y0126484D01*
X0080402Y0128082D02*
X0049000Y0128082D01*
X0049000Y0129681D02*
X0081424Y0129681D01*
X0083216Y0132878D02*
X0050989Y0132878D01*
X0049391Y0131279D02*
X0099600Y0131279D01*
X0099600Y0129681D02*
X0092176Y0129681D01*
X0093198Y0128082D02*
X0099600Y0128082D01*
X0099600Y0126484D02*
X0093400Y0126484D01*
X0092936Y0124885D02*
X0099600Y0124885D01*
X0099600Y0123287D02*
X0091371Y0123287D01*
X0090384Y0132878D02*
X0099600Y0132878D01*
X0099600Y0134476D02*
X0092733Y0134476D01*
X0093400Y0136075D02*
X0099600Y0136075D01*
X0099600Y0137673D02*
X0093368Y0137673D01*
X0092585Y0139272D02*
X0099600Y0139272D01*
X0099600Y0140870D02*
X0044000Y0140870D01*
X0044000Y0139272D02*
X0081015Y0139272D01*
X0080867Y0134476D02*
X0052588Y0134476D01*
X0051800Y0136800D02*
X0086800Y0136800D01*
X0092324Y0144068D02*
X0099600Y0144068D01*
X0099600Y0145666D02*
X0093260Y0145666D01*
X0093400Y0147265D02*
X0099600Y0147265D01*
X0099600Y0148863D02*
X0092875Y0148863D01*
X0092257Y0154000D02*
X0100889Y0154000D01*
X0102711Y0154000D01*
X0104000Y0152711D01*
X0104000Y0134784D01*
X0105536Y0134784D01*
X0106320Y0134000D01*
X0111343Y0134000D01*
X0110809Y0134534D01*
X0110200Y0136004D01*
X0110200Y0137596D01*
X0110809Y0139066D01*
X0111934Y0140191D01*
X0113404Y0140800D01*
X0120196Y0140800D01*
X0121666Y0140191D01*
X0122791Y0139066D01*
X0122818Y0139000D01*
X0189691Y0139000D01*
X0189976Y0139689D01*
X0191411Y0141124D01*
X0193044Y0141800D01*
X0191411Y0142476D01*
X0189976Y0143911D01*
X0189691Y0144600D01*
X0160889Y0144600D01*
X0159600Y0145889D01*
X0159600Y0150889D01*
X0157100Y0153389D01*
X0155889Y0154600D01*
X0154000Y0154600D01*
X0154000Y0150889D01*
X0152711Y0149600D01*
X0130223Y0149600D01*
X0131200Y0148623D01*
X0131200Y0146800D01*
X0126800Y0146800D01*
X0156800Y0146800D01*
X0159600Y0147265D02*
X0131200Y0147265D01*
X0131200Y0146800D02*
X0126800Y0146800D01*
X0126800Y0146800D01*
X0126800Y0146800D01*
X0123800Y0146800D01*
X0116800Y0146800D01*
X0116800Y0146800D01*
X0126800Y0146800D01*
X0126800Y0142400D01*
X0128623Y0142400D01*
X0131200Y0144977D01*
X0131200Y0146800D01*
X0131200Y0145666D02*
X0159823Y0145666D01*
X0161800Y0146800D02*
X0161800Y0151800D01*
X0159300Y0154300D01*
X0161800Y0156800D01*
X0159300Y0154300D02*
X0156800Y0156800D01*
X0151800Y0156800D01*
X0151800Y0151800D01*
X0106800Y0151800D01*
X0106800Y0156800D01*
X0086800Y0156800D01*
X0091804Y0160053D02*
X0111796Y0160053D01*
X0110556Y0158454D02*
X0108257Y0158454D01*
X0109000Y0156856D02*
X0110200Y0156856D01*
X0110510Y0155257D02*
X0109000Y0155257D01*
X0104600Y0154600D02*
X0104600Y0150889D01*
X0105889Y0149600D01*
X0110796Y0149600D01*
X0110437Y0149106D01*
X0110122Y0148489D01*
X0109908Y0147830D01*
X0109800Y0147146D01*
X0109800Y0146800D01*
X0116800Y0146800D01*
X0116800Y0142400D01*
X0119746Y0142400D01*
X0120430Y0142508D01*
X0121089Y0142722D01*
X0121706Y0143037D01*
X0122266Y0143444D01*
X0122756Y0143934D01*
X0123046Y0144332D01*
X0124977Y0142400D01*
X0126800Y0142400D01*
X0126800Y0146800D01*
X0126800Y0146800D01*
X0126800Y0145666D02*
X0126800Y0145666D01*
X0126800Y0144068D02*
X0126800Y0144068D01*
X0126800Y0142469D02*
X0126800Y0142469D01*
X0128692Y0142469D02*
X0191429Y0142469D01*
X0191158Y0140870D02*
X0104000Y0140870D01*
X0104000Y0139272D02*
X0111015Y0139272D01*
X0110232Y0137673D02*
X0104000Y0137673D01*
X0104000Y0136075D02*
X0110200Y0136075D01*
X0110867Y0134476D02*
X0105844Y0134476D01*
X0104300Y0131800D02*
X0186800Y0131800D01*
X0194300Y0136800D02*
X0116800Y0136800D01*
X0116800Y0142400D02*
X0113854Y0142400D01*
X0113170Y0142508D01*
X0112511Y0142722D01*
X0111894Y0143037D01*
X0111334Y0143444D01*
X0110844Y0143934D01*
X0110437Y0144494D01*
X0110122Y0145111D01*
X0109908Y0145770D01*
X0109800Y0146454D01*
X0109800Y0146800D01*
X0116800Y0146800D01*
X0116800Y0146800D01*
X0116800Y0146800D01*
X0116800Y0142400D01*
X0116800Y0142469D02*
X0116800Y0142469D01*
X0116800Y0144068D02*
X0116800Y0144068D01*
X0116800Y0145666D02*
X0116800Y0145666D01*
X0120182Y0142469D02*
X0124908Y0142469D01*
X0123310Y0144068D02*
X0122853Y0144068D01*
X0122585Y0139272D02*
X0189804Y0139272D01*
X0189912Y0144068D02*
X0130290Y0144068D01*
X0130959Y0148863D02*
X0159600Y0148863D01*
X0159600Y0150462D02*
X0153573Y0150462D01*
X0154000Y0152060D02*
X0158429Y0152060D01*
X0156830Y0153659D02*
X0154000Y0153659D01*
X0149600Y0154000D02*
X0149600Y0157711D01*
X0150889Y0159000D01*
X0157711Y0159000D01*
X0158027Y0158684D01*
X0160143Y0160800D01*
X0163457Y0160800D01*
X0165800Y0158457D01*
X0165800Y0155143D01*
X0163684Y0153027D01*
X0164000Y0152711D01*
X0164000Y0149000D01*
X0189691Y0149000D01*
X0189976Y0149689D01*
X0191411Y0151124D01*
X0193044Y0151800D01*
X0191411Y0152476D01*
X0189976Y0153911D01*
X0189691Y0154600D01*
X0185257Y0154600D01*
X0183457Y0152800D01*
X0180143Y0152800D01*
X0177800Y0155143D01*
X0177800Y0157689D01*
X0170889Y0164600D01*
X0155889Y0164600D01*
X0155856Y0164633D01*
X0153623Y0162400D01*
X0151800Y0162400D01*
X0151800Y0166800D01*
X0151800Y0166800D01*
X0151800Y0171200D01*
X0153623Y0171200D01*
X0154600Y0170223D01*
X0154600Y0173943D01*
X0153457Y0172800D01*
X0150143Y0172800D01*
X0148343Y0174600D01*
X0140889Y0174600D01*
X0139600Y0175889D01*
X0139600Y0189600D01*
X0135257Y0189600D01*
X0133457Y0187800D01*
X0130911Y0187800D01*
X0122711Y0179600D01*
X0119000Y0179600D01*
X0119000Y0160800D01*
X0120196Y0160800D01*
X0121666Y0160191D01*
X0122791Y0159066D01*
X0122972Y0158629D01*
X0125143Y0160800D01*
X0128457Y0160800D01*
X0130800Y0158457D01*
X0130800Y0155143D01*
X0129657Y0154000D01*
X0149600Y0154000D01*
X0149600Y0155257D02*
X0130800Y0155257D01*
X0130800Y0156856D02*
X0149600Y0156856D01*
X0150343Y0158454D02*
X0130800Y0158454D01*
X0129204Y0160053D02*
X0159396Y0160053D01*
X0164204Y0160053D02*
X0175436Y0160053D01*
X0173838Y0161651D02*
X0119000Y0161651D01*
X0119000Y0163250D02*
X0149128Y0163250D01*
X0149977Y0162400D02*
X0147400Y0164977D01*
X0147400Y0166800D01*
X0151800Y0166800D01*
X0151800Y0166800D01*
X0151800Y0171200D01*
X0149977Y0171200D01*
X0147400Y0168623D01*
X0147400Y0166800D01*
X0151800Y0166800D01*
X0151800Y0166800D01*
X0151800Y0162400D01*
X0149977Y0162400D01*
X0151800Y0163250D02*
X0151800Y0163250D01*
X0151800Y0164848D02*
X0151800Y0164848D01*
X0151800Y0166447D02*
X0151800Y0166447D01*
X0151800Y0168045D02*
X0151800Y0168045D01*
X0151800Y0169644D02*
X0151800Y0169644D01*
X0154600Y0171242D02*
X0119000Y0171242D01*
X0119000Y0169644D02*
X0148421Y0169644D01*
X0147400Y0168045D02*
X0119000Y0168045D01*
X0119000Y0166447D02*
X0147400Y0166447D01*
X0147529Y0164848D02*
X0119000Y0164848D01*
X0121804Y0160053D02*
X0124396Y0160053D01*
X0116800Y0156800D02*
X0116800Y0181800D01*
X0121800Y0181800D01*
X0131800Y0191800D01*
X0141800Y0191800D01*
X0141800Y0176800D01*
X0151800Y0176800D01*
X0156800Y0176800D01*
X0156800Y0166800D01*
X0171800Y0166800D01*
X0181800Y0156800D01*
X0194300Y0156800D01*
X0190340Y0160053D02*
X0184204Y0160053D01*
X0180060Y0161651D02*
X0192348Y0161651D01*
X0190081Y0163250D02*
X0178462Y0163250D01*
X0176863Y0164848D02*
X0189151Y0164848D01*
X0188800Y0166447D02*
X0175265Y0166447D01*
X0173666Y0168045D02*
X0188929Y0168045D01*
X0189576Y0169644D02*
X0159000Y0169644D01*
X0159000Y0171242D02*
X0191057Y0171242D01*
X0191047Y0172841D02*
X0159000Y0172841D01*
X0159000Y0174439D02*
X0189758Y0174439D01*
X0189200Y0176038D02*
X0159000Y0176038D01*
X0159000Y0177636D02*
X0189200Y0177636D01*
X0189788Y0179235D02*
X0155022Y0179235D01*
X0154600Y0172841D02*
X0153498Y0172841D01*
X0150102Y0172841D02*
X0119000Y0172841D01*
X0119000Y0174439D02*
X0148504Y0174439D01*
X0148578Y0179235D02*
X0144000Y0179235D01*
X0144000Y0180833D02*
X0191121Y0180833D01*
X0191519Y0182432D02*
X0177080Y0182432D01*
X0176642Y0182250D02*
X0178314Y0182943D01*
X0179594Y0184223D01*
X0180287Y0185895D01*
X0180287Y0187705D01*
X0179594Y0189377D01*
X0178314Y0190657D01*
X0176642Y0191350D01*
X0174832Y0191350D01*
X0173160Y0190657D01*
X0172012Y0189510D01*
X0171638Y0190024D01*
X0171087Y0190575D01*
X0170457Y0191033D01*
X0169763Y0191387D01*
X0169022Y0191628D01*
X0168253Y0191750D01*
X0167863Y0191750D01*
X0167473Y0191750D01*
X0166704Y0191628D01*
X0165963Y0191387D01*
X0165269Y0191033D01*
X0164639Y0190575D01*
X0164088Y0190024D01*
X0163630Y0189394D01*
X0163276Y0188700D01*
X0163035Y0187959D01*
X0162913Y0187190D01*
X0162913Y0186800D01*
X0162913Y0186410D01*
X0163035Y0185641D01*
X0163276Y0184900D01*
X0163630Y0184206D01*
X0164088Y0183576D01*
X0164639Y0183025D01*
X0165269Y0182567D01*
X0165963Y0182213D01*
X0166704Y0181972D01*
X0167473Y0181850D01*
X0167863Y0181850D01*
X0168253Y0181850D01*
X0169022Y0181972D01*
X0169763Y0182213D01*
X0170457Y0182567D01*
X0171087Y0183025D01*
X0171638Y0183576D01*
X0172012Y0184090D01*
X0173160Y0182943D01*
X0174832Y0182250D01*
X0176642Y0182250D01*
X0179401Y0184030D02*
X0189927Y0184030D01*
X0189265Y0185629D02*
X0180176Y0185629D01*
X0180287Y0187227D02*
X0189200Y0187227D01*
X0189619Y0188826D02*
X0179822Y0188826D01*
X0178547Y0190424D02*
X0190712Y0190424D01*
X0196800Y0192023D02*
X0144000Y0192023D01*
X0144000Y0190424D02*
X0164488Y0190424D01*
X0163340Y0188826D02*
X0144000Y0188826D01*
X0144000Y0187227D02*
X0162919Y0187227D01*
X0162913Y0186800D02*
X0167863Y0186800D01*
X0167863Y0186800D01*
X0167863Y0191750D01*
X0167863Y0186800D01*
X0167863Y0181850D01*
X0167863Y0186800D01*
X0167863Y0186800D01*
X0167863Y0186800D01*
X0162913Y0186800D01*
X0163039Y0185629D02*
X0144000Y0185629D01*
X0144000Y0184030D02*
X0163757Y0184030D01*
X0165534Y0182432D02*
X0144000Y0182432D01*
X0139600Y0182432D02*
X0136200Y0182432D01*
X0136200Y0181800D02*
X0136200Y0183623D01*
X0133623Y0186200D01*
X0131800Y0186200D01*
X0131800Y0181800D01*
X0131800Y0181800D01*
X0136200Y0181800D01*
X0131800Y0181800D01*
X0131800Y0181800D01*
X0131800Y0181800D01*
X0127400Y0181800D01*
X0127400Y0183623D01*
X0129977Y0186200D01*
X0131800Y0186200D01*
X0131800Y0181800D01*
X0131800Y0177400D01*
X0133623Y0177400D01*
X0136200Y0179977D01*
X0136200Y0181800D01*
X0136200Y0180833D02*
X0139600Y0180833D01*
X0139600Y0179235D02*
X0135457Y0179235D01*
X0133859Y0177636D02*
X0139600Y0177636D01*
X0139600Y0176038D02*
X0119000Y0176038D01*
X0119000Y0177636D02*
X0129741Y0177636D01*
X0129977Y0177400D02*
X0127400Y0179977D01*
X0127400Y0181800D01*
X0131800Y0181800D01*
X0131800Y0181800D01*
X0131800Y0177400D01*
X0129977Y0177400D01*
X0131800Y0177636D02*
X0131800Y0177636D01*
X0131800Y0179235D02*
X0131800Y0179235D01*
X0131800Y0180833D02*
X0131800Y0180833D01*
X0131800Y0182432D02*
X0131800Y0182432D01*
X0131800Y0184030D02*
X0131800Y0184030D01*
X0131800Y0185629D02*
X0131800Y0185629D01*
X0130339Y0187227D02*
X0139600Y0187227D01*
X0139600Y0185629D02*
X0134194Y0185629D01*
X0135792Y0184030D02*
X0139600Y0184030D01*
X0139600Y0188826D02*
X0134483Y0188826D01*
X0129406Y0185629D02*
X0128740Y0185629D01*
X0127808Y0184030D02*
X0127142Y0184030D01*
X0127400Y0182432D02*
X0125543Y0182432D01*
X0123945Y0180833D02*
X0127400Y0180833D01*
X0128143Y0179235D02*
X0119000Y0179235D01*
X0116800Y0181800D02*
X0111800Y0186800D01*
X0113832Y0190424D02*
X0127313Y0190424D01*
X0127800Y0192023D02*
X0110180Y0192023D01*
X0109767Y0190424D02*
X0108581Y0190424D01*
X0108169Y0188826D02*
X0105997Y0188826D01*
X0106200Y0187227D02*
X0107800Y0187227D01*
X0107800Y0185629D02*
X0106200Y0185629D01*
X0106200Y0186800D02*
X0101800Y0186800D01*
X0106200Y0186800D01*
X0105019Y0190424D02*
X0104398Y0190424D01*
X0103420Y0192023D02*
X0090134Y0192023D01*
X0088536Y0190424D02*
X0099202Y0190424D01*
X0099977Y0191200D02*
X0097400Y0188623D01*
X0097400Y0186800D01*
X0101800Y0186800D01*
X0101800Y0186800D01*
X0101800Y0186800D01*
X0101800Y0182400D01*
X0101800Y0186800D01*
X0101800Y0186800D01*
X0101800Y0186800D01*
X0101800Y0191200D01*
X0099977Y0191200D01*
X0101800Y0190424D02*
X0101800Y0190424D01*
X0101800Y0188826D02*
X0101800Y0188826D01*
X0101800Y0187227D02*
X0101800Y0187227D01*
X0101800Y0186800D02*
X0097400Y0186800D01*
X0097400Y0184977D01*
X0099977Y0182400D01*
X0101800Y0182432D02*
X0101800Y0182432D01*
X0101800Y0184030D02*
X0101800Y0184030D01*
X0101800Y0185629D02*
X0101800Y0185629D01*
X0098347Y0184030D02*
X0086173Y0184030D01*
X0086835Y0185629D02*
X0097400Y0185629D01*
X0097400Y0187227D02*
X0086900Y0187227D01*
X0086937Y0188826D02*
X0097603Y0188826D01*
X0103654Y0182432D02*
X0113057Y0182432D01*
X0116082Y0185629D02*
X0122518Y0185629D01*
X0124116Y0187227D02*
X0115800Y0187227D01*
X0115431Y0188826D02*
X0125715Y0188826D01*
X0127965Y0193621D02*
X0110800Y0193621D01*
X0110800Y0195220D02*
X0129563Y0195220D01*
X0134037Y0195220D02*
X0196800Y0195220D01*
X0196800Y0193621D02*
X0143090Y0193621D01*
X0120919Y0184030D02*
X0117681Y0184030D01*
X0108913Y0184030D02*
X0105253Y0184030D01*
X0106800Y0194300D02*
X0089300Y0194300D01*
X0069019Y0182432D02*
X0066812Y0182432D01*
X0066900Y0184030D02*
X0067427Y0184030D01*
X0067119Y0188826D02*
X0066900Y0188826D01*
X0066900Y0190424D02*
X0068212Y0190424D01*
X0039379Y0174251D02*
X0039379Y0174251D01*
X0039379Y0169876D01*
X0039379Y0174251D01*
X0039379Y0174251D01*
X0039379Y0172841D02*
X0039379Y0172841D01*
X0039379Y0171242D02*
X0039379Y0171242D01*
X0034654Y0183700D02*
X0029300Y0183700D01*
X0029300Y0154300D01*
X0027100Y0153659D02*
X0003600Y0153659D01*
X0003600Y0155257D02*
X0027100Y0155257D01*
X0027100Y0156856D02*
X0003600Y0156856D01*
X0003600Y0158454D02*
X0027100Y0158454D01*
X0028429Y0152060D02*
X0003600Y0152060D01*
X0003600Y0150462D02*
X0030027Y0150462D01*
X0039600Y0142469D02*
X0003600Y0142469D01*
X0003600Y0144068D02*
X0040956Y0144068D01*
X0042555Y0145666D02*
X0003600Y0145666D01*
X0003600Y0147265D02*
X0044153Y0147265D01*
X0045752Y0148863D02*
X0003600Y0148863D01*
X0003600Y0140870D02*
X0003658Y0140870D01*
X0006800Y0136800D02*
X0041800Y0136800D01*
X0041800Y0141800D01*
X0046800Y0146800D01*
X0086800Y0146800D01*
X0081276Y0144068D02*
X0047179Y0144068D01*
X0045580Y0142469D02*
X0099600Y0142469D01*
X0104000Y0142469D02*
X0113418Y0142469D01*
X0110747Y0144068D02*
X0104000Y0144068D01*
X0104000Y0145666D02*
X0109942Y0145666D01*
X0109819Y0147265D02*
X0104000Y0147265D01*
X0104000Y0148863D02*
X0110313Y0148863D01*
X0105027Y0150462D02*
X0104000Y0150462D01*
X0104000Y0152060D02*
X0104600Y0152060D01*
X0104600Y0153659D02*
X0103053Y0153659D01*
X0104600Y0154600D02*
X0092818Y0154600D01*
X0092791Y0154534D01*
X0092257Y0154000D01*
X0116800Y0126800D02*
X0194300Y0126800D01*
X0194300Y0116800D02*
X0116800Y0116800D01*
X0114614Y0112097D02*
X0143816Y0112097D01*
X0143881Y0110499D02*
X0120923Y0110499D01*
X0122860Y0108900D02*
X0129680Y0108900D01*
X0128816Y0107302D02*
X0123400Y0107302D01*
X0123275Y0105703D02*
X0128816Y0105703D01*
X0130275Y0104105D02*
X0122362Y0104105D01*
X0116800Y0106800D02*
X0106800Y0116800D01*
X0106800Y0121800D01*
X0104290Y0120090D02*
X0104000Y0120090D01*
X0104000Y0118491D02*
X0104600Y0118491D01*
X0104600Y0116893D02*
X0104000Y0116893D01*
X0104000Y0115294D02*
X0105194Y0115294D01*
X0104000Y0113696D02*
X0106793Y0113696D01*
X0108391Y0112097D02*
X0104000Y0112097D01*
X0104000Y0110499D02*
X0109990Y0110499D01*
X0110740Y0108900D02*
X0104000Y0108900D01*
X0104000Y0107302D02*
X0110200Y0107302D01*
X0110325Y0105703D02*
X0104000Y0105703D01*
X0104000Y0104105D02*
X0111238Y0104105D01*
X0111052Y0099309D02*
X0107402Y0099309D01*
X0105804Y0100908D02*
X0191195Y0100908D01*
X0191381Y0102506D02*
X0104205Y0102506D01*
X0094600Y0102506D02*
X0054205Y0102506D01*
X0055804Y0100908D02*
X0094600Y0100908D01*
X0094600Y0099309D02*
X0092548Y0099309D01*
X0093352Y0097711D02*
X0094600Y0097711D01*
X0094600Y0096112D02*
X0093400Y0096112D01*
X0092771Y0094514D02*
X0094600Y0094514D01*
X0094600Y0092915D02*
X0090474Y0092915D01*
X0090430Y0091092D02*
X0089746Y0091200D01*
X0086800Y0091200D01*
X0086800Y0086800D01*
X0086800Y0086800D01*
X0093800Y0086800D01*
X0093800Y0087146D01*
X0093692Y0087830D01*
X0093478Y0088489D01*
X0093163Y0089106D01*
X0092756Y0089666D01*
X0092266Y0090156D01*
X0091706Y0090563D01*
X0091089Y0090878D01*
X0090430Y0091092D01*
X0092704Y0089718D02*
X0094600Y0089718D01*
X0094600Y0091317D02*
X0009223Y0091317D01*
X0010128Y0092915D02*
X0083126Y0092915D01*
X0083170Y0091092D02*
X0082511Y0090878D01*
X0081894Y0090563D01*
X0081334Y0090156D01*
X0080844Y0089666D01*
X0080437Y0089106D01*
X0080122Y0088489D01*
X0079908Y0087830D01*
X0079800Y0087146D01*
X0079800Y0086800D01*
X0086800Y0086800D01*
X0086800Y0086800D01*
X0086800Y0082400D01*
X0089746Y0082400D01*
X0090430Y0082508D01*
X0091089Y0082722D01*
X0091706Y0083037D01*
X0092266Y0083444D01*
X0092756Y0083934D01*
X0093163Y0084494D01*
X0093478Y0085111D01*
X0093692Y0085770D01*
X0093800Y0086454D01*
X0093800Y0086800D01*
X0086800Y0086800D01*
X0086800Y0086800D01*
X0086800Y0086800D01*
X0086800Y0091200D01*
X0083854Y0091200D01*
X0083170Y0091092D01*
X0080896Y0089718D02*
X0011094Y0089718D01*
X0011774Y0088120D02*
X0080002Y0088120D01*
X0079800Y0086800D02*
X0079800Y0086454D01*
X0079908Y0085770D01*
X0080122Y0085111D01*
X0080437Y0084494D01*
X0080844Y0083934D01*
X0081334Y0083444D01*
X0081894Y0083037D01*
X0082511Y0082722D01*
X0083170Y0082508D01*
X0083854Y0082400D01*
X0086800Y0082400D01*
X0086800Y0086800D01*
X0079800Y0086800D01*
X0079800Y0086521D02*
X0011900Y0086521D01*
X0011543Y0084923D02*
X0080218Y0084923D01*
X0081498Y0083324D02*
X0010537Y0083324D01*
X0008236Y0081726D02*
X0057346Y0081726D01*
X0057520Y0081900D02*
X0056700Y0081080D01*
X0056700Y0072520D01*
X0057520Y0071700D01*
X0059302Y0071700D01*
X0058917Y0071504D01*
X0058217Y0070995D01*
X0057605Y0070383D01*
X0057096Y0069683D01*
X0056703Y0068911D01*
X0056435Y0068088D01*
X0056300Y0067233D01*
X0056300Y0067000D01*
X0061600Y0067000D01*
X0061600Y0066600D01*
X0056300Y0066600D01*
X0056300Y0066367D01*
X0056435Y0065512D01*
X0056703Y0064689D01*
X0057096Y0063917D01*
X0057605Y0063217D01*
X0058217Y0062605D01*
X0058917Y0062096D01*
X0059689Y0061703D01*
X0060037Y0061590D01*
X0058911Y0061124D01*
X0057476Y0059689D01*
X0056700Y0057814D01*
X0056700Y0055786D01*
X0057476Y0053911D01*
X0058638Y0052750D01*
X0055070Y0052750D01*
X0054286Y0053534D01*
X0051814Y0053534D01*
X0050066Y0051786D01*
X0050066Y0049314D01*
X0051814Y0047566D01*
X0054286Y0047566D01*
X0055070Y0048350D01*
X0062139Y0048350D01*
X0072800Y0037689D01*
X0072800Y0035143D01*
X0075143Y0032800D01*
X0078457Y0032800D01*
X0080257Y0034600D01*
X0080782Y0034600D01*
X0080809Y0034534D01*
X0081934Y0033409D01*
X0083404Y0032800D01*
X0090196Y0032800D01*
X0091666Y0033409D01*
X0092791Y0034534D01*
X0093400Y0036004D01*
X0093400Y0037596D01*
X0092791Y0039066D01*
X0091666Y0040191D01*
X0090196Y0040800D01*
X0083404Y0040800D01*
X0081934Y0040191D01*
X0080809Y0039066D01*
X0080782Y0039000D01*
X0080257Y0039000D01*
X0078457Y0040800D01*
X0075911Y0040800D01*
X0064368Y0052343D01*
X0064689Y0052476D01*
X0066124Y0053911D01*
X0066409Y0054600D01*
X0067711Y0054600D01*
X0077711Y0064600D01*
X0080782Y0064600D01*
X0080809Y0064534D01*
X0081934Y0063409D01*
X0083404Y0062800D01*
X0090196Y0062800D01*
X0091666Y0063409D01*
X0092791Y0064534D01*
X0093400Y0066004D01*
X0093400Y0067596D01*
X0092791Y0069066D01*
X0091666Y0070191D01*
X0090196Y0070800D01*
X0083404Y0070800D01*
X0081934Y0070191D01*
X0080809Y0069066D01*
X0080782Y0069000D01*
X0075889Y0069000D01*
X0074600Y0067711D01*
X0066257Y0059368D01*
X0066124Y0059689D01*
X0064689Y0061124D01*
X0063563Y0061590D01*
X0063911Y0061703D01*
X0064683Y0062096D01*
X0065383Y0062605D01*
X0065995Y0063217D01*
X0066504Y0063917D01*
X0066897Y0064689D01*
X0067165Y0065512D01*
X0067300Y0066367D01*
X0067300Y0066600D01*
X0062000Y0066600D01*
X0062000Y0067000D01*
X0067300Y0067000D01*
X0067300Y0067233D01*
X0067165Y0068088D01*
X0066897Y0068911D01*
X0066504Y0069683D01*
X0065995Y0070383D01*
X0065383Y0070995D01*
X0064683Y0071504D01*
X0064298Y0071700D01*
X0066080Y0071700D01*
X0066900Y0072520D01*
X0066900Y0074600D01*
X0080782Y0074600D01*
X0080809Y0074534D01*
X0081934Y0073409D01*
X0083404Y0072800D01*
X0090196Y0072800D01*
X0091666Y0073409D01*
X0092791Y0074534D01*
X0093400Y0076004D01*
X0093400Y0077596D01*
X0092791Y0079066D01*
X0091666Y0080191D01*
X0090196Y0080800D01*
X0083404Y0080800D01*
X0081934Y0080191D01*
X0080809Y0079066D01*
X0080782Y0079000D01*
X0066900Y0079000D01*
X0066900Y0081080D01*
X0066080Y0081900D01*
X0057520Y0081900D01*
X0056700Y0080127D02*
X0010685Y0080127D01*
X0006800Y0076800D02*
X0046800Y0076800D01*
X0049784Y0076930D02*
X0056700Y0076930D01*
X0056700Y0075332D02*
X0049552Y0075332D01*
X0049292Y0078529D02*
X0056700Y0078529D01*
X0056700Y0073733D02*
X0010945Y0073733D01*
X0008863Y0072134D02*
X0057086Y0072134D01*
X0057758Y0070536D02*
X0010842Y0070536D01*
X0011884Y0068937D02*
X0056716Y0068937D01*
X0056317Y0067339D02*
X0012283Y0067339D01*
X0012300Y0066600D02*
X0007000Y0066600D01*
X0007000Y0061300D01*
X0007233Y0061300D01*
X0008088Y0061435D01*
X0008911Y0061703D01*
X0009683Y0062096D01*
X0010383Y0062605D01*
X0010995Y0063217D01*
X0011504Y0063917D01*
X0011897Y0064689D01*
X0012165Y0065512D01*
X0012300Y0066367D01*
X0012300Y0066600D01*
X0012201Y0065740D02*
X0056399Y0065740D01*
X0056982Y0064142D02*
X0011618Y0064142D01*
X0010298Y0062543D02*
X0058302Y0062543D01*
X0058732Y0060945D02*
X0003600Y0060945D01*
X0003600Y0059346D02*
X0057335Y0059346D01*
X0056700Y0057748D02*
X0003600Y0057748D01*
X0003600Y0056149D02*
X0056700Y0056149D01*
X0057211Y0054551D02*
X0003600Y0054551D01*
X0003600Y0052952D02*
X0051232Y0052952D01*
X0050066Y0051354D02*
X0003600Y0051354D01*
X0003600Y0049755D02*
X0014098Y0049755D01*
X0015143Y0050800D02*
X0012800Y0048457D01*
X0012800Y0045143D01*
X0014600Y0043343D01*
X0014600Y0035889D01*
X0015889Y0034600D01*
X0064780Y0034600D01*
X0065564Y0033816D01*
X0068036Y0033816D01*
X0069784Y0035564D01*
X0069784Y0038036D01*
X0068036Y0039784D01*
X0065564Y0039784D01*
X0064780Y0039000D01*
X0019000Y0039000D01*
X0019000Y0043343D01*
X0020800Y0045143D01*
X0020800Y0048457D01*
X0018457Y0050800D01*
X0015143Y0050800D01*
X0012800Y0048157D02*
X0003600Y0048157D01*
X0003600Y0046558D02*
X0012800Y0046558D01*
X0012983Y0044960D02*
X0003600Y0044960D01*
X0003600Y0043361D02*
X0014582Y0043361D01*
X0014600Y0041763D02*
X0003600Y0041763D01*
X0003600Y0040164D02*
X0014600Y0040164D01*
X0014600Y0038566D02*
X0003600Y0038566D01*
X0003600Y0036967D02*
X0014600Y0036967D01*
X0015120Y0035369D02*
X0003600Y0035369D01*
X0003600Y0033770D02*
X0074173Y0033770D01*
X0072800Y0035369D02*
X0069589Y0035369D01*
X0069784Y0036967D02*
X0072800Y0036967D01*
X0071923Y0038566D02*
X0069255Y0038566D01*
X0070324Y0040164D02*
X0019000Y0040164D01*
X0019000Y0041763D02*
X0068726Y0041763D01*
X0067127Y0043361D02*
X0029018Y0043361D01*
X0028457Y0042800D02*
X0030800Y0045143D01*
X0030800Y0048457D01*
X0028457Y0050800D01*
X0025143Y0050800D01*
X0022800Y0048457D01*
X0022800Y0045143D01*
X0025143Y0042800D01*
X0028457Y0042800D01*
X0030617Y0044960D02*
X0065529Y0044960D01*
X0063930Y0046558D02*
X0030800Y0046558D01*
X0030800Y0048157D02*
X0051223Y0048157D01*
X0050066Y0049755D02*
X0029501Y0049755D01*
X0024098Y0049755D02*
X0019501Y0049755D01*
X0020800Y0048157D02*
X0022800Y0048157D01*
X0022800Y0046558D02*
X0020800Y0046558D01*
X0020617Y0044960D02*
X0022983Y0044960D01*
X0024582Y0043361D02*
X0019018Y0043361D01*
X0016800Y0046800D02*
X0016800Y0036800D01*
X0066800Y0036800D01*
X0063684Y0030573D02*
X0074351Y0030573D01*
X0074977Y0031200D02*
X0072400Y0028623D01*
X0072400Y0026800D01*
X0076800Y0026800D01*
X0076800Y0026800D01*
X0076800Y0031200D01*
X0078623Y0031200D01*
X0080794Y0029029D01*
X0080809Y0029066D01*
X0081934Y0030191D01*
X0083404Y0030800D01*
X0090196Y0030800D01*
X0091666Y0030191D01*
X0092791Y0029066D01*
X0092818Y0029000D01*
X0094600Y0029000D01*
X0094600Y0049600D01*
X0092257Y0049600D01*
X0092791Y0049066D01*
X0093400Y0047596D01*
X0093400Y0046004D01*
X0092791Y0044534D01*
X0091666Y0043409D01*
X0090196Y0042800D01*
X0083404Y0042800D01*
X0081934Y0043409D01*
X0080809Y0044534D01*
X0080200Y0046004D01*
X0080200Y0047596D01*
X0080809Y0049066D01*
X0081343Y0049600D01*
X0073820Y0049600D01*
X0073036Y0048816D01*
X0070564Y0048816D01*
X0068816Y0050564D01*
X0068816Y0053036D01*
X0070564Y0054784D01*
X0073036Y0054784D01*
X0073820Y0054000D01*
X0081343Y0054000D01*
X0080809Y0054534D01*
X0080200Y0056004D01*
X0080200Y0057596D01*
X0080809Y0059066D01*
X0081934Y0060191D01*
X0083404Y0060800D01*
X0090196Y0060800D01*
X0091666Y0060191D01*
X0092791Y0059066D01*
X0093400Y0057596D01*
X0093400Y0056004D01*
X0092791Y0054534D01*
X0092257Y0054000D01*
X0097711Y0054000D01*
X0099000Y0052711D01*
X0099000Y0025889D01*
X0097711Y0024600D01*
X0092818Y0024600D01*
X0092791Y0024534D01*
X0091666Y0023409D01*
X0090196Y0022800D01*
X0083404Y0022800D01*
X0081934Y0023409D01*
X0080809Y0024534D01*
X0080794Y0024571D01*
X0078623Y0022400D01*
X0076800Y0022400D01*
X0076800Y0026800D01*
X0076800Y0026800D01*
X0076800Y0026800D01*
X0076800Y0031200D01*
X0074977Y0031200D01*
X0076800Y0030573D02*
X0076800Y0030573D01*
X0076800Y0028975D02*
X0076800Y0028975D01*
X0076800Y0027376D02*
X0076800Y0027376D01*
X0076800Y0026800D02*
X0072400Y0026800D01*
X0072400Y0024977D01*
X0074977Y0022400D01*
X0076800Y0022400D01*
X0076800Y0026800D01*
X0076800Y0025778D02*
X0076800Y0025778D01*
X0076800Y0024179D02*
X0076800Y0024179D01*
X0076800Y0022581D02*
X0076800Y0022581D01*
X0078803Y0022581D02*
X0144600Y0022581D01*
X0144600Y0024179D02*
X0122436Y0024179D01*
X0122791Y0024534D02*
X0123400Y0026004D01*
X0123400Y0027596D01*
X0122791Y0029066D01*
X0121666Y0030191D01*
X0120196Y0030800D01*
X0113404Y0030800D01*
X0111934Y0030191D01*
X0110809Y0029066D01*
X0110200Y0027596D01*
X0110200Y0026004D01*
X0110809Y0024534D01*
X0111934Y0023409D01*
X0113404Y0022800D01*
X0120196Y0022800D01*
X0121666Y0023409D01*
X0122791Y0024534D01*
X0123306Y0025778D02*
X0144600Y0025778D01*
X0144600Y0027376D02*
X0123400Y0027376D01*
X0122829Y0028975D02*
X0144600Y0028975D01*
X0144600Y0030573D02*
X0120743Y0030573D01*
X0120196Y0032800D02*
X0121666Y0033409D01*
X0122791Y0034534D01*
X0122818Y0034600D01*
X0149780Y0034600D01*
X0150380Y0034000D01*
X0145889Y0034000D01*
X0144600Y0032711D01*
X0144600Y0020257D01*
X0142800Y0018457D01*
X0142800Y0015143D01*
X0145143Y0012800D01*
X0148457Y0012800D01*
X0150800Y0015143D01*
X0150800Y0018457D01*
X0149000Y0020257D01*
X0149000Y0029600D01*
X0170889Y0029600D01*
X0174600Y0025889D01*
X0174600Y0019000D01*
X0170257Y0019000D01*
X0168457Y0020800D01*
X0165143Y0020800D01*
X0162800Y0018457D01*
X0162800Y0015143D01*
X0165143Y0012800D01*
X0168457Y0012800D01*
X0170257Y0014600D01*
X0177711Y0014600D01*
X0179000Y0015889D01*
X0179000Y0027711D01*
X0177711Y0029000D01*
X0172711Y0034000D01*
X0153220Y0034000D01*
X0154784Y0035564D01*
X0154784Y0038036D01*
X0153036Y0039784D01*
X0150564Y0039784D01*
X0149780Y0039000D01*
X0122818Y0039000D01*
X0122791Y0039066D01*
X0121666Y0040191D01*
X0120196Y0040800D01*
X0113404Y0040800D01*
X0111934Y0040191D01*
X0110809Y0039066D01*
X0110200Y0037596D01*
X0110200Y0036004D01*
X0110809Y0034534D01*
X0111934Y0033409D01*
X0113404Y0032800D01*
X0120196Y0032800D01*
X0122027Y0033770D02*
X0145659Y0033770D01*
X0144600Y0032172D02*
X0099000Y0032172D01*
X0099000Y0033770D02*
X0111573Y0033770D01*
X0110463Y0035369D02*
X0099000Y0035369D01*
X0099000Y0036967D02*
X0110200Y0036967D01*
X0110602Y0038566D02*
X0099000Y0038566D01*
X0099000Y0040164D02*
X0111907Y0040164D01*
X0113404Y0042800D02*
X0111934Y0043409D01*
X0110809Y0044534D01*
X0110200Y0046004D01*
X0110200Y0047596D01*
X0110809Y0049066D01*
X0111934Y0050191D01*
X0113404Y0050800D01*
X0120196Y0050800D01*
X0121666Y0050191D01*
X0122791Y0049066D01*
X0122818Y0049000D01*
X0139780Y0049000D01*
X0140564Y0049784D01*
X0143036Y0049784D01*
X0144784Y0048036D01*
X0144784Y0045564D01*
X0143036Y0043816D01*
X0140564Y0043816D01*
X0139780Y0044600D01*
X0122818Y0044600D01*
X0122791Y0044534D01*
X0121666Y0043409D01*
X0120196Y0042800D01*
X0113404Y0042800D01*
X0112049Y0043361D02*
X0099000Y0043361D01*
X0099000Y0041763D02*
X0196800Y0041763D01*
X0196800Y0043361D02*
X0121551Y0043361D01*
X0121693Y0040164D02*
X0196800Y0040164D01*
X0196800Y0038566D02*
X0154255Y0038566D01*
X0154784Y0036967D02*
X0196800Y0036967D01*
X0196800Y0035369D02*
X0154589Y0035369D01*
X0151800Y0036800D02*
X0116800Y0036800D01*
X0112857Y0030573D02*
X0099000Y0030573D01*
X0099000Y0028975D02*
X0110771Y0028975D01*
X0110200Y0027376D02*
X0099000Y0027376D01*
X0098889Y0025778D02*
X0110294Y0025778D01*
X0111164Y0024179D02*
X0092436Y0024179D01*
X0091800Y0026800D02*
X0096800Y0026800D01*
X0096800Y0051800D01*
X0071800Y0051800D01*
X0069624Y0049755D02*
X0066956Y0049755D01*
X0068554Y0048157D02*
X0080432Y0048157D01*
X0080200Y0046558D02*
X0070153Y0046558D01*
X0071751Y0044960D02*
X0080633Y0044960D01*
X0082049Y0043361D02*
X0073350Y0043361D01*
X0074948Y0041763D02*
X0094600Y0041763D01*
X0094600Y0043361D02*
X0091551Y0043361D01*
X0092967Y0044960D02*
X0094600Y0044960D01*
X0094600Y0046558D02*
X0093400Y0046558D01*
X0093168Y0048157D02*
X0094600Y0048157D01*
X0099000Y0048157D02*
X0110432Y0048157D01*
X0110200Y0046558D02*
X0099000Y0046558D01*
X0099000Y0044960D02*
X0110633Y0044960D01*
X0111498Y0049755D02*
X0099000Y0049755D01*
X0099000Y0051354D02*
X0196800Y0051354D01*
X0196800Y0052952D02*
X0120563Y0052952D01*
X0120196Y0052800D02*
X0121666Y0053409D01*
X0122791Y0054534D01*
X0122818Y0054600D01*
X0129780Y0054600D01*
X0130564Y0053816D01*
X0133036Y0053816D01*
X0134784Y0055564D01*
X0134784Y0058036D01*
X0133036Y0059784D01*
X0130564Y0059784D01*
X0129780Y0059000D01*
X0122818Y0059000D01*
X0122791Y0059066D01*
X0121666Y0060191D01*
X0120196Y0060800D01*
X0113404Y0060800D01*
X0111934Y0060191D01*
X0110809Y0059066D01*
X0110200Y0057596D01*
X0110200Y0056004D01*
X0110809Y0054534D01*
X0111934Y0053409D01*
X0113404Y0052800D01*
X0120196Y0052800D01*
X0116800Y0056800D02*
X0131800Y0056800D01*
X0133771Y0054551D02*
X0196800Y0054551D01*
X0196800Y0056149D02*
X0134784Y0056149D01*
X0134784Y0057748D02*
X0196800Y0057748D01*
X0196800Y0059346D02*
X0133474Y0059346D01*
X0130126Y0059346D02*
X0122510Y0059346D01*
X0121089Y0062722D02*
X0121706Y0063037D01*
X0122266Y0063444D01*
X0122756Y0063934D01*
X0123046Y0064332D01*
X0124977Y0062400D01*
X0126800Y0062400D01*
X0128623Y0062400D01*
X0131200Y0064977D01*
X0131200Y0066800D01*
X0131200Y0068623D01*
X0128623Y0071200D01*
X0126800Y0071200D01*
X0126800Y0066800D01*
X0126800Y0066800D01*
X0131200Y0066800D01*
X0126800Y0066800D01*
X0126800Y0066800D01*
X0126800Y0071200D01*
X0124977Y0071200D01*
X0123046Y0069268D01*
X0122756Y0069666D01*
X0122266Y0070156D01*
X0121706Y0070563D01*
X0121089Y0070878D01*
X0120430Y0071092D01*
X0119746Y0071200D01*
X0116800Y0071200D01*
X0116800Y0066800D01*
X0116800Y0066800D01*
X0122400Y0066800D01*
X0126800Y0066800D01*
X0126800Y0062400D01*
X0126800Y0066800D01*
X0126800Y0066800D01*
X0126800Y0066800D01*
X0116800Y0066800D01*
X0116800Y0066800D01*
X0116800Y0071200D01*
X0113854Y0071200D01*
X0113170Y0071092D01*
X0112511Y0070878D01*
X0111894Y0070563D01*
X0111334Y0070156D01*
X0110844Y0069666D01*
X0110437Y0069106D01*
X0110122Y0068489D01*
X0109908Y0067830D01*
X0109800Y0067146D01*
X0109800Y0066800D01*
X0116800Y0066800D01*
X0116800Y0062400D01*
X0119746Y0062400D01*
X0120430Y0062508D01*
X0121089Y0062722D01*
X0120538Y0062543D02*
X0124834Y0062543D01*
X0126800Y0062543D02*
X0126800Y0062543D01*
X0126800Y0064142D02*
X0126800Y0064142D01*
X0126800Y0065740D02*
X0126800Y0065740D01*
X0126800Y0067339D02*
X0126800Y0067339D01*
X0126800Y0068937D02*
X0126800Y0068937D01*
X0126800Y0070536D02*
X0126800Y0070536D01*
X0129287Y0070536D02*
X0190258Y0070536D01*
X0189216Y0068937D02*
X0130885Y0068937D01*
X0131200Y0067339D02*
X0188817Y0067339D01*
X0188800Y0066600D02*
X0188800Y0066367D01*
X0188935Y0065512D01*
X0189203Y0064689D01*
X0189596Y0063917D01*
X0190105Y0063217D01*
X0190717Y0062605D01*
X0191417Y0062096D01*
X0192189Y0061703D01*
X0193012Y0061435D01*
X0193867Y0061300D01*
X0194100Y0061300D01*
X0194100Y0066600D01*
X0188800Y0066600D01*
X0188899Y0065740D02*
X0131200Y0065740D01*
X0130364Y0064142D02*
X0189482Y0064142D01*
X0190802Y0062543D02*
X0128766Y0062543D01*
X0123236Y0064142D02*
X0122907Y0064142D01*
X0116800Y0064142D02*
X0116800Y0064142D01*
X0116800Y0065740D02*
X0116800Y0065740D01*
X0116800Y0066800D02*
X0116800Y0066800D01*
X0116800Y0066800D01*
X0116800Y0062400D01*
X0113854Y0062400D01*
X0113170Y0062508D01*
X0112511Y0062722D01*
X0111894Y0063037D01*
X0111334Y0063444D01*
X0110844Y0063934D01*
X0110437Y0064494D01*
X0110122Y0065111D01*
X0109908Y0065770D01*
X0109800Y0066454D01*
X0109800Y0066800D01*
X0116800Y0066800D01*
X0116800Y0067339D02*
X0116800Y0067339D01*
X0116800Y0068937D02*
X0116800Y0068937D01*
X0116800Y0070536D02*
X0116800Y0070536D01*
X0120196Y0072800D02*
X0121666Y0073409D01*
X0122791Y0074534D01*
X0122818Y0074600D01*
X0123343Y0074600D01*
X0125143Y0072800D01*
X0128457Y0072800D01*
X0130800Y0075143D01*
X0130800Y0078457D01*
X0128457Y0080800D01*
X0125143Y0080800D01*
X0123343Y0079000D01*
X0122818Y0079000D01*
X0122791Y0079066D01*
X0121666Y0080191D01*
X0120196Y0080800D01*
X0113404Y0080800D01*
X0111934Y0080191D01*
X0110809Y0079066D01*
X0110200Y0077596D01*
X0110200Y0076004D01*
X0110809Y0074534D01*
X0111934Y0073409D01*
X0113404Y0072800D01*
X0120196Y0072800D01*
X0121990Y0073733D02*
X0124210Y0073733D01*
X0124313Y0070536D02*
X0121744Y0070536D01*
X0116800Y0076800D02*
X0126800Y0076800D01*
X0129390Y0073733D02*
X0190154Y0073733D01*
X0192237Y0072134D02*
X0066514Y0072134D01*
X0066900Y0073733D02*
X0081610Y0073733D01*
X0082767Y0070536D02*
X0065842Y0070536D01*
X0066884Y0068937D02*
X0075826Y0068937D01*
X0074228Y0067339D02*
X0067283Y0067339D01*
X0067201Y0065740D02*
X0072629Y0065740D01*
X0071031Y0064142D02*
X0066618Y0064142D01*
X0065298Y0062543D02*
X0069432Y0062543D01*
X0067834Y0060945D02*
X0064868Y0060945D01*
X0066800Y0056800D02*
X0061800Y0056800D01*
X0058435Y0052952D02*
X0054868Y0052952D01*
X0053050Y0050550D02*
X0063050Y0050550D01*
X0076800Y0036800D01*
X0086800Y0036800D01*
X0091693Y0040164D02*
X0094600Y0040164D01*
X0094600Y0038566D02*
X0092998Y0038566D01*
X0093400Y0036967D02*
X0094600Y0036967D01*
X0094600Y0035369D02*
X0093137Y0035369D01*
X0092027Y0033770D02*
X0094600Y0033770D01*
X0094600Y0032172D02*
X0003600Y0032172D01*
X0003600Y0030573D02*
X0009636Y0030573D01*
X0008416Y0028975D02*
X0003600Y0028975D01*
X0003600Y0027376D02*
X0007943Y0027376D01*
X0007913Y0026800D02*
X0012863Y0026800D01*
X0012863Y0026800D01*
X0012863Y0031750D01*
X0012863Y0026800D01*
X0012863Y0021850D01*
X0012863Y0026800D01*
X0012863Y0026800D01*
X0012863Y0026800D01*
X0007913Y0026800D01*
X0008014Y0025778D02*
X0003600Y0025778D01*
X0003600Y0024179D02*
X0008649Y0024179D01*
X0010250Y0022581D02*
X0003600Y0022581D01*
X0003600Y0020982D02*
X0029507Y0020982D01*
X0031105Y0019384D02*
X0003600Y0019384D01*
X0003600Y0017785D02*
X0032704Y0017785D01*
X0034302Y0016187D02*
X0003600Y0016187D01*
X0003600Y0014588D02*
X0050901Y0014588D01*
X0052499Y0012990D02*
X0003600Y0012990D01*
X0003600Y0011391D02*
X0054098Y0011391D01*
X0055696Y0009793D02*
X0045030Y0009793D01*
X0046200Y0008194D02*
X0057295Y0008194D01*
X0057800Y0006596D02*
X0046200Y0006596D01*
X0046200Y0004997D02*
X0057946Y0004997D01*
X0061800Y0006800D02*
X0051800Y0016800D01*
X0051800Y0026800D01*
X0061800Y0026800D01*
X0064836Y0024179D02*
X0073198Y0024179D01*
X0072400Y0025778D02*
X0065800Y0025778D01*
X0065800Y0027376D02*
X0072400Y0027376D01*
X0072752Y0028975D02*
X0065282Y0028975D01*
X0059916Y0030573D02*
X0043684Y0030573D01*
X0043457Y0030800D02*
X0040143Y0030800D01*
X0037800Y0028457D01*
X0037800Y0025143D01*
X0040143Y0022800D01*
X0043457Y0022800D01*
X0045800Y0025143D01*
X0045800Y0028457D01*
X0043457Y0030800D01*
X0045282Y0028975D02*
X0050863Y0028975D01*
X0049600Y0027376D02*
X0045800Y0027376D01*
X0045800Y0025778D02*
X0049600Y0025778D01*
X0049600Y0024179D02*
X0044836Y0024179D01*
X0049600Y0022581D02*
X0034131Y0022581D01*
X0035729Y0020982D02*
X0049600Y0020982D01*
X0049600Y0019384D02*
X0037328Y0019384D01*
X0036800Y0016800D02*
X0051800Y0016800D01*
X0054000Y0017785D02*
X0122400Y0017785D01*
X0122400Y0018623D02*
X0122400Y0016800D01*
X0126800Y0016800D01*
X0131200Y0016800D01*
X0131200Y0018623D01*
X0128623Y0021200D01*
X0126800Y0021200D01*
X0126800Y0016800D01*
X0126800Y0016800D01*
X0126800Y0016800D01*
X0131200Y0016800D01*
X0131200Y0014977D01*
X0128623Y0012400D01*
X0126800Y0012400D01*
X0126800Y0016800D01*
X0126800Y0016800D01*
X0126800Y0016800D01*
X0126800Y0021200D01*
X0124977Y0021200D01*
X0122400Y0018623D01*
X0123161Y0019384D02*
X0054000Y0019384D01*
X0054000Y0020982D02*
X0124760Y0020982D01*
X0126800Y0020982D02*
X0126800Y0020982D01*
X0126800Y0019384D02*
X0126800Y0019384D01*
X0126800Y0017785D02*
X0126800Y0017785D01*
X0126800Y0016800D02*
X0122400Y0016800D01*
X0122400Y0014977D01*
X0124977Y0012400D01*
X0126800Y0012400D01*
X0126800Y0016800D01*
X0126800Y0016187D02*
X0126800Y0016187D01*
X0126800Y0014588D02*
X0126800Y0014588D01*
X0126800Y0012990D02*
X0126800Y0012990D01*
X0129212Y0012990D02*
X0144954Y0012990D01*
X0143355Y0014588D02*
X0130811Y0014588D01*
X0131200Y0016187D02*
X0142800Y0016187D01*
X0142800Y0017785D02*
X0131200Y0017785D01*
X0130439Y0019384D02*
X0143727Y0019384D01*
X0144600Y0020982D02*
X0128840Y0020982D01*
X0122789Y0014588D02*
X0057123Y0014588D01*
X0055525Y0016187D02*
X0122400Y0016187D01*
X0124388Y0012990D02*
X0058722Y0012990D01*
X0060320Y0011391D02*
X0196800Y0011391D01*
X0196800Y0009793D02*
X0064464Y0009793D01*
X0065800Y0008194D02*
X0196800Y0008194D01*
X0196800Y0006596D02*
X0065800Y0006596D01*
X0065654Y0004997D02*
X0196800Y0004997D01*
X0196800Y0012990D02*
X0168646Y0012990D01*
X0170245Y0014588D02*
X0196800Y0014588D01*
X0196800Y0016187D02*
X0179000Y0016187D01*
X0179000Y0017785D02*
X0196800Y0017785D01*
X0196800Y0019384D02*
X0179000Y0019384D01*
X0179000Y0020982D02*
X0196800Y0020982D01*
X0196800Y0022581D02*
X0179000Y0022581D01*
X0179000Y0024179D02*
X0196800Y0024179D01*
X0196800Y0025778D02*
X0179000Y0025778D01*
X0179000Y0027376D02*
X0196800Y0027376D01*
X0196800Y0028975D02*
X0177737Y0028975D01*
X0176138Y0030573D02*
X0196800Y0030573D01*
X0196800Y0032172D02*
X0174540Y0032172D01*
X0172941Y0033770D02*
X0196800Y0033770D01*
X0196800Y0044960D02*
X0144180Y0044960D01*
X0144784Y0046558D02*
X0196800Y0046558D01*
X0196800Y0048157D02*
X0144664Y0048157D01*
X0143065Y0049755D02*
X0196800Y0049755D01*
X0196800Y0060945D02*
X0074056Y0060945D01*
X0072458Y0059346D02*
X0081090Y0059346D01*
X0080263Y0057748D02*
X0070859Y0057748D01*
X0069261Y0056149D02*
X0080200Y0056149D01*
X0080802Y0054551D02*
X0073269Y0054551D01*
X0070331Y0054551D02*
X0066389Y0054551D01*
X0065165Y0052952D02*
X0068816Y0052952D01*
X0068816Y0051354D02*
X0065357Y0051354D01*
X0062332Y0048157D02*
X0054877Y0048157D01*
X0066800Y0056800D02*
X0076800Y0066800D01*
X0086800Y0066800D01*
X0090833Y0070536D02*
X0111856Y0070536D01*
X0110351Y0068937D02*
X0092844Y0068937D01*
X0093400Y0067339D02*
X0109831Y0067339D01*
X0109918Y0065740D02*
X0093291Y0065740D01*
X0092399Y0064142D02*
X0110692Y0064142D01*
X0113062Y0062543D02*
X0075655Y0062543D01*
X0077253Y0064142D02*
X0081201Y0064142D01*
X0091990Y0073733D02*
X0111610Y0073733D01*
X0110479Y0075332D02*
X0093121Y0075332D01*
X0093400Y0076930D02*
X0110200Y0076930D01*
X0110586Y0078529D02*
X0093014Y0078529D01*
X0091730Y0080127D02*
X0111870Y0080127D01*
X0112139Y0083324D02*
X0092102Y0083324D01*
X0093382Y0084923D02*
X0094457Y0084923D01*
X0093816Y0086521D02*
X0093800Y0086521D01*
X0093899Y0088120D02*
X0093598Y0088120D01*
X0096800Y0086800D02*
X0096800Y0111800D01*
X0071800Y0111800D01*
X0068816Y0112097D02*
X0059614Y0112097D01*
X0061212Y0110499D02*
X0068881Y0110499D01*
X0069475Y0113696D02*
X0058015Y0113696D01*
X0056417Y0115294D02*
X0080494Y0115294D01*
X0080200Y0116893D02*
X0054818Y0116893D01*
X0053220Y0118491D02*
X0080571Y0118491D01*
X0081833Y0120090D02*
X0010723Y0120090D01*
X0006800Y0116800D02*
X0051800Y0116800D01*
X0061800Y0106800D01*
X0086800Y0106800D01*
X0092362Y0104105D02*
X0094600Y0104105D01*
X0094600Y0105703D02*
X0093275Y0105703D01*
X0093400Y0107302D02*
X0094600Y0107302D01*
X0094600Y0108900D02*
X0092860Y0108900D01*
X0081238Y0104105D02*
X0052607Y0104105D01*
X0051008Y0105703D02*
X0059785Y0105703D01*
X0058187Y0107302D02*
X0049410Y0107302D01*
X0047811Y0108900D02*
X0056588Y0108900D01*
X0054990Y0110499D02*
X0010314Y0110499D01*
X0008774Y0112097D02*
X0053391Y0112097D01*
X0051793Y0113696D02*
X0010908Y0113696D01*
X0006800Y0106800D02*
X0046800Y0106800D01*
X0056800Y0096800D01*
X0086800Y0096800D01*
X0081052Y0099309D02*
X0057402Y0099309D01*
X0054377Y0096112D02*
X0011900Y0096112D01*
X0011900Y0097711D02*
X0052778Y0097711D01*
X0051180Y0099309D02*
X0011281Y0099309D01*
X0009905Y0100908D02*
X0049581Y0100908D01*
X0047983Y0102506D02*
X0009719Y0102506D01*
X0011204Y0104105D02*
X0046384Y0104105D01*
X0046800Y0126800D02*
X0046800Y0131800D01*
X0051800Y0136800D01*
X0049562Y0137673D02*
X0044000Y0137673D01*
X0044000Y0136075D02*
X0047964Y0136075D01*
X0046365Y0134476D02*
X0011358Y0134476D01*
X0010090Y0132878D02*
X0044767Y0132878D01*
X0044600Y0131279D02*
X0009313Y0131279D01*
X0011127Y0129681D02*
X0044600Y0129681D01*
X0046800Y0126800D02*
X0006800Y0126800D01*
X0011296Y0139272D02*
X0039600Y0139272D01*
X0039600Y0140870D02*
X0009942Y0140870D01*
X0011373Y0094514D02*
X0080829Y0094514D01*
X0086800Y0089718D02*
X0086800Y0089718D01*
X0086800Y0088120D02*
X0086800Y0088120D01*
X0086800Y0086521D02*
X0086800Y0086521D01*
X0086800Y0084923D02*
X0086800Y0084923D01*
X0086800Y0083324D02*
X0086800Y0083324D01*
X0081870Y0080127D02*
X0066900Y0080127D01*
X0066254Y0081726D02*
X0192864Y0081726D01*
X0190563Y0083324D02*
X0121461Y0083324D01*
X0122952Y0084923D02*
X0189557Y0084923D01*
X0189200Y0086521D02*
X0123400Y0086521D01*
X0123183Y0088120D02*
X0189326Y0088120D01*
X0190006Y0089718D02*
X0122139Y0089718D01*
X0116800Y0086800D02*
X0096800Y0086800D01*
X0099000Y0089718D02*
X0111461Y0089718D01*
X0121730Y0080127D02*
X0124470Y0080127D01*
X0129130Y0080127D02*
X0190415Y0080127D01*
X0194300Y0076800D02*
X0151800Y0076800D01*
X0148816Y0076930D02*
X0130800Y0076930D01*
X0130800Y0075332D02*
X0149048Y0075332D01*
X0149308Y0078529D02*
X0130728Y0078529D01*
X0143734Y0094514D02*
X0189727Y0094514D01*
X0189819Y0099309D02*
X0143511Y0099309D01*
X0141800Y0096800D02*
X0194300Y0096800D01*
X0189896Y0104105D02*
X0133325Y0104105D01*
X0131800Y0106800D02*
X0194300Y0106800D01*
X0156800Y0111800D02*
X0146800Y0111800D01*
X0144475Y0113696D02*
X0121953Y0113696D01*
X0086800Y0076800D02*
X0061800Y0076800D01*
X0092510Y0059346D02*
X0111090Y0059346D01*
X0110263Y0057748D02*
X0093337Y0057748D01*
X0093400Y0056149D02*
X0110200Y0056149D01*
X0110802Y0054551D02*
X0092798Y0054551D01*
X0098759Y0052952D02*
X0113037Y0052952D01*
X0116800Y0046800D02*
X0141800Y0046800D01*
X0140535Y0049755D02*
X0122102Y0049755D01*
X0122798Y0054551D02*
X0129829Y0054551D01*
X0116800Y0062543D02*
X0116800Y0062543D01*
X0094600Y0030573D02*
X0090743Y0030573D01*
X0082857Y0030573D02*
X0079249Y0030573D01*
X0079427Y0033770D02*
X0081573Y0033770D01*
X0081907Y0040164D02*
X0079093Y0040164D01*
X0080402Y0024179D02*
X0081164Y0024179D01*
X0074797Y0022581D02*
X0054000Y0022581D01*
X0054000Y0024179D02*
X0058764Y0024179D01*
X0041800Y0009793D02*
X0041800Y0009793D01*
X0041800Y0008194D02*
X0041800Y0008194D01*
X0038570Y0009793D02*
X0003600Y0009793D01*
X0003600Y0008194D02*
X0037400Y0008194D01*
X0037400Y0006596D02*
X0003600Y0006596D01*
X0003600Y0004997D02*
X0037400Y0004997D01*
X0036800Y0016800D02*
X0026800Y0026800D01*
X0020737Y0026800D01*
X0019035Y0022581D02*
X0015476Y0022581D01*
X0012863Y0022581D02*
X0012863Y0022581D01*
X0012863Y0024179D02*
X0012863Y0024179D01*
X0012863Y0025778D02*
X0012863Y0025778D01*
X0012863Y0027376D02*
X0012863Y0027376D01*
X0012863Y0028975D02*
X0012863Y0028975D01*
X0012863Y0030573D02*
X0012863Y0030573D01*
X0016090Y0030573D02*
X0018076Y0030573D01*
X0023398Y0030573D02*
X0039916Y0030573D01*
X0038318Y0028975D02*
X0027737Y0028975D01*
X0029335Y0027376D02*
X0037800Y0027376D01*
X0037800Y0025778D02*
X0030934Y0025778D01*
X0032532Y0024179D02*
X0038764Y0024179D01*
X0027908Y0022581D02*
X0022439Y0022581D01*
X0024550Y0024179D02*
X0026310Y0024179D01*
X0007000Y0062543D02*
X0006600Y0062543D01*
X0006600Y0064142D02*
X0007000Y0064142D01*
X0007000Y0065740D02*
X0006600Y0065740D01*
X0003600Y0188826D02*
X0015694Y0188826D01*
X0013882Y0190424D02*
X0003600Y0190424D01*
X0003600Y0192023D02*
X0012912Y0192023D01*
X0012290Y0193621D02*
X0003600Y0193621D01*
X0003600Y0195220D02*
X0012290Y0195220D01*
X0154472Y0163250D02*
X0172239Y0163250D01*
X0177035Y0158454D02*
X0165800Y0158454D01*
X0165800Y0156856D02*
X0177800Y0156856D01*
X0177800Y0155257D02*
X0165800Y0155257D01*
X0164315Y0153659D02*
X0179285Y0153659D01*
X0184315Y0153659D02*
X0190229Y0153659D01*
X0192416Y0152060D02*
X0164000Y0152060D01*
X0164000Y0150462D02*
X0190749Y0150462D01*
X0194300Y0146800D02*
X0161800Y0146800D01*
X0167863Y0182432D02*
X0167863Y0182432D01*
X0167863Y0184030D02*
X0167863Y0184030D01*
X0167863Y0185629D02*
X0167863Y0185629D01*
X0167863Y0187227D02*
X0167863Y0187227D01*
X0167863Y0188826D02*
X0167863Y0188826D01*
X0167863Y0190424D02*
X0167863Y0190424D01*
X0171238Y0190424D02*
X0172927Y0190424D01*
X0172073Y0184030D02*
X0171969Y0184030D01*
X0170192Y0182432D02*
X0174394Y0182432D01*
X0194100Y0065740D02*
X0194500Y0065740D01*
X0194500Y0064142D02*
X0194100Y0064142D01*
X0194100Y0062543D02*
X0194500Y0062543D01*
X0171800Y0031800D02*
X0176800Y0026800D01*
X0176800Y0016800D01*
X0166800Y0016800D01*
X0169873Y0019384D02*
X0174600Y0019384D01*
X0174600Y0020982D02*
X0149000Y0020982D01*
X0149000Y0022581D02*
X0174600Y0022581D01*
X0174600Y0024179D02*
X0149000Y0024179D01*
X0149000Y0025778D02*
X0174600Y0025778D01*
X0173113Y0027376D02*
X0149000Y0027376D01*
X0149000Y0028975D02*
X0171514Y0028975D01*
X0171800Y0031800D02*
X0146800Y0031800D01*
X0146800Y0016800D01*
X0149873Y0019384D02*
X0153727Y0019384D01*
X0152800Y0018457D02*
X0152800Y0015143D01*
X0155143Y0012800D01*
X0158457Y0012800D01*
X0160800Y0015143D01*
X0160800Y0018457D01*
X0158457Y0020800D01*
X0155143Y0020800D01*
X0152800Y0018457D01*
X0152800Y0017785D02*
X0150800Y0017785D01*
X0150800Y0016187D02*
X0152800Y0016187D01*
X0153355Y0014588D02*
X0150245Y0014588D01*
X0148646Y0012990D02*
X0154954Y0012990D01*
X0158646Y0012990D02*
X0164954Y0012990D01*
X0163355Y0014588D02*
X0160245Y0014588D01*
X0160800Y0016187D02*
X0162800Y0016187D01*
X0162800Y0017785D02*
X0160800Y0017785D01*
X0159873Y0019384D02*
X0163727Y0019384D01*
D19*
X0151800Y0036800D03*
X0141800Y0046800D03*
X0131800Y0056800D03*
X0151800Y0076800D03*
X0141800Y0096800D03*
X0131800Y0106800D03*
X0146800Y0111800D03*
X0156800Y0111800D03*
X0141800Y0131800D03*
X0156800Y0146800D03*
X0186800Y0131800D03*
X0111800Y0176800D03*
X0104300Y0131800D03*
X0106800Y0121800D03*
X0096800Y0086800D03*
X0071800Y0111800D03*
X0046800Y0076800D03*
X0071800Y0051800D03*
X0066800Y0036800D03*
X0053050Y0050550D03*
M02*
