G75*
%MOIN*%
%OFA0B0*%
%FSLAX25Y25*%
%IPPOS*%
%LPD*%
%AMOC8*
5,1,8,0,0,1.08239X$1,22.5*
%
%ADD10C,0.00000*%
%ADD11OC8,0.05200*%
%ADD12C,0.06299*%
%ADD13C,0.07400*%
%ADD14C,0.05200*%
%ADD15R,0.07400X0.07400*%
%ADD16C,0.05150*%
%ADD17C,0.11220*%
%ADD18C,0.01600*%
%ADD19OC8,0.03169*%
D10*
X0001800Y0001800D02*
X0001800Y0198650D01*
X0198650Y0198650D01*
X0198650Y0001800D01*
X0001800Y0001800D01*
D11*
X0041800Y0006800D03*
X0041800Y0026800D03*
X0061800Y0026800D03*
X0076800Y0026800D03*
X0076800Y0036800D03*
X0061800Y0006800D03*
X0026800Y0046800D03*
X0016800Y0046800D03*
X0126800Y0066800D03*
X0126800Y0076800D03*
X0126800Y0016800D03*
X0146800Y0016800D03*
X0156800Y0016800D03*
X0166800Y0016800D03*
X0126800Y0146800D03*
X0126800Y0156800D03*
X0131800Y0181800D03*
X0131800Y0191800D03*
X0111800Y0186800D03*
X0106800Y0194300D03*
X0101800Y0186800D03*
X0069300Y0171800D03*
X0069300Y0161800D03*
X0151800Y0166800D03*
X0151800Y0176800D03*
X0161800Y0156800D03*
X0181800Y0156800D03*
D12*
X0175737Y0186800D03*
X0167863Y0186800D03*
X0020737Y0026800D03*
X0012863Y0026800D03*
D13*
X0006800Y0066800D03*
X0006800Y0076800D03*
X0006800Y0086800D03*
X0006800Y0096800D03*
X0006800Y0106800D03*
X0006800Y0116800D03*
X0006800Y0126800D03*
X0006800Y0136800D03*
X0071800Y0186800D03*
X0081800Y0186800D03*
X0194300Y0186800D03*
X0194300Y0176800D03*
X0194300Y0166800D03*
X0194300Y0156800D03*
X0194300Y0146800D03*
X0194300Y0136800D03*
X0194300Y0126800D03*
X0194300Y0116800D03*
X0194300Y0106800D03*
X0194300Y0096800D03*
X0194300Y0086800D03*
X0194300Y0076800D03*
X0194300Y0066800D03*
X0061800Y0066800D03*
X0061800Y0056800D03*
D14*
X0084200Y0056800D02*
X0089400Y0056800D01*
X0089400Y0046800D02*
X0084200Y0046800D01*
X0084200Y0036800D02*
X0089400Y0036800D01*
X0089400Y0026800D02*
X0084200Y0026800D01*
X0114200Y0026800D02*
X0119400Y0026800D01*
X0119400Y0036800D02*
X0114200Y0036800D01*
X0114200Y0046800D02*
X0119400Y0046800D01*
X0119400Y0056800D02*
X0114200Y0056800D01*
X0114200Y0066800D02*
X0119400Y0066800D01*
X0119400Y0076800D02*
X0114200Y0076800D01*
X0114200Y0086800D02*
X0119400Y0086800D01*
X0119400Y0096800D02*
X0114200Y0096800D01*
X0114200Y0106800D02*
X0119400Y0106800D01*
X0119400Y0116800D02*
X0114200Y0116800D01*
X0114200Y0126800D02*
X0119400Y0126800D01*
X0119400Y0136800D02*
X0114200Y0136800D01*
X0114200Y0146800D02*
X0119400Y0146800D01*
X0119400Y0156800D02*
X0114200Y0156800D01*
X0089400Y0156800D02*
X0084200Y0156800D01*
X0084200Y0146800D02*
X0089400Y0146800D01*
X0089400Y0136800D02*
X0084200Y0136800D01*
X0084200Y0126800D02*
X0089400Y0126800D01*
X0089400Y0116800D02*
X0084200Y0116800D01*
X0084200Y0106800D02*
X0089400Y0106800D01*
X0089400Y0096800D02*
X0084200Y0096800D01*
X0084200Y0086800D02*
X0089400Y0086800D01*
X0089400Y0076800D02*
X0084200Y0076800D01*
X0084200Y0066800D02*
X0089400Y0066800D01*
D15*
X0061800Y0076800D03*
X0061800Y0186800D03*
D16*
X0039379Y0186849D03*
X0034654Y0183700D03*
X0039379Y0180550D03*
X0034654Y0177400D03*
X0039379Y0174251D03*
D17*
X0019300Y0166180D03*
X0019300Y0194920D03*
D18*
X0034654Y0177400D02*
X0034654Y0128946D01*
X0071800Y0091800D01*
X0071800Y0051800D01*
X0071800Y0041800D02*
X0066800Y0036800D01*
X0071800Y0041800D02*
X0086800Y0041800D01*
X0086800Y0046800D01*
X0086800Y0056800D02*
X0081800Y0056800D01*
X0061800Y0036800D01*
X0051800Y0046800D01*
X0046800Y0046800D01*
X0021800Y0071800D01*
X0021800Y0091800D01*
X0016800Y0096800D01*
X0006800Y0096800D01*
X0006800Y0086800D02*
X0011800Y0086800D01*
X0011800Y0046800D01*
X0016800Y0046800D01*
X0026800Y0046800D02*
X0041800Y0031800D01*
X0041800Y0026800D01*
X0061800Y0026800D02*
X0061800Y0036800D01*
X0053050Y0050550D02*
X0046800Y0056800D01*
X0046800Y0076800D01*
X0076800Y0086800D02*
X0076800Y0161800D01*
X0069300Y0161800D01*
X0069300Y0171800D02*
X0081800Y0184300D01*
X0081800Y0186800D01*
X0071800Y0186800D02*
X0071800Y0180550D01*
X0055550Y0180550D01*
X0049251Y0186849D01*
X0039379Y0186849D01*
X0039379Y0180550D02*
X0048050Y0180550D01*
X0051800Y0176800D01*
X0051800Y0136800D01*
X0071800Y0116800D01*
X0071800Y0111800D01*
X0086800Y0116800D02*
X0106800Y0116800D01*
X0106800Y0111800D01*
X0146800Y0111800D01*
X0156800Y0111800D02*
X0171800Y0111800D01*
X0171800Y0171800D01*
X0186800Y0186800D01*
X0194300Y0186800D01*
X0194300Y0176800D02*
X0186800Y0176800D01*
X0186800Y0131800D01*
X0161800Y0156800D02*
X0161800Y0166800D01*
X0176800Y0181800D01*
X0176800Y0186800D01*
X0167863Y0186800D02*
X0167863Y0182863D01*
X0151800Y0166800D01*
X0156800Y0161800D01*
X0156800Y0146800D01*
X0151800Y0146800D02*
X0131800Y0166800D01*
X0106800Y0166800D01*
X0106800Y0194300D01*
X0111800Y0176800D02*
X0121800Y0176800D01*
X0126800Y0171800D01*
X0131800Y0171800D01*
X0131800Y0181800D01*
X0111800Y0161800D02*
X0106800Y0161800D01*
X0106800Y0121800D01*
X0104300Y0131800D02*
X0096800Y0131800D01*
X0091800Y0126800D01*
X0086800Y0126800D01*
X0111800Y0106800D02*
X0116800Y0106800D01*
X0111800Y0106800D02*
X0101800Y0096800D01*
X0101800Y0046800D01*
X0101800Y0031800D01*
X0141800Y0031800D01*
X0156800Y0016800D01*
X0151800Y0036800D02*
X0151800Y0076800D01*
X0151800Y0146800D01*
X0126800Y0156800D02*
X0116800Y0156800D01*
X0111800Y0161800D01*
X0131800Y0106800D02*
X0131800Y0056800D01*
X0141800Y0046800D02*
X0141800Y0096800D01*
X0101800Y0046800D02*
X0091800Y0036800D01*
X0086800Y0036800D01*
X0086800Y0086800D02*
X0076800Y0086800D01*
D19*
X0096800Y0086800D03*
X0071800Y0111800D03*
X0104300Y0131800D03*
X0106800Y0121800D03*
X0131800Y0106800D03*
X0141800Y0096800D03*
X0146800Y0111800D03*
X0156800Y0111800D03*
X0141800Y0131800D03*
X0156800Y0146800D03*
X0186800Y0131800D03*
X0151800Y0076800D03*
X0131800Y0056800D03*
X0141800Y0046800D03*
X0151800Y0036800D03*
X0071800Y0051800D03*
X0066800Y0036800D03*
X0053050Y0050550D03*
X0046800Y0076800D03*
X0111800Y0176800D03*
M02*
