G75*
%MOIN*%
%OFA0B0*%
%FSLAX25Y25*%
%IPPOS*%
%LPD*%
%AMOC8*
5,1,8,0,0,1.08239X$1,22.5*
%
%ADD10C,0.00000*%
%ADD11C,0.00600*%
%ADD12C,0.01200*%
%ADD13C,0.00500*%
%ADD14C,0.00100*%
%ADD15C,0.00800*%
%ADD16C,0.01000*%
%ADD17C,0.00400*%
D10*
X0001800Y0001800D02*
X0001800Y0198650D01*
X0198650Y0198650D01*
X0198650Y0001800D01*
X0001800Y0001800D01*
D11*
X0038300Y0010800D02*
X0038300Y0011800D01*
X0038800Y0012300D01*
X0038800Y0021300D01*
X0038300Y0021800D01*
X0038300Y0022800D01*
X0038302Y0022860D01*
X0038307Y0022921D01*
X0038316Y0022980D01*
X0038329Y0023039D01*
X0038345Y0023098D01*
X0038365Y0023155D01*
X0038388Y0023210D01*
X0038415Y0023265D01*
X0038444Y0023317D01*
X0038477Y0023368D01*
X0038513Y0023417D01*
X0038551Y0023463D01*
X0038593Y0023507D01*
X0038637Y0023549D01*
X0038683Y0023587D01*
X0038732Y0023623D01*
X0038783Y0023656D01*
X0038835Y0023685D01*
X0038890Y0023712D01*
X0038945Y0023735D01*
X0039002Y0023755D01*
X0039061Y0023771D01*
X0039120Y0023784D01*
X0039179Y0023793D01*
X0039240Y0023798D01*
X0039300Y0023800D01*
X0044300Y0023800D02*
X0044360Y0023798D01*
X0044421Y0023793D01*
X0044480Y0023784D01*
X0044539Y0023771D01*
X0044598Y0023755D01*
X0044655Y0023735D01*
X0044710Y0023712D01*
X0044765Y0023685D01*
X0044817Y0023656D01*
X0044868Y0023623D01*
X0044917Y0023587D01*
X0044963Y0023549D01*
X0045007Y0023507D01*
X0045049Y0023463D01*
X0045087Y0023417D01*
X0045123Y0023368D01*
X0045156Y0023317D01*
X0045185Y0023265D01*
X0045212Y0023210D01*
X0045235Y0023155D01*
X0045255Y0023098D01*
X0045271Y0023039D01*
X0045284Y0022980D01*
X0045293Y0022921D01*
X0045298Y0022860D01*
X0045300Y0022800D01*
X0045300Y0021800D01*
X0044800Y0021300D01*
X0044800Y0012300D01*
X0045300Y0011800D01*
X0045300Y0010800D01*
X0045298Y0010740D01*
X0045293Y0010679D01*
X0045284Y0010620D01*
X0045271Y0010561D01*
X0045255Y0010502D01*
X0045235Y0010445D01*
X0045212Y0010390D01*
X0045185Y0010335D01*
X0045156Y0010283D01*
X0045123Y0010232D01*
X0045087Y0010183D01*
X0045049Y0010137D01*
X0045007Y0010093D01*
X0044963Y0010051D01*
X0044917Y0010013D01*
X0044868Y0009977D01*
X0044817Y0009944D01*
X0044765Y0009915D01*
X0044710Y0009888D01*
X0044655Y0009865D01*
X0044598Y0009845D01*
X0044539Y0009829D01*
X0044480Y0009816D01*
X0044421Y0009807D01*
X0044360Y0009802D01*
X0044300Y0009800D01*
X0039300Y0009800D02*
X0039240Y0009802D01*
X0039179Y0009807D01*
X0039120Y0009816D01*
X0039061Y0009829D01*
X0039002Y0009845D01*
X0038945Y0009865D01*
X0038890Y0009888D01*
X0038835Y0009915D01*
X0038783Y0009944D01*
X0038732Y0009977D01*
X0038683Y0010013D01*
X0038637Y0010051D01*
X0038593Y0010093D01*
X0038551Y0010137D01*
X0038513Y0010183D01*
X0038477Y0010232D01*
X0038444Y0010283D01*
X0038415Y0010335D01*
X0038388Y0010390D01*
X0038365Y0010445D01*
X0038345Y0010502D01*
X0038329Y0010561D01*
X0038316Y0010620D01*
X0038307Y0010679D01*
X0038302Y0010740D01*
X0038300Y0010800D01*
X0058300Y0010800D02*
X0058300Y0011800D01*
X0058800Y0012300D01*
X0058800Y0021300D01*
X0058300Y0021800D01*
X0058300Y0022800D01*
X0058302Y0022860D01*
X0058307Y0022921D01*
X0058316Y0022980D01*
X0058329Y0023039D01*
X0058345Y0023098D01*
X0058365Y0023155D01*
X0058388Y0023210D01*
X0058415Y0023265D01*
X0058444Y0023317D01*
X0058477Y0023368D01*
X0058513Y0023417D01*
X0058551Y0023463D01*
X0058593Y0023507D01*
X0058637Y0023549D01*
X0058683Y0023587D01*
X0058732Y0023623D01*
X0058783Y0023656D01*
X0058835Y0023685D01*
X0058890Y0023712D01*
X0058945Y0023735D01*
X0059002Y0023755D01*
X0059061Y0023771D01*
X0059120Y0023784D01*
X0059179Y0023793D01*
X0059240Y0023798D01*
X0059300Y0023800D01*
X0064300Y0023800D02*
X0064360Y0023798D01*
X0064421Y0023793D01*
X0064480Y0023784D01*
X0064539Y0023771D01*
X0064598Y0023755D01*
X0064655Y0023735D01*
X0064710Y0023712D01*
X0064765Y0023685D01*
X0064817Y0023656D01*
X0064868Y0023623D01*
X0064917Y0023587D01*
X0064963Y0023549D01*
X0065007Y0023507D01*
X0065049Y0023463D01*
X0065087Y0023417D01*
X0065123Y0023368D01*
X0065156Y0023317D01*
X0065185Y0023265D01*
X0065212Y0023210D01*
X0065235Y0023155D01*
X0065255Y0023098D01*
X0065271Y0023039D01*
X0065284Y0022980D01*
X0065293Y0022921D01*
X0065298Y0022860D01*
X0065300Y0022800D01*
X0065300Y0021800D01*
X0064800Y0021300D01*
X0064800Y0012300D01*
X0065300Y0011800D01*
X0065300Y0010800D01*
X0065298Y0010740D01*
X0065293Y0010679D01*
X0065284Y0010620D01*
X0065271Y0010561D01*
X0065255Y0010502D01*
X0065235Y0010445D01*
X0065212Y0010390D01*
X0065185Y0010335D01*
X0065156Y0010283D01*
X0065123Y0010232D01*
X0065087Y0010183D01*
X0065049Y0010137D01*
X0065007Y0010093D01*
X0064963Y0010051D01*
X0064917Y0010013D01*
X0064868Y0009977D01*
X0064817Y0009944D01*
X0064765Y0009915D01*
X0064710Y0009888D01*
X0064655Y0009865D01*
X0064598Y0009845D01*
X0064539Y0009829D01*
X0064480Y0009816D01*
X0064421Y0009807D01*
X0064360Y0009802D01*
X0064300Y0009800D01*
X0059300Y0009800D02*
X0059240Y0009802D01*
X0059179Y0009807D01*
X0059120Y0009816D01*
X0059061Y0009829D01*
X0059002Y0009845D01*
X0058945Y0009865D01*
X0058890Y0009888D01*
X0058835Y0009915D01*
X0058783Y0009944D01*
X0058732Y0009977D01*
X0058683Y0010013D01*
X0058637Y0010051D01*
X0058593Y0010093D01*
X0058551Y0010137D01*
X0058513Y0010183D01*
X0058477Y0010232D01*
X0058444Y0010283D01*
X0058415Y0010335D01*
X0058388Y0010390D01*
X0058365Y0010445D01*
X0058345Y0010502D01*
X0058329Y0010561D01*
X0058316Y0010620D01*
X0058307Y0010679D01*
X0058302Y0010740D01*
X0058300Y0010800D01*
X0072300Y0025300D02*
X0072300Y0038300D01*
X0072302Y0038387D01*
X0072308Y0038474D01*
X0072317Y0038561D01*
X0072330Y0038647D01*
X0072347Y0038733D01*
X0072368Y0038818D01*
X0072393Y0038901D01*
X0072421Y0038984D01*
X0072452Y0039065D01*
X0072487Y0039145D01*
X0072526Y0039223D01*
X0072568Y0039300D01*
X0072613Y0039375D01*
X0072662Y0039447D01*
X0072713Y0039518D01*
X0072768Y0039586D01*
X0072825Y0039651D01*
X0072886Y0039714D01*
X0072949Y0039775D01*
X0073014Y0039832D01*
X0073082Y0039887D01*
X0073153Y0039938D01*
X0073225Y0039987D01*
X0073300Y0040032D01*
X0073377Y0040074D01*
X0073455Y0040113D01*
X0073535Y0040148D01*
X0073616Y0040179D01*
X0073699Y0040207D01*
X0073782Y0040232D01*
X0073867Y0040253D01*
X0073953Y0040270D01*
X0074039Y0040283D01*
X0074126Y0040292D01*
X0074213Y0040298D01*
X0074300Y0040300D01*
X0079300Y0040300D01*
X0079387Y0040298D01*
X0079474Y0040292D01*
X0079561Y0040283D01*
X0079647Y0040270D01*
X0079733Y0040253D01*
X0079818Y0040232D01*
X0079901Y0040207D01*
X0079984Y0040179D01*
X0080065Y0040148D01*
X0080145Y0040113D01*
X0080223Y0040074D01*
X0080300Y0040032D01*
X0080375Y0039987D01*
X0080447Y0039938D01*
X0080518Y0039887D01*
X0080586Y0039832D01*
X0080651Y0039775D01*
X0080714Y0039714D01*
X0080775Y0039651D01*
X0080832Y0039586D01*
X0080887Y0039518D01*
X0080938Y0039447D01*
X0080987Y0039375D01*
X0081032Y0039300D01*
X0081074Y0039223D01*
X0081113Y0039145D01*
X0081148Y0039065D01*
X0081179Y0038984D01*
X0081207Y0038901D01*
X0081232Y0038818D01*
X0081253Y0038733D01*
X0081270Y0038647D01*
X0081283Y0038561D01*
X0081292Y0038474D01*
X0081298Y0038387D01*
X0081300Y0038300D01*
X0081300Y0025300D01*
X0081298Y0025213D01*
X0081292Y0025126D01*
X0081283Y0025039D01*
X0081270Y0024953D01*
X0081253Y0024867D01*
X0081232Y0024782D01*
X0081207Y0024699D01*
X0081179Y0024616D01*
X0081148Y0024535D01*
X0081113Y0024455D01*
X0081074Y0024377D01*
X0081032Y0024300D01*
X0080987Y0024225D01*
X0080938Y0024153D01*
X0080887Y0024082D01*
X0080832Y0024014D01*
X0080775Y0023949D01*
X0080714Y0023886D01*
X0080651Y0023825D01*
X0080586Y0023768D01*
X0080518Y0023713D01*
X0080447Y0023662D01*
X0080375Y0023613D01*
X0080300Y0023568D01*
X0080223Y0023526D01*
X0080145Y0023487D01*
X0080065Y0023452D01*
X0079984Y0023421D01*
X0079901Y0023393D01*
X0079818Y0023368D01*
X0079733Y0023347D01*
X0079647Y0023330D01*
X0079561Y0023317D01*
X0079474Y0023308D01*
X0079387Y0023302D01*
X0079300Y0023300D01*
X0074300Y0023300D01*
X0074213Y0023302D01*
X0074126Y0023308D01*
X0074039Y0023317D01*
X0073953Y0023330D01*
X0073867Y0023347D01*
X0073782Y0023368D01*
X0073699Y0023393D01*
X0073616Y0023421D01*
X0073535Y0023452D01*
X0073455Y0023487D01*
X0073377Y0023526D01*
X0073300Y0023568D01*
X0073225Y0023613D01*
X0073153Y0023662D01*
X0073082Y0023713D01*
X0073014Y0023768D01*
X0072949Y0023825D01*
X0072886Y0023886D01*
X0072825Y0023949D01*
X0072768Y0024014D01*
X0072713Y0024082D01*
X0072662Y0024153D01*
X0072613Y0024225D01*
X0072568Y0024300D01*
X0072526Y0024377D01*
X0072487Y0024455D01*
X0072452Y0024535D01*
X0072421Y0024616D01*
X0072393Y0024699D01*
X0072368Y0024782D01*
X0072347Y0024867D01*
X0072330Y0024953D01*
X0072317Y0025039D01*
X0072308Y0025126D01*
X0072302Y0025213D01*
X0072300Y0025300D01*
X0090300Y0021800D02*
X0113300Y0021800D01*
X0113300Y0161800D01*
X0105800Y0161800D01*
X0105798Y0161674D01*
X0105792Y0161549D01*
X0105782Y0161424D01*
X0105768Y0161299D01*
X0105751Y0161174D01*
X0105729Y0161050D01*
X0105704Y0160927D01*
X0105674Y0160805D01*
X0105641Y0160684D01*
X0105604Y0160564D01*
X0105564Y0160445D01*
X0105519Y0160328D01*
X0105471Y0160211D01*
X0105419Y0160097D01*
X0105364Y0159984D01*
X0105305Y0159873D01*
X0105243Y0159764D01*
X0105177Y0159657D01*
X0105108Y0159552D01*
X0105036Y0159449D01*
X0104961Y0159348D01*
X0104882Y0159250D01*
X0104800Y0159155D01*
X0104716Y0159062D01*
X0104628Y0158972D01*
X0104538Y0158884D01*
X0104445Y0158800D01*
X0104350Y0158718D01*
X0104252Y0158639D01*
X0104151Y0158564D01*
X0104048Y0158492D01*
X0103943Y0158423D01*
X0103836Y0158357D01*
X0103727Y0158295D01*
X0103616Y0158236D01*
X0103503Y0158181D01*
X0103389Y0158129D01*
X0103272Y0158081D01*
X0103155Y0158036D01*
X0103036Y0157996D01*
X0102916Y0157959D01*
X0102795Y0157926D01*
X0102673Y0157896D01*
X0102550Y0157871D01*
X0102426Y0157849D01*
X0102301Y0157832D01*
X0102176Y0157818D01*
X0102051Y0157808D01*
X0101926Y0157802D01*
X0101800Y0157800D01*
X0101674Y0157802D01*
X0101549Y0157808D01*
X0101424Y0157818D01*
X0101299Y0157832D01*
X0101174Y0157849D01*
X0101050Y0157871D01*
X0100927Y0157896D01*
X0100805Y0157926D01*
X0100684Y0157959D01*
X0100564Y0157996D01*
X0100445Y0158036D01*
X0100328Y0158081D01*
X0100211Y0158129D01*
X0100097Y0158181D01*
X0099984Y0158236D01*
X0099873Y0158295D01*
X0099764Y0158357D01*
X0099657Y0158423D01*
X0099552Y0158492D01*
X0099449Y0158564D01*
X0099348Y0158639D01*
X0099250Y0158718D01*
X0099155Y0158800D01*
X0099062Y0158884D01*
X0098972Y0158972D01*
X0098884Y0159062D01*
X0098800Y0159155D01*
X0098718Y0159250D01*
X0098639Y0159348D01*
X0098564Y0159449D01*
X0098492Y0159552D01*
X0098423Y0159657D01*
X0098357Y0159764D01*
X0098295Y0159873D01*
X0098236Y0159984D01*
X0098181Y0160097D01*
X0098129Y0160211D01*
X0098081Y0160328D01*
X0098036Y0160445D01*
X0097996Y0160564D01*
X0097959Y0160684D01*
X0097926Y0160805D01*
X0097896Y0160927D01*
X0097871Y0161050D01*
X0097849Y0161174D01*
X0097832Y0161299D01*
X0097818Y0161424D01*
X0097808Y0161549D01*
X0097802Y0161674D01*
X0097800Y0161800D01*
X0090300Y0161800D01*
X0090300Y0021800D01*
X0130800Y0020300D02*
X0131800Y0020300D01*
X0132300Y0019800D01*
X0141300Y0019800D01*
X0141800Y0020300D01*
X0142800Y0020300D01*
X0142860Y0020298D01*
X0142921Y0020293D01*
X0142980Y0020284D01*
X0143039Y0020271D01*
X0143098Y0020255D01*
X0143155Y0020235D01*
X0143210Y0020212D01*
X0143265Y0020185D01*
X0143317Y0020156D01*
X0143368Y0020123D01*
X0143417Y0020087D01*
X0143463Y0020049D01*
X0143507Y0020007D01*
X0143549Y0019963D01*
X0143587Y0019917D01*
X0143623Y0019868D01*
X0143656Y0019817D01*
X0143685Y0019765D01*
X0143712Y0019710D01*
X0143735Y0019655D01*
X0143755Y0019598D01*
X0143771Y0019539D01*
X0143784Y0019480D01*
X0143793Y0019421D01*
X0143798Y0019360D01*
X0143800Y0019300D01*
X0143800Y0014300D02*
X0143798Y0014240D01*
X0143793Y0014179D01*
X0143784Y0014120D01*
X0143771Y0014061D01*
X0143755Y0014002D01*
X0143735Y0013945D01*
X0143712Y0013890D01*
X0143685Y0013835D01*
X0143656Y0013783D01*
X0143623Y0013732D01*
X0143587Y0013683D01*
X0143549Y0013637D01*
X0143507Y0013593D01*
X0143463Y0013551D01*
X0143417Y0013513D01*
X0143368Y0013477D01*
X0143317Y0013444D01*
X0143265Y0013415D01*
X0143210Y0013388D01*
X0143155Y0013365D01*
X0143098Y0013345D01*
X0143039Y0013329D01*
X0142980Y0013316D01*
X0142921Y0013307D01*
X0142860Y0013302D01*
X0142800Y0013300D01*
X0141800Y0013300D01*
X0141300Y0013800D01*
X0132300Y0013800D01*
X0131800Y0013300D01*
X0130800Y0013300D01*
X0130740Y0013302D01*
X0130679Y0013307D01*
X0130620Y0013316D01*
X0130561Y0013329D01*
X0130502Y0013345D01*
X0130445Y0013365D01*
X0130390Y0013388D01*
X0130335Y0013415D01*
X0130283Y0013444D01*
X0130232Y0013477D01*
X0130183Y0013513D01*
X0130137Y0013551D01*
X0130093Y0013593D01*
X0130051Y0013637D01*
X0130013Y0013683D01*
X0129977Y0013732D01*
X0129944Y0013783D01*
X0129915Y0013835D01*
X0129888Y0013890D01*
X0129865Y0013945D01*
X0129845Y0014002D01*
X0129829Y0014061D01*
X0129816Y0014120D01*
X0129807Y0014179D01*
X0129802Y0014240D01*
X0129800Y0014300D01*
X0129800Y0019300D02*
X0129802Y0019360D01*
X0129807Y0019421D01*
X0129816Y0019480D01*
X0129829Y0019539D01*
X0129845Y0019598D01*
X0129865Y0019655D01*
X0129888Y0019710D01*
X0129915Y0019765D01*
X0129944Y0019817D01*
X0129977Y0019868D01*
X0130013Y0019917D01*
X0130051Y0019963D01*
X0130093Y0020007D01*
X0130137Y0020049D01*
X0130183Y0020087D01*
X0130232Y0020123D01*
X0130283Y0020156D01*
X0130335Y0020185D01*
X0130390Y0020212D01*
X0130445Y0020235D01*
X0130502Y0020255D01*
X0130561Y0020271D01*
X0130620Y0020284D01*
X0130679Y0020293D01*
X0130740Y0020298D01*
X0130800Y0020300D01*
X0161800Y0022800D02*
X0161954Y0022798D01*
X0162108Y0022792D01*
X0162262Y0022782D01*
X0162416Y0022768D01*
X0162569Y0022751D01*
X0162721Y0022729D01*
X0162873Y0022703D01*
X0163025Y0022674D01*
X0163175Y0022640D01*
X0163325Y0022603D01*
X0163473Y0022562D01*
X0163621Y0022517D01*
X0163767Y0022468D01*
X0163912Y0022416D01*
X0164055Y0022360D01*
X0164198Y0022300D01*
X0164338Y0022237D01*
X0164477Y0022170D01*
X0164614Y0022099D01*
X0164749Y0022025D01*
X0164882Y0021948D01*
X0165014Y0021867D01*
X0165143Y0021783D01*
X0165270Y0021695D01*
X0165394Y0021604D01*
X0165516Y0021511D01*
X0165636Y0021413D01*
X0165753Y0021313D01*
X0165868Y0021210D01*
X0165980Y0021104D01*
X0166089Y0020996D01*
X0166195Y0020884D01*
X0166299Y0020770D01*
X0166399Y0020653D01*
X0166497Y0020534D01*
X0166591Y0020412D01*
X0166682Y0020287D01*
X0161800Y0010800D02*
X0161648Y0010802D01*
X0161497Y0010808D01*
X0161346Y0010817D01*
X0161194Y0010831D01*
X0161044Y0010848D01*
X0160894Y0010869D01*
X0160744Y0010894D01*
X0160595Y0010922D01*
X0160447Y0010955D01*
X0160300Y0010991D01*
X0160153Y0011030D01*
X0160008Y0011074D01*
X0159864Y0011121D01*
X0159721Y0011172D01*
X0159580Y0011226D01*
X0159439Y0011284D01*
X0159301Y0011345D01*
X0159164Y0011410D01*
X0159028Y0011479D01*
X0158895Y0011550D01*
X0158763Y0011625D01*
X0158633Y0011704D01*
X0158506Y0011785D01*
X0158380Y0011870D01*
X0158256Y0011958D01*
X0158135Y0012049D01*
X0158016Y0012143D01*
X0157900Y0012241D01*
X0157786Y0012341D01*
X0157674Y0012443D01*
X0157566Y0012549D01*
X0157460Y0012657D01*
X0157356Y0012768D01*
X0157256Y0012882D01*
X0157158Y0012998D01*
X0157064Y0013117D01*
X0161800Y0010800D02*
X0161952Y0010802D01*
X0162103Y0010808D01*
X0162254Y0010817D01*
X0162406Y0010831D01*
X0162556Y0010848D01*
X0162706Y0010869D01*
X0162856Y0010894D01*
X0163005Y0010922D01*
X0163153Y0010955D01*
X0163300Y0010991D01*
X0163447Y0011030D01*
X0163592Y0011074D01*
X0163736Y0011121D01*
X0163879Y0011172D01*
X0164020Y0011226D01*
X0164161Y0011284D01*
X0164299Y0011345D01*
X0164436Y0011410D01*
X0164572Y0011479D01*
X0164705Y0011550D01*
X0164837Y0011625D01*
X0164967Y0011704D01*
X0165094Y0011785D01*
X0165220Y0011870D01*
X0165344Y0011958D01*
X0165465Y0012049D01*
X0165584Y0012143D01*
X0165700Y0012241D01*
X0165814Y0012341D01*
X0165926Y0012443D01*
X0166034Y0012549D01*
X0166140Y0012657D01*
X0166244Y0012768D01*
X0166344Y0012882D01*
X0166442Y0012998D01*
X0166536Y0013117D01*
X0161800Y0022800D02*
X0161650Y0022798D01*
X0161499Y0022792D01*
X0161349Y0022783D01*
X0161200Y0022770D01*
X0161050Y0022753D01*
X0160901Y0022732D01*
X0160753Y0022708D01*
X0160605Y0022680D01*
X0160458Y0022648D01*
X0160312Y0022613D01*
X0160167Y0022573D01*
X0160023Y0022531D01*
X0159880Y0022484D01*
X0159738Y0022434D01*
X0159597Y0022381D01*
X0159458Y0022324D01*
X0159320Y0022264D01*
X0159184Y0022200D01*
X0159050Y0022133D01*
X0158917Y0022062D01*
X0158786Y0021988D01*
X0158657Y0021911D01*
X0158530Y0021830D01*
X0158405Y0021747D01*
X0158282Y0021660D01*
X0158161Y0021571D01*
X0158043Y0021478D01*
X0157927Y0021382D01*
X0157813Y0021284D01*
X0157702Y0021183D01*
X0157593Y0021078D01*
X0157488Y0020972D01*
X0157384Y0020862D01*
X0157284Y0020750D01*
X0157186Y0020636D01*
X0157092Y0020519D01*
X0157000Y0020400D01*
X0129300Y0063300D02*
X0124300Y0063300D01*
X0124213Y0063302D01*
X0124126Y0063308D01*
X0124039Y0063317D01*
X0123953Y0063330D01*
X0123867Y0063347D01*
X0123782Y0063368D01*
X0123699Y0063393D01*
X0123616Y0063421D01*
X0123535Y0063452D01*
X0123455Y0063487D01*
X0123377Y0063526D01*
X0123300Y0063568D01*
X0123225Y0063613D01*
X0123153Y0063662D01*
X0123082Y0063713D01*
X0123014Y0063768D01*
X0122949Y0063825D01*
X0122886Y0063886D01*
X0122825Y0063949D01*
X0122768Y0064014D01*
X0122713Y0064082D01*
X0122662Y0064153D01*
X0122613Y0064225D01*
X0122568Y0064300D01*
X0122526Y0064377D01*
X0122487Y0064455D01*
X0122452Y0064535D01*
X0122421Y0064616D01*
X0122393Y0064699D01*
X0122368Y0064782D01*
X0122347Y0064867D01*
X0122330Y0064953D01*
X0122317Y0065039D01*
X0122308Y0065126D01*
X0122302Y0065213D01*
X0122300Y0065300D01*
X0122300Y0078300D01*
X0122302Y0078387D01*
X0122308Y0078474D01*
X0122317Y0078561D01*
X0122330Y0078647D01*
X0122347Y0078733D01*
X0122368Y0078818D01*
X0122393Y0078901D01*
X0122421Y0078984D01*
X0122452Y0079065D01*
X0122487Y0079145D01*
X0122526Y0079223D01*
X0122568Y0079300D01*
X0122613Y0079375D01*
X0122662Y0079447D01*
X0122713Y0079518D01*
X0122768Y0079586D01*
X0122825Y0079651D01*
X0122886Y0079714D01*
X0122949Y0079775D01*
X0123014Y0079832D01*
X0123082Y0079887D01*
X0123153Y0079938D01*
X0123225Y0079987D01*
X0123300Y0080032D01*
X0123377Y0080074D01*
X0123455Y0080113D01*
X0123535Y0080148D01*
X0123616Y0080179D01*
X0123699Y0080207D01*
X0123782Y0080232D01*
X0123867Y0080253D01*
X0123953Y0080270D01*
X0124039Y0080283D01*
X0124126Y0080292D01*
X0124213Y0080298D01*
X0124300Y0080300D01*
X0129300Y0080300D01*
X0129387Y0080298D01*
X0129474Y0080292D01*
X0129561Y0080283D01*
X0129647Y0080270D01*
X0129733Y0080253D01*
X0129818Y0080232D01*
X0129901Y0080207D01*
X0129984Y0080179D01*
X0130065Y0080148D01*
X0130145Y0080113D01*
X0130223Y0080074D01*
X0130300Y0080032D01*
X0130375Y0079987D01*
X0130447Y0079938D01*
X0130518Y0079887D01*
X0130586Y0079832D01*
X0130651Y0079775D01*
X0130714Y0079714D01*
X0130775Y0079651D01*
X0130832Y0079586D01*
X0130887Y0079518D01*
X0130938Y0079447D01*
X0130987Y0079375D01*
X0131032Y0079300D01*
X0131074Y0079223D01*
X0131113Y0079145D01*
X0131148Y0079065D01*
X0131179Y0078984D01*
X0131207Y0078901D01*
X0131232Y0078818D01*
X0131253Y0078733D01*
X0131270Y0078647D01*
X0131283Y0078561D01*
X0131292Y0078474D01*
X0131298Y0078387D01*
X0131300Y0078300D01*
X0131300Y0065300D01*
X0131298Y0065213D01*
X0131292Y0065126D01*
X0131283Y0065039D01*
X0131270Y0064953D01*
X0131253Y0064867D01*
X0131232Y0064782D01*
X0131207Y0064699D01*
X0131179Y0064616D01*
X0131148Y0064535D01*
X0131113Y0064455D01*
X0131074Y0064377D01*
X0131032Y0064300D01*
X0130987Y0064225D01*
X0130938Y0064153D01*
X0130887Y0064082D01*
X0130832Y0064014D01*
X0130775Y0063949D01*
X0130714Y0063886D01*
X0130651Y0063825D01*
X0130586Y0063768D01*
X0130518Y0063713D01*
X0130447Y0063662D01*
X0130375Y0063613D01*
X0130300Y0063568D01*
X0130223Y0063526D01*
X0130145Y0063487D01*
X0130065Y0063452D01*
X0129984Y0063421D01*
X0129901Y0063393D01*
X0129818Y0063368D01*
X0129733Y0063347D01*
X0129647Y0063330D01*
X0129561Y0063317D01*
X0129474Y0063308D01*
X0129387Y0063302D01*
X0129300Y0063300D01*
X0129300Y0143300D02*
X0124300Y0143300D01*
X0124213Y0143302D01*
X0124126Y0143308D01*
X0124039Y0143317D01*
X0123953Y0143330D01*
X0123867Y0143347D01*
X0123782Y0143368D01*
X0123699Y0143393D01*
X0123616Y0143421D01*
X0123535Y0143452D01*
X0123455Y0143487D01*
X0123377Y0143526D01*
X0123300Y0143568D01*
X0123225Y0143613D01*
X0123153Y0143662D01*
X0123082Y0143713D01*
X0123014Y0143768D01*
X0122949Y0143825D01*
X0122886Y0143886D01*
X0122825Y0143949D01*
X0122768Y0144014D01*
X0122713Y0144082D01*
X0122662Y0144153D01*
X0122613Y0144225D01*
X0122568Y0144300D01*
X0122526Y0144377D01*
X0122487Y0144455D01*
X0122452Y0144535D01*
X0122421Y0144616D01*
X0122393Y0144699D01*
X0122368Y0144782D01*
X0122347Y0144867D01*
X0122330Y0144953D01*
X0122317Y0145039D01*
X0122308Y0145126D01*
X0122302Y0145213D01*
X0122300Y0145300D01*
X0122300Y0158300D01*
X0122302Y0158387D01*
X0122308Y0158474D01*
X0122317Y0158561D01*
X0122330Y0158647D01*
X0122347Y0158733D01*
X0122368Y0158818D01*
X0122393Y0158901D01*
X0122421Y0158984D01*
X0122452Y0159065D01*
X0122487Y0159145D01*
X0122526Y0159223D01*
X0122568Y0159300D01*
X0122613Y0159375D01*
X0122662Y0159447D01*
X0122713Y0159518D01*
X0122768Y0159586D01*
X0122825Y0159651D01*
X0122886Y0159714D01*
X0122949Y0159775D01*
X0123014Y0159832D01*
X0123082Y0159887D01*
X0123153Y0159938D01*
X0123225Y0159987D01*
X0123300Y0160032D01*
X0123377Y0160074D01*
X0123455Y0160113D01*
X0123535Y0160148D01*
X0123616Y0160179D01*
X0123699Y0160207D01*
X0123782Y0160232D01*
X0123867Y0160253D01*
X0123953Y0160270D01*
X0124039Y0160283D01*
X0124126Y0160292D01*
X0124213Y0160298D01*
X0124300Y0160300D01*
X0129300Y0160300D01*
X0129387Y0160298D01*
X0129474Y0160292D01*
X0129561Y0160283D01*
X0129647Y0160270D01*
X0129733Y0160253D01*
X0129818Y0160232D01*
X0129901Y0160207D01*
X0129984Y0160179D01*
X0130065Y0160148D01*
X0130145Y0160113D01*
X0130223Y0160074D01*
X0130300Y0160032D01*
X0130375Y0159987D01*
X0130447Y0159938D01*
X0130518Y0159887D01*
X0130586Y0159832D01*
X0130651Y0159775D01*
X0130714Y0159714D01*
X0130775Y0159651D01*
X0130832Y0159586D01*
X0130887Y0159518D01*
X0130938Y0159447D01*
X0130987Y0159375D01*
X0131032Y0159300D01*
X0131074Y0159223D01*
X0131113Y0159145D01*
X0131148Y0159065D01*
X0131179Y0158984D01*
X0131207Y0158901D01*
X0131232Y0158818D01*
X0131253Y0158733D01*
X0131270Y0158647D01*
X0131283Y0158561D01*
X0131292Y0158474D01*
X0131298Y0158387D01*
X0131300Y0158300D01*
X0131300Y0145300D01*
X0131298Y0145213D01*
X0131292Y0145126D01*
X0131283Y0145039D01*
X0131270Y0144953D01*
X0131253Y0144867D01*
X0131232Y0144782D01*
X0131207Y0144699D01*
X0131179Y0144616D01*
X0131148Y0144535D01*
X0131113Y0144455D01*
X0131074Y0144377D01*
X0131032Y0144300D01*
X0130987Y0144225D01*
X0130938Y0144153D01*
X0130887Y0144082D01*
X0130832Y0144014D01*
X0130775Y0143949D01*
X0130714Y0143886D01*
X0130651Y0143825D01*
X0130586Y0143768D01*
X0130518Y0143713D01*
X0130447Y0143662D01*
X0130375Y0143613D01*
X0130300Y0143568D01*
X0130223Y0143526D01*
X0130145Y0143487D01*
X0130065Y0143452D01*
X0129984Y0143421D01*
X0129901Y0143393D01*
X0129818Y0143368D01*
X0129733Y0143347D01*
X0129647Y0143330D01*
X0129561Y0143317D01*
X0129474Y0143308D01*
X0129387Y0143302D01*
X0129300Y0143300D01*
X0149300Y0163300D02*
X0154300Y0163300D01*
X0154387Y0163302D01*
X0154474Y0163308D01*
X0154561Y0163317D01*
X0154647Y0163330D01*
X0154733Y0163347D01*
X0154818Y0163368D01*
X0154901Y0163393D01*
X0154984Y0163421D01*
X0155065Y0163452D01*
X0155145Y0163487D01*
X0155223Y0163526D01*
X0155300Y0163568D01*
X0155375Y0163613D01*
X0155447Y0163662D01*
X0155518Y0163713D01*
X0155586Y0163768D01*
X0155651Y0163825D01*
X0155714Y0163886D01*
X0155775Y0163949D01*
X0155832Y0164014D01*
X0155887Y0164082D01*
X0155938Y0164153D01*
X0155987Y0164225D01*
X0156032Y0164300D01*
X0156074Y0164377D01*
X0156113Y0164455D01*
X0156148Y0164535D01*
X0156179Y0164616D01*
X0156207Y0164699D01*
X0156232Y0164782D01*
X0156253Y0164867D01*
X0156270Y0164953D01*
X0156283Y0165039D01*
X0156292Y0165126D01*
X0156298Y0165213D01*
X0156300Y0165300D01*
X0156300Y0178300D01*
X0156298Y0178387D01*
X0156292Y0178474D01*
X0156283Y0178561D01*
X0156270Y0178647D01*
X0156253Y0178733D01*
X0156232Y0178818D01*
X0156207Y0178901D01*
X0156179Y0178984D01*
X0156148Y0179065D01*
X0156113Y0179145D01*
X0156074Y0179223D01*
X0156032Y0179300D01*
X0155987Y0179375D01*
X0155938Y0179447D01*
X0155887Y0179518D01*
X0155832Y0179586D01*
X0155775Y0179651D01*
X0155714Y0179714D01*
X0155651Y0179775D01*
X0155586Y0179832D01*
X0155518Y0179887D01*
X0155447Y0179938D01*
X0155375Y0179987D01*
X0155300Y0180032D01*
X0155223Y0180074D01*
X0155145Y0180113D01*
X0155065Y0180148D01*
X0154984Y0180179D01*
X0154901Y0180207D01*
X0154818Y0180232D01*
X0154733Y0180253D01*
X0154647Y0180270D01*
X0154561Y0180283D01*
X0154474Y0180292D01*
X0154387Y0180298D01*
X0154300Y0180300D01*
X0149300Y0180300D01*
X0149213Y0180298D01*
X0149126Y0180292D01*
X0149039Y0180283D01*
X0148953Y0180270D01*
X0148867Y0180253D01*
X0148782Y0180232D01*
X0148699Y0180207D01*
X0148616Y0180179D01*
X0148535Y0180148D01*
X0148455Y0180113D01*
X0148377Y0180074D01*
X0148300Y0180032D01*
X0148225Y0179987D01*
X0148153Y0179938D01*
X0148082Y0179887D01*
X0148014Y0179832D01*
X0147949Y0179775D01*
X0147886Y0179714D01*
X0147825Y0179651D01*
X0147768Y0179586D01*
X0147713Y0179518D01*
X0147662Y0179447D01*
X0147613Y0179375D01*
X0147568Y0179300D01*
X0147526Y0179223D01*
X0147487Y0179145D01*
X0147452Y0179065D01*
X0147421Y0178984D01*
X0147393Y0178901D01*
X0147368Y0178818D01*
X0147347Y0178733D01*
X0147330Y0178647D01*
X0147317Y0178561D01*
X0147308Y0178474D01*
X0147302Y0178387D01*
X0147300Y0178300D01*
X0147300Y0165300D01*
X0147302Y0165213D01*
X0147308Y0165126D01*
X0147317Y0165039D01*
X0147330Y0164953D01*
X0147347Y0164867D01*
X0147368Y0164782D01*
X0147393Y0164699D01*
X0147421Y0164616D01*
X0147452Y0164535D01*
X0147487Y0164455D01*
X0147526Y0164377D01*
X0147568Y0164300D01*
X0147613Y0164225D01*
X0147662Y0164153D01*
X0147713Y0164082D01*
X0147768Y0164014D01*
X0147825Y0163949D01*
X0147886Y0163886D01*
X0147949Y0163825D01*
X0148014Y0163768D01*
X0148082Y0163713D01*
X0148153Y0163662D01*
X0148225Y0163613D01*
X0148300Y0163568D01*
X0148377Y0163526D01*
X0148455Y0163487D01*
X0148535Y0163452D01*
X0148616Y0163421D01*
X0148699Y0163393D01*
X0148782Y0163368D01*
X0148867Y0163347D01*
X0148953Y0163330D01*
X0149039Y0163317D01*
X0149126Y0163308D01*
X0149213Y0163302D01*
X0149300Y0163300D01*
X0165800Y0160300D02*
X0166800Y0160300D01*
X0167300Y0159800D01*
X0176300Y0159800D01*
X0176800Y0160300D01*
X0177800Y0160300D01*
X0177860Y0160298D01*
X0177921Y0160293D01*
X0177980Y0160284D01*
X0178039Y0160271D01*
X0178098Y0160255D01*
X0178155Y0160235D01*
X0178210Y0160212D01*
X0178265Y0160185D01*
X0178317Y0160156D01*
X0178368Y0160123D01*
X0178417Y0160087D01*
X0178463Y0160049D01*
X0178507Y0160007D01*
X0178549Y0159963D01*
X0178587Y0159917D01*
X0178623Y0159868D01*
X0178656Y0159817D01*
X0178685Y0159765D01*
X0178712Y0159710D01*
X0178735Y0159655D01*
X0178755Y0159598D01*
X0178771Y0159539D01*
X0178784Y0159480D01*
X0178793Y0159421D01*
X0178798Y0159360D01*
X0178800Y0159300D01*
X0178800Y0154300D02*
X0178798Y0154240D01*
X0178793Y0154179D01*
X0178784Y0154120D01*
X0178771Y0154061D01*
X0178755Y0154002D01*
X0178735Y0153945D01*
X0178712Y0153890D01*
X0178685Y0153835D01*
X0178656Y0153783D01*
X0178623Y0153732D01*
X0178587Y0153683D01*
X0178549Y0153637D01*
X0178507Y0153593D01*
X0178463Y0153551D01*
X0178417Y0153513D01*
X0178368Y0153477D01*
X0178317Y0153444D01*
X0178265Y0153415D01*
X0178210Y0153388D01*
X0178155Y0153365D01*
X0178098Y0153345D01*
X0178039Y0153329D01*
X0177980Y0153316D01*
X0177921Y0153307D01*
X0177860Y0153302D01*
X0177800Y0153300D01*
X0176800Y0153300D01*
X0176300Y0153800D01*
X0167300Y0153800D01*
X0166800Y0153300D01*
X0165800Y0153300D01*
X0165740Y0153302D01*
X0165679Y0153307D01*
X0165620Y0153316D01*
X0165561Y0153329D01*
X0165502Y0153345D01*
X0165445Y0153365D01*
X0165390Y0153388D01*
X0165335Y0153415D01*
X0165283Y0153444D01*
X0165232Y0153477D01*
X0165183Y0153513D01*
X0165137Y0153551D01*
X0165093Y0153593D01*
X0165051Y0153637D01*
X0165013Y0153683D01*
X0164977Y0153732D01*
X0164944Y0153783D01*
X0164915Y0153835D01*
X0164888Y0153890D01*
X0164865Y0153945D01*
X0164845Y0154002D01*
X0164829Y0154061D01*
X0164816Y0154120D01*
X0164807Y0154179D01*
X0164802Y0154240D01*
X0164800Y0154300D01*
X0164800Y0159300D02*
X0164802Y0159360D01*
X0164807Y0159421D01*
X0164816Y0159480D01*
X0164829Y0159539D01*
X0164845Y0159598D01*
X0164865Y0159655D01*
X0164888Y0159710D01*
X0164915Y0159765D01*
X0164944Y0159817D01*
X0164977Y0159868D01*
X0165013Y0159917D01*
X0165051Y0159963D01*
X0165093Y0160007D01*
X0165137Y0160049D01*
X0165183Y0160087D01*
X0165232Y0160123D01*
X0165283Y0160156D01*
X0165335Y0160185D01*
X0165390Y0160212D01*
X0165445Y0160235D01*
X0165502Y0160255D01*
X0165561Y0160271D01*
X0165620Y0160284D01*
X0165679Y0160293D01*
X0165740Y0160298D01*
X0165800Y0160300D01*
X0136300Y0180300D02*
X0136300Y0193300D01*
X0136298Y0193387D01*
X0136292Y0193474D01*
X0136283Y0193561D01*
X0136270Y0193647D01*
X0136253Y0193733D01*
X0136232Y0193818D01*
X0136207Y0193901D01*
X0136179Y0193984D01*
X0136148Y0194065D01*
X0136113Y0194145D01*
X0136074Y0194223D01*
X0136032Y0194300D01*
X0135987Y0194375D01*
X0135938Y0194447D01*
X0135887Y0194518D01*
X0135832Y0194586D01*
X0135775Y0194651D01*
X0135714Y0194714D01*
X0135651Y0194775D01*
X0135586Y0194832D01*
X0135518Y0194887D01*
X0135447Y0194938D01*
X0135375Y0194987D01*
X0135300Y0195032D01*
X0135223Y0195074D01*
X0135145Y0195113D01*
X0135065Y0195148D01*
X0134984Y0195179D01*
X0134901Y0195207D01*
X0134818Y0195232D01*
X0134733Y0195253D01*
X0134647Y0195270D01*
X0134561Y0195283D01*
X0134474Y0195292D01*
X0134387Y0195298D01*
X0134300Y0195300D01*
X0129300Y0195300D01*
X0129213Y0195298D01*
X0129126Y0195292D01*
X0129039Y0195283D01*
X0128953Y0195270D01*
X0128867Y0195253D01*
X0128782Y0195232D01*
X0128699Y0195207D01*
X0128616Y0195179D01*
X0128535Y0195148D01*
X0128455Y0195113D01*
X0128377Y0195074D01*
X0128300Y0195032D01*
X0128225Y0194987D01*
X0128153Y0194938D01*
X0128082Y0194887D01*
X0128014Y0194832D01*
X0127949Y0194775D01*
X0127886Y0194714D01*
X0127825Y0194651D01*
X0127768Y0194586D01*
X0127713Y0194518D01*
X0127662Y0194447D01*
X0127613Y0194375D01*
X0127568Y0194300D01*
X0127526Y0194223D01*
X0127487Y0194145D01*
X0127452Y0194065D01*
X0127421Y0193984D01*
X0127393Y0193901D01*
X0127368Y0193818D01*
X0127347Y0193733D01*
X0127330Y0193647D01*
X0127317Y0193561D01*
X0127308Y0193474D01*
X0127302Y0193387D01*
X0127300Y0193300D01*
X0127300Y0180300D01*
X0127302Y0180213D01*
X0127308Y0180126D01*
X0127317Y0180039D01*
X0127330Y0179953D01*
X0127347Y0179867D01*
X0127368Y0179782D01*
X0127393Y0179699D01*
X0127421Y0179616D01*
X0127452Y0179535D01*
X0127487Y0179455D01*
X0127526Y0179377D01*
X0127568Y0179300D01*
X0127613Y0179225D01*
X0127662Y0179153D01*
X0127713Y0179082D01*
X0127768Y0179014D01*
X0127825Y0178949D01*
X0127886Y0178886D01*
X0127949Y0178825D01*
X0128014Y0178768D01*
X0128082Y0178713D01*
X0128153Y0178662D01*
X0128225Y0178613D01*
X0128300Y0178568D01*
X0128377Y0178526D01*
X0128455Y0178487D01*
X0128535Y0178452D01*
X0128616Y0178421D01*
X0128699Y0178393D01*
X0128782Y0178368D01*
X0128867Y0178347D01*
X0128953Y0178330D01*
X0129039Y0178317D01*
X0129126Y0178308D01*
X0129213Y0178302D01*
X0129300Y0178300D01*
X0134300Y0178300D01*
X0134387Y0178302D01*
X0134474Y0178308D01*
X0134561Y0178317D01*
X0134647Y0178330D01*
X0134733Y0178347D01*
X0134818Y0178368D01*
X0134901Y0178393D01*
X0134984Y0178421D01*
X0135065Y0178452D01*
X0135145Y0178487D01*
X0135223Y0178526D01*
X0135300Y0178568D01*
X0135375Y0178613D01*
X0135447Y0178662D01*
X0135518Y0178713D01*
X0135586Y0178768D01*
X0135651Y0178825D01*
X0135714Y0178886D01*
X0135775Y0178949D01*
X0135832Y0179014D01*
X0135887Y0179082D01*
X0135938Y0179153D01*
X0135987Y0179225D01*
X0136032Y0179300D01*
X0136074Y0179377D01*
X0136113Y0179455D01*
X0136148Y0179535D01*
X0136179Y0179616D01*
X0136207Y0179699D01*
X0136232Y0179782D01*
X0136253Y0179867D01*
X0136270Y0179953D01*
X0136283Y0180039D01*
X0136292Y0180126D01*
X0136298Y0180213D01*
X0136300Y0180300D01*
X0073800Y0173300D02*
X0073800Y0160300D01*
X0073798Y0160213D01*
X0073792Y0160126D01*
X0073783Y0160039D01*
X0073770Y0159953D01*
X0073753Y0159867D01*
X0073732Y0159782D01*
X0073707Y0159699D01*
X0073679Y0159616D01*
X0073648Y0159535D01*
X0073613Y0159455D01*
X0073574Y0159377D01*
X0073532Y0159300D01*
X0073487Y0159225D01*
X0073438Y0159153D01*
X0073387Y0159082D01*
X0073332Y0159014D01*
X0073275Y0158949D01*
X0073214Y0158886D01*
X0073151Y0158825D01*
X0073086Y0158768D01*
X0073018Y0158713D01*
X0072947Y0158662D01*
X0072875Y0158613D01*
X0072800Y0158568D01*
X0072723Y0158526D01*
X0072645Y0158487D01*
X0072565Y0158452D01*
X0072484Y0158421D01*
X0072401Y0158393D01*
X0072318Y0158368D01*
X0072233Y0158347D01*
X0072147Y0158330D01*
X0072061Y0158317D01*
X0071974Y0158308D01*
X0071887Y0158302D01*
X0071800Y0158300D01*
X0066800Y0158300D01*
X0066713Y0158302D01*
X0066626Y0158308D01*
X0066539Y0158317D01*
X0066453Y0158330D01*
X0066367Y0158347D01*
X0066282Y0158368D01*
X0066199Y0158393D01*
X0066116Y0158421D01*
X0066035Y0158452D01*
X0065955Y0158487D01*
X0065877Y0158526D01*
X0065800Y0158568D01*
X0065725Y0158613D01*
X0065653Y0158662D01*
X0065582Y0158713D01*
X0065514Y0158768D01*
X0065449Y0158825D01*
X0065386Y0158886D01*
X0065325Y0158949D01*
X0065268Y0159014D01*
X0065213Y0159082D01*
X0065162Y0159153D01*
X0065113Y0159225D01*
X0065068Y0159300D01*
X0065026Y0159377D01*
X0064987Y0159455D01*
X0064952Y0159535D01*
X0064921Y0159616D01*
X0064893Y0159699D01*
X0064868Y0159782D01*
X0064847Y0159867D01*
X0064830Y0159953D01*
X0064817Y0160039D01*
X0064808Y0160126D01*
X0064802Y0160213D01*
X0064800Y0160300D01*
X0064800Y0173300D01*
X0064802Y0173387D01*
X0064808Y0173474D01*
X0064817Y0173561D01*
X0064830Y0173647D01*
X0064847Y0173733D01*
X0064868Y0173818D01*
X0064893Y0173901D01*
X0064921Y0173984D01*
X0064952Y0174065D01*
X0064987Y0174145D01*
X0065026Y0174223D01*
X0065068Y0174300D01*
X0065113Y0174375D01*
X0065162Y0174447D01*
X0065213Y0174518D01*
X0065268Y0174586D01*
X0065325Y0174651D01*
X0065386Y0174714D01*
X0065449Y0174775D01*
X0065514Y0174832D01*
X0065582Y0174887D01*
X0065653Y0174938D01*
X0065725Y0174987D01*
X0065800Y0175032D01*
X0065877Y0175074D01*
X0065955Y0175113D01*
X0066035Y0175148D01*
X0066116Y0175179D01*
X0066199Y0175207D01*
X0066282Y0175232D01*
X0066367Y0175253D01*
X0066453Y0175270D01*
X0066539Y0175283D01*
X0066626Y0175292D01*
X0066713Y0175298D01*
X0066800Y0175300D01*
X0071800Y0175300D01*
X0071887Y0175298D01*
X0071974Y0175292D01*
X0072061Y0175283D01*
X0072147Y0175270D01*
X0072233Y0175253D01*
X0072318Y0175232D01*
X0072401Y0175207D01*
X0072484Y0175179D01*
X0072565Y0175148D01*
X0072645Y0175113D01*
X0072723Y0175074D01*
X0072800Y0175032D01*
X0072875Y0174987D01*
X0072947Y0174938D01*
X0073018Y0174887D01*
X0073086Y0174832D01*
X0073151Y0174775D01*
X0073214Y0174714D01*
X0073275Y0174651D01*
X0073332Y0174586D01*
X0073387Y0174518D01*
X0073438Y0174447D01*
X0073487Y0174375D01*
X0073532Y0174300D01*
X0073574Y0174223D01*
X0073613Y0174145D01*
X0073648Y0174065D01*
X0073679Y0173984D01*
X0073707Y0173901D01*
X0073732Y0173818D01*
X0073753Y0173733D01*
X0073770Y0173647D01*
X0073783Y0173561D01*
X0073792Y0173474D01*
X0073798Y0173387D01*
X0073800Y0173300D01*
X0017064Y0043117D02*
X0017158Y0042998D01*
X0017256Y0042882D01*
X0017356Y0042768D01*
X0017460Y0042657D01*
X0017566Y0042549D01*
X0017674Y0042443D01*
X0017786Y0042341D01*
X0017900Y0042241D01*
X0018016Y0042143D01*
X0018135Y0042049D01*
X0018256Y0041958D01*
X0018380Y0041870D01*
X0018506Y0041785D01*
X0018633Y0041704D01*
X0018763Y0041625D01*
X0018895Y0041550D01*
X0019028Y0041479D01*
X0019164Y0041410D01*
X0019301Y0041345D01*
X0019439Y0041284D01*
X0019580Y0041226D01*
X0019721Y0041172D01*
X0019864Y0041121D01*
X0020008Y0041074D01*
X0020153Y0041030D01*
X0020300Y0040991D01*
X0020447Y0040955D01*
X0020595Y0040922D01*
X0020744Y0040894D01*
X0020894Y0040869D01*
X0021044Y0040848D01*
X0021194Y0040831D01*
X0021346Y0040817D01*
X0021497Y0040808D01*
X0021648Y0040802D01*
X0021800Y0040800D01*
X0017000Y0050400D02*
X0017092Y0050519D01*
X0017186Y0050636D01*
X0017284Y0050750D01*
X0017384Y0050862D01*
X0017488Y0050972D01*
X0017593Y0051078D01*
X0017702Y0051183D01*
X0017813Y0051284D01*
X0017927Y0051382D01*
X0018043Y0051478D01*
X0018161Y0051571D01*
X0018282Y0051660D01*
X0018405Y0051747D01*
X0018530Y0051830D01*
X0018657Y0051911D01*
X0018786Y0051988D01*
X0018917Y0052062D01*
X0019050Y0052133D01*
X0019184Y0052200D01*
X0019320Y0052264D01*
X0019458Y0052324D01*
X0019597Y0052381D01*
X0019738Y0052434D01*
X0019880Y0052484D01*
X0020023Y0052531D01*
X0020167Y0052573D01*
X0020312Y0052613D01*
X0020458Y0052648D01*
X0020605Y0052680D01*
X0020753Y0052708D01*
X0020901Y0052732D01*
X0021050Y0052753D01*
X0021200Y0052770D01*
X0021349Y0052783D01*
X0021499Y0052792D01*
X0021650Y0052798D01*
X0021800Y0052800D01*
X0026536Y0043117D02*
X0026442Y0042998D01*
X0026344Y0042882D01*
X0026244Y0042768D01*
X0026140Y0042657D01*
X0026034Y0042549D01*
X0025926Y0042443D01*
X0025814Y0042341D01*
X0025700Y0042241D01*
X0025584Y0042143D01*
X0025465Y0042049D01*
X0025344Y0041958D01*
X0025220Y0041870D01*
X0025094Y0041785D01*
X0024967Y0041704D01*
X0024837Y0041625D01*
X0024705Y0041550D01*
X0024572Y0041479D01*
X0024436Y0041410D01*
X0024299Y0041345D01*
X0024161Y0041284D01*
X0024020Y0041226D01*
X0023879Y0041172D01*
X0023736Y0041121D01*
X0023592Y0041074D01*
X0023447Y0041030D01*
X0023300Y0040991D01*
X0023153Y0040955D01*
X0023005Y0040922D01*
X0022856Y0040894D01*
X0022706Y0040869D01*
X0022556Y0040848D01*
X0022406Y0040831D01*
X0022254Y0040817D01*
X0022103Y0040808D01*
X0021952Y0040802D01*
X0021800Y0040800D01*
X0026682Y0050287D02*
X0026591Y0050412D01*
X0026497Y0050534D01*
X0026399Y0050653D01*
X0026299Y0050770D01*
X0026195Y0050884D01*
X0026089Y0050996D01*
X0025980Y0051104D01*
X0025868Y0051210D01*
X0025753Y0051313D01*
X0025636Y0051413D01*
X0025516Y0051511D01*
X0025394Y0051604D01*
X0025270Y0051695D01*
X0025143Y0051783D01*
X0025014Y0051867D01*
X0024882Y0051948D01*
X0024749Y0052025D01*
X0024614Y0052099D01*
X0024477Y0052170D01*
X0024338Y0052237D01*
X0024198Y0052300D01*
X0024055Y0052360D01*
X0023912Y0052416D01*
X0023767Y0052468D01*
X0023621Y0052517D01*
X0023473Y0052562D01*
X0023325Y0052603D01*
X0023175Y0052640D01*
X0023025Y0052674D01*
X0022873Y0052703D01*
X0022721Y0052729D01*
X0022569Y0052751D01*
X0022416Y0052768D01*
X0022262Y0052782D01*
X0022108Y0052792D01*
X0021954Y0052798D01*
X0021800Y0052800D01*
D12*
X0073800Y0033000D02*
X0079800Y0033000D01*
X0079800Y0030500D02*
X0073800Y0030500D01*
X0123800Y0070500D02*
X0129800Y0070500D01*
X0129800Y0073000D02*
X0123800Y0073000D01*
X0123800Y0150500D02*
X0129800Y0150500D01*
X0129800Y0153000D02*
X0123800Y0153000D01*
X0148800Y0170500D02*
X0154800Y0170500D01*
X0154800Y0173000D02*
X0148800Y0173000D01*
X0134800Y0185500D02*
X0128800Y0185500D01*
X0128800Y0188000D02*
X0134800Y0188000D01*
X0072300Y0168000D02*
X0066300Y0168000D01*
X0066300Y0165500D02*
X0072300Y0165500D01*
D13*
X0075046Y0165593D02*
X0075046Y0167094D01*
X0075797Y0167845D01*
X0076547Y0169446D02*
X0075046Y0170947D01*
X0079550Y0170947D01*
X0079550Y0169446D02*
X0079550Y0172449D01*
X0078799Y0167845D02*
X0079550Y0167094D01*
X0079550Y0165593D01*
X0078799Y0164842D01*
X0075797Y0164842D01*
X0075046Y0165593D01*
X0063550Y0165593D02*
X0063550Y0167845D01*
X0060547Y0167845D01*
X0061298Y0169446D02*
X0061298Y0170947D01*
X0059046Y0169446D02*
X0059046Y0172449D01*
X0059046Y0169446D02*
X0063550Y0169446D01*
X0063550Y0165593D02*
X0062799Y0164842D01*
X0060547Y0164842D01*
X0063550Y0163241D02*
X0063550Y0160238D01*
X0063550Y0161739D02*
X0059046Y0161739D01*
X0060547Y0160238D01*
X0062799Y0158687D02*
X0062799Y0157936D01*
X0063550Y0157936D01*
X0063550Y0158687D01*
X0062799Y0158687D01*
X0062799Y0156335D02*
X0063550Y0155584D01*
X0063550Y0154083D01*
X0062799Y0153332D01*
X0059797Y0156335D01*
X0062799Y0156335D01*
X0059797Y0156335D02*
X0059046Y0155584D01*
X0059046Y0154083D01*
X0059797Y0153332D01*
X0062799Y0153332D01*
X0061800Y0176800D02*
X0056800Y0176800D01*
X0056800Y0198800D01*
X0086800Y0198800D01*
X0086800Y0176800D01*
X0081800Y0176800D01*
X0081800Y0181800D01*
X0061800Y0181800D01*
X0061800Y0176800D01*
X0081800Y0176800D01*
X0090550Y0167554D02*
X0090550Y0163801D01*
X0091301Y0163050D01*
X0092802Y0163050D01*
X0093553Y0163801D01*
X0093553Y0167554D01*
X0095154Y0166803D02*
X0095154Y0166053D01*
X0095905Y0165302D01*
X0097406Y0165302D01*
X0098156Y0164551D01*
X0098156Y0163801D01*
X0097406Y0163050D01*
X0095905Y0163050D01*
X0095154Y0163801D01*
X0096655Y0162299D02*
X0096655Y0168304D01*
X0095905Y0167554D02*
X0097406Y0167554D01*
X0098156Y0166803D01*
X0099758Y0166053D02*
X0101259Y0167554D01*
X0101259Y0163050D01*
X0099758Y0163050D02*
X0102760Y0163050D01*
X0095905Y0167554D02*
X0095154Y0166803D01*
X0098554Y0180300D02*
X0115046Y0180300D01*
X0119550Y0182050D02*
X0119550Y0186554D01*
X0121051Y0185053D01*
X0122553Y0186554D01*
X0122553Y0182050D01*
X0121546Y0182490D02*
X0122297Y0183241D01*
X0125299Y0180238D01*
X0126050Y0180989D01*
X0126050Y0182490D01*
X0125299Y0183241D01*
X0122297Y0183241D01*
X0121546Y0182490D02*
X0121546Y0180989D01*
X0122297Y0180238D01*
X0125299Y0180238D01*
X0126050Y0178637D02*
X0126050Y0175634D01*
X0126050Y0177136D02*
X0121546Y0177136D01*
X0123047Y0175634D01*
X0124905Y0182050D02*
X0126406Y0182050D01*
X0127156Y0182801D01*
X0128758Y0183551D02*
X0131010Y0183551D01*
X0131760Y0184302D01*
X0131760Y0185803D01*
X0131010Y0186554D01*
X0128758Y0186554D01*
X0128758Y0182050D01*
X0124905Y0182050D02*
X0124154Y0182801D01*
X0124154Y0185803D01*
X0124905Y0186554D01*
X0126406Y0186554D01*
X0127156Y0185803D01*
X0126050Y0185593D02*
X0126050Y0187845D01*
X0123047Y0187845D01*
X0123798Y0189446D02*
X0123798Y0190947D01*
X0124154Y0190301D02*
X0124905Y0189550D01*
X0126406Y0189550D01*
X0127156Y0190301D01*
X0127156Y0191051D01*
X0126406Y0191802D01*
X0124905Y0191802D01*
X0124154Y0192553D01*
X0124154Y0193303D01*
X0124905Y0194054D01*
X0126406Y0194054D01*
X0127156Y0193303D01*
X0128758Y0193303D02*
X0129508Y0194054D01*
X0131010Y0194054D01*
X0131760Y0193303D01*
X0131760Y0192553D01*
X0128758Y0189550D01*
X0131760Y0189550D01*
X0134863Y0186554D02*
X0133362Y0185053D01*
X0134863Y0186554D02*
X0134863Y0182050D01*
X0133362Y0182050D02*
X0136364Y0182050D01*
X0137966Y0182050D02*
X0137966Y0182801D01*
X0140968Y0185803D01*
X0140968Y0186554D01*
X0137966Y0186554D01*
X0137546Y0187094D02*
X0137546Y0185593D01*
X0138297Y0184842D01*
X0141299Y0184842D01*
X0142050Y0185593D01*
X0142050Y0187094D01*
X0141299Y0187845D01*
X0142050Y0189446D02*
X0139047Y0192449D01*
X0138297Y0192449D01*
X0137546Y0191698D01*
X0137546Y0190197D01*
X0138297Y0189446D01*
X0138297Y0187845D02*
X0137546Y0187094D01*
X0142050Y0189446D02*
X0142050Y0192449D01*
X0143320Y0186554D02*
X0144822Y0186554D01*
X0145572Y0185803D01*
X0142570Y0182801D01*
X0143320Y0182050D01*
X0144822Y0182050D01*
X0145572Y0182801D01*
X0145572Y0185803D01*
X0147174Y0185803D02*
X0147924Y0186554D01*
X0149425Y0186554D01*
X0150176Y0185803D01*
X0150176Y0185053D01*
X0147174Y0182050D01*
X0150176Y0182050D01*
X0142570Y0182801D02*
X0142570Y0185803D01*
X0143320Y0186554D01*
X0141546Y0177449D02*
X0141546Y0174446D01*
X0146050Y0174446D01*
X0146050Y0172845D02*
X0143047Y0172845D01*
X0143798Y0174446D02*
X0143798Y0175947D01*
X0146050Y0172845D02*
X0146050Y0170593D01*
X0145299Y0169842D01*
X0143047Y0169842D01*
X0146050Y0168241D02*
X0146050Y0165238D01*
X0146050Y0166739D02*
X0141546Y0166739D01*
X0143047Y0165238D01*
X0145299Y0163687D02*
X0146050Y0163687D01*
X0146050Y0162936D01*
X0145299Y0162936D01*
X0145299Y0163687D01*
X0145299Y0161335D02*
X0146050Y0160584D01*
X0146050Y0159083D01*
X0145299Y0158332D01*
X0142297Y0161335D01*
X0145299Y0161335D01*
X0145299Y0158332D02*
X0142297Y0158332D01*
X0141546Y0159083D01*
X0141546Y0160584D01*
X0142297Y0161335D01*
X0137050Y0156698D02*
X0137050Y0155197D01*
X0136299Y0154446D01*
X0134798Y0154446D02*
X0134047Y0155947D01*
X0134047Y0156698D01*
X0134798Y0157449D01*
X0136299Y0157449D01*
X0137050Y0156698D01*
X0134798Y0154446D02*
X0132546Y0154446D01*
X0132546Y0157449D01*
X0133297Y0152845D02*
X0132546Y0152094D01*
X0132546Y0150593D01*
X0133297Y0149842D01*
X0136299Y0149842D01*
X0137050Y0150593D01*
X0137050Y0152094D01*
X0136299Y0152845D01*
X0121050Y0152845D02*
X0121050Y0150593D01*
X0120299Y0149842D01*
X0118047Y0149842D01*
X0116546Y0146739D02*
X0121050Y0146739D01*
X0121050Y0145238D02*
X0121050Y0148241D01*
X0118047Y0145238D02*
X0116546Y0146739D01*
X0120299Y0143687D02*
X0121050Y0143687D01*
X0121050Y0142936D01*
X0120299Y0142936D01*
X0120299Y0143687D01*
X0120299Y0141335D02*
X0117297Y0141335D01*
X0120299Y0138332D01*
X0121050Y0139083D01*
X0121050Y0140584D01*
X0120299Y0141335D01*
X0117297Y0141335D02*
X0116546Y0140584D01*
X0116546Y0139083D01*
X0117297Y0138332D01*
X0120299Y0138332D01*
X0121050Y0152845D02*
X0118047Y0152845D01*
X0118798Y0154446D02*
X0118798Y0155947D01*
X0116546Y0154446D02*
X0116546Y0157449D01*
X0116546Y0154446D02*
X0121050Y0154446D01*
X0123047Y0184842D02*
X0125299Y0184842D01*
X0126050Y0185593D01*
X0125655Y0188799D02*
X0125655Y0194804D01*
X0122553Y0194054D02*
X0122553Y0190301D01*
X0121802Y0189550D01*
X0120301Y0189550D01*
X0119550Y0190301D01*
X0119550Y0194054D01*
X0121546Y0192449D02*
X0121546Y0189446D01*
X0126050Y0189446D01*
X0117252Y0185800D02*
X0115673Y0185800D01*
X0107927Y0185800D02*
X0105673Y0185800D01*
X0098554Y0180300D02*
X0098401Y0180499D01*
X0098253Y0180701D01*
X0098110Y0180906D01*
X0097972Y0181115D01*
X0097839Y0181327D01*
X0097711Y0181542D01*
X0097589Y0181760D01*
X0097471Y0181981D01*
X0097359Y0182205D01*
X0097252Y0182431D01*
X0097151Y0182660D01*
X0097055Y0182891D01*
X0096964Y0183125D01*
X0096879Y0183360D01*
X0096800Y0183598D01*
X0096727Y0183837D01*
X0096659Y0184078D01*
X0096597Y0184320D01*
X0096541Y0184564D01*
X0096490Y0184810D01*
X0096446Y0185056D01*
X0096407Y0185303D01*
X0096375Y0185551D01*
X0096348Y0185800D01*
X0097927Y0185800D01*
X0109896Y0196833D02*
X0110138Y0196755D01*
X0110378Y0196671D01*
X0110616Y0196582D01*
X0110852Y0196486D01*
X0111086Y0196385D01*
X0111317Y0196279D01*
X0111545Y0196166D01*
X0111771Y0196049D01*
X0111994Y0195926D01*
X0112213Y0195797D01*
X0112430Y0195663D01*
X0112643Y0195524D01*
X0112853Y0195380D01*
X0113059Y0195231D01*
X0113261Y0195077D01*
X0113460Y0194918D01*
X0113655Y0194754D01*
X0113846Y0194585D01*
X0114032Y0194412D01*
X0114215Y0194235D01*
X0114393Y0194053D01*
X0114566Y0193867D01*
X0114735Y0193676D01*
X0114899Y0193482D01*
X0115059Y0193284D01*
X0115214Y0193082D01*
X0115363Y0192876D01*
X0115508Y0192667D01*
X0115648Y0192454D01*
X0115782Y0192238D01*
X0115911Y0192018D01*
X0116035Y0191796D01*
X0116154Y0191571D01*
X0116266Y0191343D01*
X0116374Y0191112D01*
X0116475Y0190879D01*
X0116571Y0190643D01*
X0116662Y0190405D01*
X0116746Y0190165D01*
X0116825Y0189923D01*
X0116898Y0189679D01*
X0116964Y0189433D01*
X0117025Y0189186D01*
X0117080Y0188938D01*
X0117129Y0188688D01*
X0117172Y0188437D01*
X0117208Y0188185D01*
X0117239Y0187933D01*
X0117263Y0187679D01*
X0117281Y0187426D01*
X0117293Y0187171D01*
X0117299Y0186917D01*
X0117299Y0186662D01*
X0117293Y0186408D01*
X0117280Y0186154D01*
X0117261Y0185900D01*
X0117236Y0185647D01*
X0117205Y0185394D01*
X0117168Y0185142D01*
X0117125Y0184892D01*
X0117076Y0184642D01*
X0117021Y0184393D01*
X0116959Y0184146D01*
X0116892Y0183901D01*
X0116819Y0183657D01*
X0116740Y0183415D01*
X0116655Y0183176D01*
X0116564Y0182938D01*
X0116467Y0182702D01*
X0116365Y0182469D01*
X0116257Y0182239D01*
X0116144Y0182011D01*
X0116025Y0181786D01*
X0115901Y0181564D01*
X0115772Y0181345D01*
X0115637Y0181129D01*
X0115497Y0180916D01*
X0115351Y0180707D01*
X0115201Y0180502D01*
X0115046Y0180300D01*
X0096348Y0185800D02*
X0096326Y0186055D01*
X0096311Y0186311D01*
X0096303Y0186567D01*
X0096300Y0186824D01*
X0096304Y0187080D01*
X0096314Y0187336D01*
X0096330Y0187592D01*
X0096352Y0187847D01*
X0096381Y0188102D01*
X0096416Y0188356D01*
X0096457Y0188609D01*
X0096504Y0188861D01*
X0096558Y0189111D01*
X0096617Y0189360D01*
X0096683Y0189608D01*
X0096754Y0189854D01*
X0096832Y0190099D01*
X0096915Y0190341D01*
X0097004Y0190581D01*
X0097100Y0190819D01*
X0097201Y0191055D01*
X0097307Y0191288D01*
X0097420Y0191518D01*
X0097538Y0191746D01*
X0097661Y0191970D01*
X0097790Y0192192D01*
X0097924Y0192410D01*
X0098064Y0192625D01*
X0098209Y0192836D01*
X0098359Y0193044D01*
X0098513Y0193248D01*
X0098673Y0193449D01*
X0098838Y0193645D01*
X0099007Y0193837D01*
X0099182Y0194026D01*
X0099360Y0194209D01*
X0099543Y0194389D01*
X0099731Y0194564D01*
X0099922Y0194734D01*
X0100118Y0194899D01*
X0100318Y0195060D01*
X0100521Y0195216D01*
X0100728Y0195366D01*
X0100939Y0195512D01*
X0101154Y0195653D01*
X0101371Y0195788D01*
X0101592Y0195918D01*
X0101816Y0196042D01*
X0102043Y0196161D01*
X0102273Y0196274D01*
X0102506Y0196382D01*
X0102741Y0196484D01*
X0102979Y0196580D01*
X0103218Y0196670D01*
X0103460Y0196755D01*
X0103704Y0196833D01*
X0157546Y0176698D02*
X0157546Y0175197D01*
X0158297Y0174446D01*
X0158297Y0172845D02*
X0157546Y0172094D01*
X0157546Y0170593D01*
X0158297Y0169842D01*
X0161299Y0169842D01*
X0162050Y0170593D01*
X0162050Y0172094D01*
X0161299Y0172845D01*
X0161299Y0174446D02*
X0162050Y0175197D01*
X0162050Y0176698D01*
X0161299Y0177449D01*
X0160549Y0177449D01*
X0159798Y0176698D01*
X0159798Y0175947D01*
X0159798Y0176698D02*
X0159047Y0177449D01*
X0158297Y0177449D01*
X0157546Y0176698D01*
X0182346Y0149356D02*
X0182346Y0146354D01*
X0184598Y0146354D01*
X0183847Y0147855D01*
X0183847Y0148606D01*
X0184598Y0149356D01*
X0186099Y0149356D01*
X0186850Y0148606D01*
X0186850Y0147105D01*
X0186099Y0146354D01*
X0186099Y0144002D02*
X0182346Y0144002D01*
X0182346Y0143251D02*
X0182346Y0144753D01*
X0186099Y0144002D02*
X0186850Y0143251D01*
X0186850Y0142501D01*
X0186099Y0141750D01*
X0136299Y0077449D02*
X0135549Y0077449D01*
X0134798Y0076698D01*
X0134798Y0074446D01*
X0136299Y0074446D01*
X0137050Y0075197D01*
X0137050Y0076698D01*
X0136299Y0077449D01*
X0133297Y0075947D02*
X0134798Y0074446D01*
X0133297Y0075947D02*
X0132546Y0077449D01*
X0133297Y0072845D02*
X0132546Y0072094D01*
X0132546Y0070593D01*
X0133297Y0069842D01*
X0136299Y0069842D01*
X0137050Y0070593D01*
X0137050Y0072094D01*
X0136299Y0072845D01*
X0121050Y0072845D02*
X0121050Y0070593D01*
X0120299Y0069842D01*
X0118047Y0069842D01*
X0117297Y0068241D02*
X0120299Y0065238D01*
X0121050Y0065989D01*
X0121050Y0067490D01*
X0120299Y0068241D01*
X0117297Y0068241D01*
X0116546Y0067490D01*
X0116546Y0065989D01*
X0117297Y0065238D01*
X0120299Y0065238D01*
X0121050Y0063637D02*
X0121050Y0060634D01*
X0121050Y0062136D02*
X0116546Y0062136D01*
X0118047Y0060634D01*
X0118047Y0072845D02*
X0121050Y0072845D01*
X0121050Y0074446D02*
X0116546Y0074446D01*
X0116546Y0077449D01*
X0118798Y0075947D02*
X0118798Y0074446D01*
X0087050Y0036698D02*
X0082546Y0036698D01*
X0084798Y0034446D01*
X0084798Y0037449D01*
X0083297Y0032845D02*
X0082546Y0032094D01*
X0082546Y0030593D01*
X0083297Y0029842D01*
X0086299Y0029842D01*
X0087050Y0030593D01*
X0087050Y0032094D01*
X0086299Y0032845D01*
X0071050Y0032845D02*
X0071050Y0030593D01*
X0070299Y0029842D01*
X0068047Y0029842D01*
X0066546Y0026739D02*
X0071050Y0026739D01*
X0071050Y0025238D02*
X0071050Y0028241D01*
X0068047Y0025238D02*
X0066546Y0026739D01*
X0070299Y0023687D02*
X0071050Y0023687D01*
X0071050Y0022936D01*
X0070299Y0022936D01*
X0070299Y0023687D01*
X0070299Y0021335D02*
X0071050Y0020584D01*
X0071050Y0019083D01*
X0070299Y0018332D01*
X0067297Y0021335D01*
X0070299Y0021335D01*
X0070299Y0018332D02*
X0067297Y0018332D01*
X0066546Y0019083D01*
X0066546Y0020584D01*
X0067297Y0021335D01*
X0068047Y0032845D02*
X0071050Y0032845D01*
X0071050Y0034446D02*
X0066546Y0034446D01*
X0066546Y0037449D01*
X0068798Y0035947D02*
X0068798Y0034446D01*
X0073800Y0051800D02*
X0051800Y0051800D01*
X0051800Y0056800D01*
X0056800Y0056800D01*
X0056800Y0076800D01*
X0051800Y0076800D01*
X0051800Y0081800D01*
X0073800Y0081800D01*
X0073800Y0051800D01*
X0051800Y0056800D02*
X0051800Y0076800D01*
X0045614Y0053054D02*
X0044112Y0053054D01*
X0043362Y0052303D01*
X0041760Y0052303D02*
X0041760Y0049301D01*
X0041010Y0048550D01*
X0038758Y0048550D01*
X0038758Y0053054D01*
X0041010Y0053054D01*
X0041760Y0052303D01*
X0045614Y0053054D02*
X0046364Y0052303D01*
X0046364Y0051553D01*
X0043362Y0048550D01*
X0046364Y0048550D01*
X0047198Y0043553D02*
X0049450Y0043553D01*
X0050201Y0042802D01*
X0050201Y0040550D01*
X0047198Y0040550D02*
X0047198Y0043553D01*
X0045597Y0042802D02*
X0045597Y0042051D01*
X0042594Y0042051D01*
X0042594Y0041301D02*
X0042594Y0042802D01*
X0043345Y0043553D01*
X0044846Y0043553D01*
X0045597Y0042802D01*
X0043345Y0040550D02*
X0042594Y0041301D01*
X0043345Y0040550D02*
X0044846Y0040550D01*
X0040993Y0042051D02*
X0040993Y0042802D01*
X0040242Y0043553D01*
X0038741Y0043553D01*
X0037991Y0042802D01*
X0037991Y0041301D01*
X0038741Y0040550D01*
X0040242Y0040550D01*
X0040993Y0042051D02*
X0037991Y0042051D01*
X0036406Y0043553D02*
X0035655Y0043553D01*
X0034154Y0042051D01*
X0034154Y0040550D02*
X0034154Y0043553D01*
X0032553Y0044303D02*
X0031802Y0045054D01*
X0030301Y0045054D01*
X0029550Y0044303D01*
X0029550Y0041301D01*
X0030301Y0040550D01*
X0031802Y0040550D01*
X0032553Y0041301D01*
X0032553Y0042802D01*
X0031051Y0042802D01*
X0029550Y0048550D02*
X0032553Y0048550D01*
X0034154Y0048550D02*
X0037156Y0048550D01*
X0034154Y0048550D02*
X0034154Y0053054D01*
X0037156Y0053054D01*
X0035655Y0050802D02*
X0034154Y0050802D01*
X0029550Y0053054D02*
X0029550Y0048550D01*
X0099546Y0113273D02*
X0099546Y0115525D01*
X0100297Y0116275D01*
X0101798Y0116275D01*
X0102549Y0115525D01*
X0102549Y0113273D01*
X0104050Y0113273D02*
X0099546Y0113273D01*
X0099546Y0117877D02*
X0099546Y0119378D01*
X0099546Y0118627D02*
X0104050Y0118627D01*
X0104050Y0117877D02*
X0104050Y0119378D01*
X0103299Y0120946D02*
X0104050Y0121697D01*
X0104050Y0123198D01*
X0103299Y0123949D01*
X0100297Y0123949D02*
X0099546Y0123198D01*
X0099546Y0121697D01*
X0100297Y0120946D01*
X0103299Y0120946D01*
X0182346Y0068606D02*
X0183097Y0069356D01*
X0183847Y0069356D01*
X0184598Y0068606D01*
X0185349Y0069356D01*
X0186099Y0069356D01*
X0186850Y0068606D01*
X0186850Y0067105D01*
X0186099Y0066354D01*
X0184598Y0067855D02*
X0184598Y0068606D01*
X0182346Y0068606D02*
X0182346Y0067105D01*
X0183097Y0066354D01*
X0182346Y0064753D02*
X0182346Y0063251D01*
X0182346Y0064002D02*
X0186099Y0064002D01*
X0186850Y0063251D01*
X0186850Y0062501D01*
X0186099Y0061750D01*
X0184863Y0023054D02*
X0184863Y0018550D01*
X0183362Y0018550D02*
X0186364Y0018550D01*
X0183362Y0021553D02*
X0184863Y0023054D01*
X0181760Y0022303D02*
X0181760Y0019301D01*
X0181010Y0018550D01*
X0178758Y0018550D01*
X0178758Y0023054D01*
X0181010Y0023054D01*
X0181760Y0022303D01*
X0177156Y0023054D02*
X0174154Y0023054D01*
X0174154Y0018550D01*
X0177156Y0018550D01*
X0175655Y0020802D02*
X0174154Y0020802D01*
X0172553Y0018550D02*
X0169550Y0018550D01*
X0169550Y0023054D01*
X0169550Y0015054D02*
X0171802Y0015054D01*
X0172553Y0014303D01*
X0172553Y0012802D01*
X0171802Y0012051D01*
X0169550Y0012051D01*
X0169550Y0010550D02*
X0169550Y0015054D01*
X0171051Y0012051D02*
X0172553Y0010550D01*
X0174154Y0011301D02*
X0174154Y0012802D01*
X0174905Y0013553D01*
X0176406Y0013553D01*
X0177156Y0012802D01*
X0177156Y0012051D01*
X0174154Y0012051D01*
X0174154Y0011301D02*
X0174905Y0010550D01*
X0176406Y0010550D01*
X0178758Y0011301D02*
X0178758Y0012802D01*
X0179508Y0013553D01*
X0181760Y0013553D01*
X0181760Y0015054D02*
X0181760Y0010550D01*
X0179508Y0010550D01*
X0178758Y0011301D01*
X0018750Y0133893D02*
X0018750Y0134643D01*
X0017999Y0135394D01*
X0014246Y0135394D01*
X0014246Y0134643D02*
X0014246Y0136145D01*
X0016498Y0137746D02*
X0014246Y0139998D01*
X0018750Y0139998D01*
X0016498Y0140749D02*
X0016498Y0137746D01*
X0018750Y0133893D02*
X0017999Y0133142D01*
D14*
X0018181Y0011003D02*
X0017680Y0011003D01*
X0017430Y0010753D01*
X0017430Y0010503D01*
X0017680Y0010253D01*
X0018181Y0010253D01*
X0018431Y0010002D01*
X0018431Y0009752D01*
X0018181Y0009502D01*
X0017680Y0009502D01*
X0017430Y0009752D01*
X0016958Y0009752D02*
X0016958Y0011003D01*
X0015957Y0011003D02*
X0015957Y0009752D01*
X0016207Y0009502D01*
X0016708Y0009502D01*
X0016958Y0009752D01*
X0018181Y0011003D02*
X0018431Y0010753D01*
X0018903Y0011003D02*
X0018903Y0009502D01*
X0019904Y0009502D01*
X0020377Y0009502D02*
X0020377Y0011003D01*
X0021127Y0011003D01*
X0021378Y0010753D01*
X0021378Y0010253D01*
X0021127Y0010002D01*
X0020377Y0010002D01*
X0020877Y0010002D02*
X0021378Y0009502D01*
X0019904Y0011003D02*
X0018903Y0011003D01*
X0018903Y0010253D02*
X0019404Y0010253D01*
X0019404Y0006003D02*
X0019904Y0006003D01*
X0019654Y0006003D02*
X0019654Y0004752D01*
X0019404Y0004502D01*
X0019154Y0004502D01*
X0018903Y0004752D01*
X0020377Y0004502D02*
X0021378Y0004502D01*
X0020877Y0004502D02*
X0020877Y0006003D01*
X0020377Y0005503D01*
X0174154Y0164502D02*
X0174404Y0164502D01*
X0174654Y0164752D01*
X0174654Y0166003D01*
X0174404Y0166003D02*
X0174904Y0166003D01*
X0175377Y0165753D02*
X0175627Y0166003D01*
X0176127Y0166003D01*
X0176378Y0165753D01*
X0176378Y0165503D01*
X0175377Y0164502D01*
X0176378Y0164502D01*
X0174154Y0164502D02*
X0173903Y0164752D01*
X0173903Y0169502D02*
X0174904Y0169502D01*
X0174404Y0170253D02*
X0173903Y0170253D01*
X0173431Y0170002D02*
X0173431Y0169752D01*
X0173181Y0169502D01*
X0172680Y0169502D01*
X0172430Y0169752D01*
X0171958Y0169502D02*
X0170957Y0169502D01*
X0170957Y0171003D01*
X0171958Y0171003D01*
X0172430Y0170753D02*
X0172430Y0170503D01*
X0172680Y0170253D01*
X0173181Y0170253D01*
X0173431Y0170002D01*
X0173903Y0169502D02*
X0173903Y0171003D01*
X0174904Y0171003D01*
X0175377Y0171003D02*
X0176378Y0171003D01*
X0175877Y0171003D02*
X0175877Y0169502D01*
X0173431Y0170753D02*
X0173181Y0171003D01*
X0172680Y0171003D01*
X0172430Y0170753D01*
X0171457Y0170253D02*
X0170957Y0170253D01*
X0170485Y0170253D02*
X0170485Y0170753D01*
X0170234Y0171003D01*
X0169484Y0171003D01*
X0169484Y0169502D01*
X0169484Y0170002D02*
X0170234Y0170002D01*
X0170485Y0170253D01*
X0169984Y0170002D02*
X0170485Y0169502D01*
D15*
X0189300Y0169300D02*
X0189300Y0164300D01*
X0191800Y0161800D01*
X0189300Y0159300D01*
X0189300Y0154300D01*
X0191800Y0151800D01*
X0189300Y0149300D01*
X0189300Y0144300D01*
X0191800Y0141800D01*
X0196800Y0141800D01*
X0199300Y0144300D01*
X0199300Y0149300D01*
X0196800Y0151800D01*
X0199300Y0154300D01*
X0199300Y0159300D01*
X0196800Y0161800D01*
X0199300Y0164300D01*
X0199300Y0169300D01*
X0196800Y0171800D01*
X0199300Y0174300D01*
X0199300Y0179300D01*
X0196800Y0181800D01*
X0199300Y0184300D01*
X0199300Y0189300D01*
X0196800Y0191800D01*
X0191800Y0191800D01*
X0189300Y0189300D01*
X0189300Y0184300D01*
X0191800Y0181800D01*
X0189300Y0179300D01*
X0189300Y0174300D01*
X0191800Y0171800D01*
X0189300Y0169300D01*
X0191800Y0141800D02*
X0196800Y0141800D01*
X0199300Y0139300D01*
X0199300Y0134300D01*
X0196800Y0131800D01*
X0199300Y0129300D01*
X0199300Y0124300D01*
X0196800Y0121800D01*
X0199300Y0119300D01*
X0199300Y0114300D01*
X0196800Y0111800D01*
X0199300Y0109300D01*
X0199300Y0104300D01*
X0196800Y0101800D01*
X0199300Y0099300D01*
X0199300Y0094300D01*
X0196800Y0091800D01*
X0199300Y0089300D01*
X0199300Y0084300D01*
X0196800Y0081800D01*
X0199300Y0079300D01*
X0199300Y0074300D01*
X0196800Y0071800D01*
X0199300Y0069300D01*
X0199300Y0064300D01*
X0196800Y0061800D01*
X0191800Y0061800D01*
X0189300Y0064300D01*
X0189300Y0069300D01*
X0191800Y0071800D01*
X0189300Y0074300D01*
X0189300Y0079300D01*
X0191800Y0081800D01*
X0189300Y0084300D01*
X0189300Y0089300D01*
X0191800Y0091800D01*
X0189300Y0094300D01*
X0189300Y0099300D01*
X0191800Y0101800D01*
X0189300Y0104300D01*
X0189300Y0109300D01*
X0191800Y0111800D01*
X0189300Y0114300D01*
X0189300Y0119300D01*
X0191800Y0121800D01*
X0189300Y0124300D01*
X0189300Y0129300D01*
X0191800Y0131800D01*
X0189300Y0134300D01*
X0189300Y0139300D01*
X0191800Y0141800D01*
X0011800Y0139300D02*
X0011800Y0134300D01*
X0009300Y0131800D01*
X0011800Y0129300D01*
X0011800Y0124300D01*
X0009300Y0121800D01*
X0011800Y0119300D01*
X0011800Y0114300D01*
X0009300Y0111800D01*
X0011800Y0109300D01*
X0011800Y0104300D01*
X0009300Y0101800D01*
X0011800Y0099300D01*
X0011800Y0094300D01*
X0009300Y0091800D01*
X0011800Y0089300D01*
X0011800Y0084300D01*
X0009300Y0081800D01*
X0011800Y0079300D01*
X0011800Y0074300D01*
X0009300Y0071800D01*
X0011800Y0069300D01*
X0011800Y0064300D01*
X0009300Y0061800D01*
X0004300Y0061800D01*
X0001800Y0064300D01*
X0001800Y0069300D01*
X0004300Y0071800D01*
X0001800Y0074300D01*
X0001800Y0079300D01*
X0004300Y0081800D01*
X0001800Y0084300D01*
X0001800Y0089300D01*
X0004300Y0091800D01*
X0001800Y0094300D01*
X0001800Y0099300D01*
X0004300Y0101800D01*
X0001800Y0104300D01*
X0001800Y0109300D01*
X0004300Y0111800D01*
X0001800Y0114300D01*
X0001800Y0119300D01*
X0004300Y0121800D01*
X0001800Y0124300D01*
X0001800Y0129300D01*
X0004300Y0131800D01*
X0001800Y0134300D01*
X0001800Y0139300D01*
X0004300Y0141800D01*
X0009300Y0141800D01*
X0011800Y0139300D01*
D16*
X0014854Y0042831D02*
X0014953Y0042662D01*
X0015057Y0042496D01*
X0015164Y0042332D01*
X0015275Y0042171D01*
X0015390Y0042013D01*
X0015509Y0041858D01*
X0015632Y0041705D01*
X0015758Y0041556D01*
X0015888Y0041410D01*
X0016022Y0041267D01*
X0016159Y0041127D01*
X0016299Y0040991D01*
X0016443Y0040858D01*
X0016590Y0040729D01*
X0016740Y0040603D01*
X0016893Y0040482D01*
X0017049Y0040363D01*
X0017208Y0040249D01*
X0017369Y0040139D01*
X0017534Y0040033D01*
X0017700Y0039930D01*
X0017870Y0039832D01*
X0018041Y0039738D01*
X0018215Y0039648D01*
X0018391Y0039563D01*
X0018569Y0039481D01*
X0018749Y0039405D01*
X0018931Y0039332D01*
X0019114Y0039264D01*
X0019299Y0039201D01*
X0019486Y0039142D01*
X0019674Y0039088D01*
X0019863Y0039038D01*
X0020053Y0038993D01*
X0020245Y0038953D01*
X0020437Y0038917D01*
X0020630Y0038886D01*
X0020824Y0038860D01*
X0021019Y0038838D01*
X0021214Y0038822D01*
X0021409Y0038810D01*
X0021605Y0038802D01*
X0021800Y0038800D01*
X0014741Y0050565D02*
X0014834Y0050733D01*
X0014930Y0050899D01*
X0015030Y0051063D01*
X0015135Y0051224D01*
X0015243Y0051383D01*
X0015355Y0051539D01*
X0015471Y0051693D01*
X0015590Y0051843D01*
X0015713Y0051991D01*
X0015839Y0052136D01*
X0015969Y0052277D01*
X0016102Y0052416D01*
X0016239Y0052551D01*
X0016379Y0052683D01*
X0016521Y0052811D01*
X0016667Y0052936D01*
X0016816Y0053058D01*
X0016968Y0053176D01*
X0017122Y0053290D01*
X0017280Y0053400D01*
X0017439Y0053507D01*
X0017602Y0053610D01*
X0017767Y0053709D01*
X0017934Y0053804D01*
X0018103Y0053894D01*
X0018274Y0053981D01*
X0018448Y0054064D01*
X0018623Y0054142D01*
X0018801Y0054216D01*
X0018980Y0054286D01*
X0019160Y0054352D01*
X0019342Y0054413D01*
X0019526Y0054470D01*
X0019711Y0054522D01*
X0019897Y0054570D01*
X0020084Y0054614D01*
X0020272Y0054653D01*
X0020461Y0054687D01*
X0020651Y0054717D01*
X0020841Y0054742D01*
X0021032Y0054763D01*
X0021224Y0054779D01*
X0021416Y0054791D01*
X0021608Y0054798D01*
X0021800Y0054800D01*
X0027907Y0041632D02*
X0027780Y0041486D01*
X0027651Y0041344D01*
X0027517Y0041204D01*
X0027381Y0041068D01*
X0027241Y0040935D01*
X0027098Y0040805D01*
X0026951Y0040679D01*
X0026802Y0040557D01*
X0026650Y0040438D01*
X0026495Y0040323D01*
X0026338Y0040211D01*
X0026178Y0040104D01*
X0026015Y0040000D01*
X0025849Y0039901D01*
X0025682Y0039805D01*
X0025512Y0039713D01*
X0025340Y0039626D01*
X0025166Y0039542D01*
X0024990Y0039463D01*
X0024812Y0039389D01*
X0024632Y0039318D01*
X0024451Y0039252D01*
X0024268Y0039190D01*
X0024084Y0039133D01*
X0023898Y0039080D01*
X0023711Y0039032D01*
X0023523Y0038988D01*
X0023334Y0038949D01*
X0023144Y0038914D01*
X0022954Y0038884D01*
X0022763Y0038858D01*
X0022571Y0038837D01*
X0022378Y0038821D01*
X0022186Y0038809D01*
X0021993Y0038802D01*
X0021800Y0038800D01*
X0027946Y0051922D02*
X0027819Y0052070D01*
X0027689Y0052215D01*
X0027556Y0052356D01*
X0027419Y0052495D01*
X0027279Y0052630D01*
X0027135Y0052761D01*
X0026988Y0052889D01*
X0026839Y0053014D01*
X0026686Y0053135D01*
X0026531Y0053252D01*
X0026372Y0053365D01*
X0026211Y0053474D01*
X0026047Y0053579D01*
X0025881Y0053681D01*
X0025712Y0053778D01*
X0025542Y0053871D01*
X0025368Y0053960D01*
X0025193Y0054045D01*
X0025016Y0054125D01*
X0024837Y0054201D01*
X0024656Y0054273D01*
X0024473Y0054340D01*
X0024289Y0054403D01*
X0024103Y0054461D01*
X0023916Y0054515D01*
X0023728Y0054564D01*
X0023538Y0054609D01*
X0023348Y0054649D01*
X0023156Y0054684D01*
X0022964Y0054715D01*
X0022771Y0054741D01*
X0022577Y0054762D01*
X0022383Y0054779D01*
X0022189Y0054791D01*
X0021995Y0054798D01*
X0021800Y0054800D01*
X0154854Y0012831D02*
X0154953Y0012662D01*
X0155057Y0012496D01*
X0155164Y0012332D01*
X0155275Y0012171D01*
X0155390Y0012013D01*
X0155509Y0011858D01*
X0155632Y0011705D01*
X0155758Y0011556D01*
X0155888Y0011410D01*
X0156022Y0011267D01*
X0156159Y0011127D01*
X0156299Y0010991D01*
X0156443Y0010858D01*
X0156590Y0010729D01*
X0156740Y0010603D01*
X0156893Y0010482D01*
X0157049Y0010363D01*
X0157208Y0010249D01*
X0157369Y0010139D01*
X0157534Y0010033D01*
X0157700Y0009930D01*
X0157870Y0009832D01*
X0158041Y0009738D01*
X0158215Y0009648D01*
X0158391Y0009563D01*
X0158569Y0009481D01*
X0158749Y0009405D01*
X0158931Y0009332D01*
X0159114Y0009264D01*
X0159299Y0009201D01*
X0159486Y0009142D01*
X0159674Y0009088D01*
X0159863Y0009038D01*
X0160053Y0008993D01*
X0160245Y0008953D01*
X0160437Y0008917D01*
X0160630Y0008886D01*
X0160824Y0008860D01*
X0161019Y0008838D01*
X0161214Y0008822D01*
X0161409Y0008810D01*
X0161605Y0008802D01*
X0161800Y0008800D01*
X0154741Y0020565D02*
X0154834Y0020733D01*
X0154930Y0020899D01*
X0155030Y0021063D01*
X0155135Y0021224D01*
X0155243Y0021383D01*
X0155355Y0021539D01*
X0155471Y0021693D01*
X0155590Y0021843D01*
X0155713Y0021991D01*
X0155839Y0022136D01*
X0155969Y0022277D01*
X0156102Y0022416D01*
X0156239Y0022551D01*
X0156379Y0022683D01*
X0156521Y0022811D01*
X0156667Y0022936D01*
X0156816Y0023058D01*
X0156968Y0023176D01*
X0157122Y0023290D01*
X0157280Y0023400D01*
X0157439Y0023507D01*
X0157602Y0023610D01*
X0157767Y0023709D01*
X0157934Y0023804D01*
X0158103Y0023894D01*
X0158274Y0023981D01*
X0158448Y0024064D01*
X0158623Y0024142D01*
X0158801Y0024216D01*
X0158980Y0024286D01*
X0159160Y0024352D01*
X0159342Y0024413D01*
X0159526Y0024470D01*
X0159711Y0024522D01*
X0159897Y0024570D01*
X0160084Y0024614D01*
X0160272Y0024653D01*
X0160461Y0024687D01*
X0160651Y0024717D01*
X0160841Y0024742D01*
X0161032Y0024763D01*
X0161224Y0024779D01*
X0161416Y0024791D01*
X0161608Y0024798D01*
X0161800Y0024800D01*
X0167907Y0011632D02*
X0167780Y0011486D01*
X0167651Y0011344D01*
X0167517Y0011204D01*
X0167381Y0011068D01*
X0167241Y0010935D01*
X0167098Y0010805D01*
X0166951Y0010679D01*
X0166802Y0010557D01*
X0166650Y0010438D01*
X0166495Y0010323D01*
X0166338Y0010211D01*
X0166178Y0010104D01*
X0166015Y0010000D01*
X0165849Y0009901D01*
X0165682Y0009805D01*
X0165512Y0009713D01*
X0165340Y0009626D01*
X0165166Y0009542D01*
X0164990Y0009463D01*
X0164812Y0009389D01*
X0164632Y0009318D01*
X0164451Y0009252D01*
X0164268Y0009190D01*
X0164084Y0009133D01*
X0163898Y0009080D01*
X0163711Y0009032D01*
X0163523Y0008988D01*
X0163334Y0008949D01*
X0163144Y0008914D01*
X0162954Y0008884D01*
X0162763Y0008858D01*
X0162571Y0008837D01*
X0162378Y0008821D01*
X0162186Y0008809D01*
X0161993Y0008802D01*
X0161800Y0008800D01*
X0167946Y0021922D02*
X0167819Y0022070D01*
X0167689Y0022215D01*
X0167556Y0022356D01*
X0167419Y0022495D01*
X0167279Y0022630D01*
X0167135Y0022761D01*
X0166988Y0022889D01*
X0166839Y0023014D01*
X0166686Y0023135D01*
X0166531Y0023252D01*
X0166372Y0023365D01*
X0166211Y0023474D01*
X0166047Y0023579D01*
X0165881Y0023681D01*
X0165712Y0023778D01*
X0165542Y0023871D01*
X0165368Y0023960D01*
X0165193Y0024045D01*
X0165016Y0024125D01*
X0164837Y0024201D01*
X0164656Y0024273D01*
X0164473Y0024340D01*
X0164289Y0024403D01*
X0164103Y0024461D01*
X0163916Y0024515D01*
X0163728Y0024564D01*
X0163538Y0024609D01*
X0163348Y0024649D01*
X0163156Y0024684D01*
X0162964Y0024715D01*
X0162771Y0024741D01*
X0162577Y0024762D01*
X0162383Y0024779D01*
X0162189Y0024791D01*
X0161995Y0024798D01*
X0161800Y0024800D01*
D17*
X0138117Y0010819D02*
X0138117Y0008484D01*
X0137534Y0007900D01*
X0136366Y0007900D01*
X0135782Y0008484D01*
X0138117Y0010819D01*
X0137534Y0011403D01*
X0136366Y0011403D01*
X0135782Y0010819D01*
X0135782Y0008484D01*
X0134526Y0008484D02*
X0133943Y0007900D01*
X0132775Y0007900D01*
X0132191Y0008484D01*
X0130935Y0008484D02*
X0130351Y0007900D01*
X0129184Y0007900D01*
X0128600Y0008484D01*
X0129768Y0009651D02*
X0130351Y0009651D01*
X0130935Y0009068D01*
X0130935Y0008484D01*
X0130351Y0009651D02*
X0130935Y0010235D01*
X0130935Y0010819D01*
X0130351Y0011403D01*
X0129184Y0011403D01*
X0128600Y0010819D01*
X0132191Y0010819D02*
X0132775Y0011403D01*
X0133943Y0011403D01*
X0134526Y0010819D01*
X0134526Y0010235D01*
X0133943Y0009651D01*
X0134526Y0009068D01*
X0134526Y0008484D01*
X0133943Y0009651D02*
X0133359Y0009651D01*
X0133859Y0021600D02*
X0133859Y0025103D01*
X0132691Y0023935D01*
X0131435Y0024519D02*
X0131435Y0023351D01*
X0130851Y0022768D01*
X0129100Y0022768D01*
X0130268Y0022768D02*
X0131435Y0021600D01*
X0132691Y0021600D02*
X0135026Y0021600D01*
X0131435Y0024519D02*
X0130851Y0025103D01*
X0129100Y0025103D01*
X0129100Y0021600D01*
X0070700Y0017534D02*
X0069532Y0015782D01*
X0068365Y0017534D01*
X0067197Y0015782D02*
X0070700Y0015782D01*
X0070116Y0014526D02*
X0070700Y0013943D01*
X0070700Y0012775D01*
X0070116Y0012191D01*
X0067781Y0014526D01*
X0070116Y0014526D01*
X0070116Y0012191D02*
X0067781Y0012191D01*
X0067197Y0012775D01*
X0067197Y0013943D01*
X0067781Y0014526D01*
X0070700Y0010935D02*
X0070700Y0008600D01*
X0070700Y0009768D02*
X0067197Y0009768D01*
X0068365Y0008600D01*
X0057000Y0009100D02*
X0053497Y0009100D01*
X0053497Y0010851D01*
X0054081Y0011435D01*
X0055249Y0011435D01*
X0055832Y0010851D01*
X0055832Y0009100D01*
X0055832Y0010268D02*
X0057000Y0011435D01*
X0055249Y0012691D02*
X0055249Y0015026D01*
X0057000Y0014443D02*
X0053497Y0014443D01*
X0055249Y0012691D01*
X0050700Y0012775D02*
X0050116Y0012191D01*
X0050700Y0012775D02*
X0050700Y0013943D01*
X0050116Y0014526D01*
X0049532Y0014526D01*
X0048949Y0013943D01*
X0048949Y0013359D01*
X0048949Y0013943D02*
X0048365Y0014526D01*
X0047781Y0014526D01*
X0047197Y0013943D01*
X0047197Y0012775D01*
X0047781Y0012191D01*
X0047781Y0010935D02*
X0048365Y0010935D01*
X0048949Y0010351D01*
X0049532Y0010935D01*
X0050116Y0010935D01*
X0050700Y0010351D01*
X0050700Y0009184D01*
X0050116Y0008600D01*
X0048949Y0009768D02*
X0048949Y0010351D01*
X0047781Y0010935D02*
X0047197Y0010351D01*
X0047197Y0009184D01*
X0047781Y0008600D01*
X0047781Y0015782D02*
X0047197Y0016366D01*
X0047197Y0017534D01*
X0047781Y0018117D01*
X0050116Y0015782D01*
X0050700Y0016366D01*
X0050700Y0017534D01*
X0050116Y0018117D01*
X0047781Y0018117D01*
X0047781Y0015782D02*
X0050116Y0015782D01*
X0037000Y0015026D02*
X0037000Y0012691D01*
X0034665Y0015026D01*
X0034081Y0015026D01*
X0033497Y0014443D01*
X0033497Y0013275D01*
X0034081Y0012691D01*
X0034081Y0011435D02*
X0035249Y0011435D01*
X0035832Y0010851D01*
X0035832Y0009100D01*
X0035832Y0010268D02*
X0037000Y0011435D01*
X0037000Y0009100D02*
X0033497Y0009100D01*
X0033497Y0010851D01*
X0034081Y0011435D01*
X0163600Y0147900D02*
X0165935Y0147900D01*
X0164768Y0147900D02*
X0164768Y0151403D01*
X0163600Y0150235D01*
X0167191Y0150819D02*
X0167191Y0148484D01*
X0169526Y0150819D01*
X0169526Y0148484D01*
X0168943Y0147900D01*
X0167775Y0147900D01*
X0167191Y0148484D01*
X0167191Y0150819D02*
X0167775Y0151403D01*
X0168943Y0151403D01*
X0169526Y0150819D01*
X0170782Y0151403D02*
X0170782Y0147900D01*
X0170782Y0149068D02*
X0172534Y0147900D01*
X0170782Y0149068D02*
X0172534Y0150235D01*
X0169443Y0161600D02*
X0168275Y0161600D01*
X0167691Y0162184D01*
X0166435Y0161600D02*
X0165268Y0162768D01*
X0165851Y0162768D02*
X0164100Y0162768D01*
X0164100Y0161600D02*
X0164100Y0165103D01*
X0165851Y0165103D01*
X0166435Y0164519D01*
X0166435Y0163351D01*
X0165851Y0162768D01*
X0167691Y0164519D02*
X0168275Y0165103D01*
X0169443Y0165103D01*
X0170026Y0164519D01*
X0170026Y0163935D01*
X0169443Y0163351D01*
X0170026Y0162768D01*
X0170026Y0162184D01*
X0169443Y0161600D01*
X0169443Y0163351D02*
X0168859Y0163351D01*
X0048411Y0192794D02*
X0042272Y0192794D01*
X0043039Y0192027D02*
X0043039Y0193561D01*
X0043807Y0194329D01*
X0045341Y0193561D02*
X0045341Y0192027D01*
X0044574Y0191259D01*
X0043807Y0191259D01*
X0043039Y0192027D01*
X0043039Y0189725D02*
X0046876Y0189725D01*
X0047643Y0188957D01*
X0047643Y0187423D01*
X0046876Y0186656D01*
X0043039Y0186656D01*
X0046876Y0191259D02*
X0047643Y0192027D01*
X0047643Y0193561D01*
X0046876Y0194329D01*
X0046109Y0194329D01*
X0045341Y0193561D01*
X0045341Y0195863D02*
X0045341Y0198933D01*
X0043039Y0198165D02*
X0045341Y0195863D01*
X0047643Y0198165D02*
X0043039Y0198165D01*
M02*
